<?xml version="1.0" encoding="UTF-8"?><svg id="Layer_1" xmlns="http://www.w3.org/2000/svg" width="50" height="50" viewBox="0 0 50 50"><defs><style>.cls-1{fill:#fff;}</style></defs><g id="Layer_1-2"><path class="cls-1" d="M31.33,.92c1.29,0,2.59,.07,3.87,.12,.84,.03,1.68,.15,2.46,.23l-.06,7.76h-3.18c-.63,0-1.28,0-1.91,.03-2.05,.07-3.56,.84-3.67,3.41-.07,1.84-.11,5.93-.11,6.15h8.56c-.41,2.97-.8,5.83-1.21,8.71h-7.35l-.17,21.75h-9.02l.17-21.79h-7.37l.07-8.67h7.41v-.65c.01-1.75,0-3.49,.07-5.24,.03-1.1,.08-2.23,.28-3.32,.5-2.65,1.73-4.88,3.95-6.47,1.94-1.39,4.15-1.98,6.49-2.04h.73Z"/></g></svg>