<?xml version="1.0" encoding="UTF-8"?><svg id="Layer_3" xmlns="http://www.w3.org/2000/svg" width="50" height="50" viewBox="0 0 50 50"><defs><style>.cls-1{fill:#fff;}</style></defs><g id="Layer_1-2"><g><path class="cls-1" d="M37.91,9.34h.03c1.58,0,2.87,1.29,2.85,2.9,0,1.58-1.32,2.87-2.91,2.87-1.6-.02-2.87-1.32-2.85-2.9,0-1.6,1.3-2.87,2.88-2.87Z"/><path class="cls-1" d="M48.73,13.04c.36,3.78,.59,21.64-.53,25.83-1.49,5.47-5.07,8.71-10.6,9.61-2.08,.34-7.66,.54-13.25,.54s-11.43-.22-13.35-.71c-5.44-1.41-8.7-4.96-9.56-10.48-.64-4.06-.7-22.88,.47-26.97C3.43,5.54,6.98,2.41,12.36,1.52c2.43-.4,7.21-.54,12.03-.54,4.48,0,9.01,.12,11.74,.26,3.3,.17,6.31,1.24,8.77,3.58,2.34,2.23,3.53,5.04,3.83,8.2v.02Zm-4.62,24c.68-4.22,.68-19.64,.29-23.59-.43-4.22-3.01-7.01-7.19-7.66-2.06-.31-7.05-.45-12.01-.45s-9.55,.12-11.64,.36c-4.19,.48-7.01,3.07-7.67,7.24-.68,4.42-.68,20.93-.17,24.25,.53,3.46,2.48,5.83,5.92,6.79,1.86,.53,7.44,.71,12.91,.71,5.04,0,9.98-.16,11.84-.36,4.23-.47,7.02-3.07,7.69-7.27"/><path class="cls-1" d="M25.1,12.68c6.79,0,12.26,5.52,12.22,12.32-.05,6.79-5.61,12.31-12.42,12.31s-12.26-5.52-12.22-12.32c.05-6.81,5.61-12.32,12.42-12.31Zm-.19,20.28c4.37,0,7.95-3.52,8.03-7.89,.08-4.42-3.43-8-7.83-8.05h-.08c-4.37,0-7.95,3.52-8.03,7.89-.08,4.4,3.43,8,7.83,8.05h.08"/></g></g></svg>