<?xml version="1.0" encoding="UTF-8"?><svg id="Layer_4" xmlns="http://www.w3.org/2000/svg" width="50" height="50" viewBox="0 0 50 50"><defs><style>.cls-1{fill:#fff;}</style></defs><g id="Layer_1-2"><path class="cls-1" d="M47.57,12.68c1.71,4.48,1.63,20.83-.42,25.17-.56,1.19-1.46,1.99-2.58,2.6-1.6,.83-10.9,1.22-20.02,1.22-8.39,0-16.62-.33-18.55-.97-1.78-.59-3-1.77-3.64-3.55C.84,32.81,.5,14.64,3.57,11.04c1.04-1.22,2.39-1.95,3.99-2.11,3.65-.4,10.71-.59,17.67-.59,8.66,0,17.17,.3,18.78,.89,1.71,.61,2.93,1.74,3.56,3.43h-.01Zm-28.48,19.53c4.93-2.57,9.84-5.09,14.82-7.66-4.93-2.58-9.82-5.14-14.7-7.71-.04,5.14-.07,10.22-.12,15.37"/></g></svg>