<?xml version="1.0" encoding="UTF-8"?><svg id="Layer_1" xmlns="http://www.w3.org/2000/svg" width="111.98" height="111.98" viewBox="0 0 111.98 111.98"><defs><style>.cls-1{fill:#1d1d1b;}.cls-2{fill:#e6e6e6;stroke:#1d1d1b;}.cls-2,.cls-3{stroke-miterlimit:10;}.cls-3{fill:none;stroke:#e6e6e6;}</style></defs><circle class="cls-1" cx="56.99" cy="55.99" r="52.99"/><path class="cls-2" d="M67.56,71.02c-16.76,2.51-33.42,2.51-50.18,0-2.2-.47-4.17-2.14-5.01-4.22-3.22-10.26-3.22-19.89,0-30.15,.84-2.09,2.81-3.75,5.01-4.22,16.76-2.51,33.42-2.51,50.18,0,2.2,.47,4.17,2.14,5.01,4.22,3.22,10.26,3.22,19.89,0,30.15-.84,2.09-2.81,3.75-5.01,4.22Z"/><g><path class="cls-1" d="M20.39,49.31h-1.66v-.83h-.83v-.83h-.83v-.83h-.83v2.49h-1.66v-5.81h1.66v.83h.83v.83h.83v.83h.83v-2.49h1.66v5.81Z"/><path class="cls-1" d="M26.85,44.33h-1.66v4.15h1.66v.83h-4.98v-.83h1.66v-4.15h-1.66v-.83h4.98v.83Z"/><path class="cls-1" d="M34.14,49.31h-1.66v-.83h-.83v-.83h-.83v-.83h-.83v2.49h-1.66v-5.81h1.66v.83h.83v.83h.83v.83h.83v-2.49h1.66v5.81Z"/><path class="cls-1" d="M40.6,44.33h-1.66v4.98h-1.66v-4.98h-1.66v-.83h4.98v.83Z"/><path class="cls-1" d="M47.89,49.31h-5.81v-5.81h5.81v.83h-4.15v1.66h3.32v.83h-3.32v1.66h4.15v.83Z"/><path class="cls-1" d="M54.76,49.31h-1.66v-.83h-.83v-.83h-.83v-.83h-.83v2.49h-1.66v-5.81h1.66v.83h.83v.83h.83v.83h.83v-2.49h1.66v5.81Z"/><path class="cls-1" d="M61.63,47.65h-.83v.83h-.83v.83h-4.15v-5.81h4.15v.83h.83v.83h.83v2.49Zm-1.66,0v-2.49h-.83v-.83h-1.66v4.15h1.66v-.83h.83Z"/><path class="cls-1" d="M68.5,48.48h-.83v.83h-4.15v-.83h-.83v-4.15h.83v-.83h4.15v.83h.83v4.15Zm-1.66,0v-4.15h-2.49v4.15h2.49Z"/><path class="cls-1" d="M20.39,56.78h-.83v.83h-3.32v1.66h-1.66v-5.81h4.98v.83h.83v2.49Zm-1.66,0v-2.49h-2.49v2.49h2.49Z"/><path class="cls-1" d="M27.27,58.44h-.83v.83h-4.15v-.83h-.83v-4.98h1.66v4.98h2.49v-4.98h1.66v4.98Z"/><path class="cls-1" d="M34.14,58.44h-.83v.83h-4.15v-.83h-.83v-.83h1.66v.83h2.49v-1.66h-3.32v-.83h-.83v-1.66h.83v-.83h3.32v.83h.83v.83h-1.66v-.83h-1.66v1.66h3.32v.83h.83v1.66Z"/><path class="cls-1" d="M41.01,59.27h-1.66v-2.49h-2.49v2.49h-1.66v-5.81h1.66v2.49h2.49v-2.49h1.66v5.81Z"/><path class="cls-1" d="M47.89,59.27h-5.81v-5.81h5.81v.83h-4.15v1.66h3.32v.83h-3.32v1.66h4.15v.83Z"/><path class="cls-1" d="M54.76,59.27h-2.49v-.83h-.83v-.83h-.83v1.66h-1.66v-5.81h4.98v.83h.83v2.49h-1.66v.83h.83v.83h.83v.83Zm-1.66-3.32v-1.66h-2.49v2.49h1.66v-.83h.83Z"/><path class="cls-1" d="M61.63,59.27h-5.81v-5.81h5.81v.83h-4.15v1.66h3.32v.83h-3.32v1.66h4.15v.83Z"/><path class="cls-1" d="M68.5,59.27h-1.66v-.83h-.83v-.83h-.83v-.83h-.83v2.49h-1.66v-5.81h1.66v.83h.83v.83h.83v.83h.83v-2.49h1.66v5.81Z"/></g><g><path class="cls-1" d="M27.67,64.61h-.35v.35h-1.41v.71h-.71v-2.47h2.12v.35h.35v1.06Zm-.71,0v-1.06h-1.06v1.06h1.06Z"/><path class="cls-1" d="M30.59,65.67h-1.06v-.35h-.35v-.35h-.35v.71h-.71v-2.47h2.12v.35h.35v1.06h-.71v.35h.35v.35h.35v.35Zm-.71-1.41v-.71h-1.06v1.06h.71v-.35h.35Z"/><path class="cls-1" d="M33.52,65.67h-2.47v-2.47h2.47v.35h-1.77v.71h1.41v.35h-1.41v.71h1.77v.35Z"/><path class="cls-1" d="M36.44,65.32h-.35v.35h-1.77v-.35h-.35v-.35h.71v.35h1.06v-.71h-1.41v-.35h-.35v-.71h.35v-.35h1.41v.35h.35v.35h-.71v-.35h-.71v.71h1.41v.35h.35v.71Z"/><path class="cls-1" d="M39.37,65.32h-.35v.35h-1.77v-.35h-.35v-.35h.71v.35h1.06v-.71h-1.41v-.35h-.35v-.71h.35v-.35h1.41v.35h.35v.35h-.71v-.35h-.71v.71h1.41v.35h.35v.71Z"/><path class="cls-1" d="M45.21,65.32h-.35v.35h-1.77v-.35h-.35v-.35h.71v.35h1.06v-.71h-1.41v-.35h-.35v-.71h.35v-.35h1.41v.35h.35v.35h-.71v-.35h-.71v.71h1.41v.35h.35v.71Z"/><path class="cls-1" d="M47.61,63.55h-.71v2.12h-.71v-2.12h-.71v-.35h2.12v.35Z"/><path class="cls-1" d="M50.53,65.67h-.71v-.71h-1.06v.71h-.71v-1.77h.35v-.35h.35v-.35h1.06v.35h.35v.35h.35v1.77Zm-.71-1.06v-.71h-.35v-.35h-.35v.35h-.35v.71h1.06Z"/><path class="cls-1" d="M53.46,65.67h-1.06v-.35h-.35v-.35h-.35v.71h-.71v-2.47h2.12v.35h.35v1.06h-.71v.35h.35v.35h.35v.35Zm-.71-1.41v-.71h-1.06v1.06h.71v-.35h.35Z"/><path class="cls-1" d="M56.2,63.55h-.71v2.12h-.71v-2.12h-.71v-.35h2.12v.35Z"/></g><g><path class="cls-3" d="M77.86,25.6H7c-1.81,0-3.28,1.47-3.28,3.28v45.17c0,1.81,1.47,3.28,3.28,3.28H77.86c1.81,0,3.28-1.47,3.28-3.28V28.89c0-1.81-1.47-3.28-3.28-3.28h-5.12"/><path class="cls-3" d="M7,25.6l12.75-3.11c1.25-.31,2.54-.46,3.83-.46h59.32c1.42,0,2.58,1.15,2.58,2.58v43.6c0,.95-.32,1.86-.91,2.6l-4.6,5.77"/><path class="cls-3" d="M79.9,83.39l-4.73-1.72c-1.4-.51-3.25,.21-4.13,1.6l-4.96,7.84c-.88,1.39-.46,2.94,.94,3.44l4.73,1.72c1.4,.51,3.25-.21,4.13-1.6l4.96-7.84c.88-1.39,.46-2.94-.94-3.44Z"/><path class="cls-3" d="M65.62,93.2v2.78c0,1.19,.76,2.24,1.88,2.62l4.86,1.63c1.22,.41,2.57-.06,3.27-1.13l4.93-7.49c.49-.74,.74-1.6,.74-2.49v-3.87"/><polyline class="cls-3" points="77.17 82.4 73.61 88.09 78.57 90.43 69.05 86.42"/><path class="cls-3" d="M85.43,63.24c2.16,.78,4.34,1.57,6.25,2.83s3.57,3.06,4.21,5.26,.08,4.83-1.71,6.26c-1.39,1.11-3.53,1.67-3.92,3.4-.32,1.46,.88,2.85,.95,4.34,.09,2.13-2.24,3.71-4.36,3.64s-2-2.2-5.33-2.13"/></g></svg>