<?xml version="1.0" encoding="UTF-8"?><svg id="Layer_1" xmlns="http://www.w3.org/2000/svg" width="309" height="356" viewBox="0 0 309 356"><defs><style>.cls-1,.cls-2,.cls-3,.cls-4,.cls-5,.cls-6,.cls-7,.cls-8{stroke-miterlimit:10;}.cls-1,.cls-2,.cls-7{stroke-width:3px;}.cls-1,.cls-3,.cls-4,.cls-5{stroke:#000;}.cls-1,.cls-4,.cls-5,.cls-6,.cls-8{fill:none;}.cls-2,.cls-6,.cls-7{stroke:#1d1d1b;}.cls-9{fill:#fff;}.cls-3{fill:#646060;}.cls-3,.cls-5{stroke-width:4px;}.cls-4{stroke-width:8px;}.cls-4,.cls-8{stroke-linecap:round;}.cls-7{fill:#e6e6e6;}.cls-8{stroke:#fff;stroke-width:.75px;}</style></defs><g><path class="cls-5" d="M239.75,259.12c-.88,9.32-3.53,18.28-10.86,24.69-10.46,9.16-26.75,9.84-41.45,9.96-10.57,.09-21.13,.18-31.7,.27-12.96,.11-27.02-.1-37.22-7.19-12.69-8.82-14.86-24.99-23.81-36.89-9.77-12.98-26.6-19.74-43.31-25.23V121.75c0-18.19,16.62-32.93,37.12-32.93H233.49c20.5,0,37.12,14.74,37.12,32.93v123.38s-13.78-.01-13.78-.01c-8.94,0-16.34,6.09-17.08,13.99Z"/><path class="cls-3" d="M94.71,249.97c8.95,11.89,11.12,28.06,23.81,36.89,10.2,7.09,24.26,7.3,37.22,7.19,10.57-.09,21.13-.18,31.7-.27,14.7-.13,30.99-.81,41.45-9.96,7.33-6.42,9.98-15.37,10.86-24.69,.74-7.9,8.14-14,17.08-13.99h13.78s0,55.98,0,55.98c0,18.19-16.62,32.93-37.12,32.93H88.53c-20.5,0-37.12-14.74-37.12-32.93v-76.35c16.71,5.49,33.54,12.25,43.31,25.23Z"/></g><path class="cls-1" d="M61.96,72h-12.79c-13.96,0-25.28,10.04-25.28,22.42v179.82c0,7.78,3.24,15.29,9.11,21.08l30.37,29.98"/><path class="cls-6" d="M243.71,95.25l-67.15-21.01c-5.94-1.48-12.04-2.23-18.17-2.23h-61.37"/><rect class="cls-2" x="86.29" y="158.11" width="81.88" height="66.67" rx="5.56" ry="5.56" transform="translate(254.46 382.88) rotate(-180)"/><rect class="cls-2" x="195.53" y="158.11" width="81.88" height="66.67" rx="5.56" ry="5.56" transform="translate(472.94 382.88) rotate(-180)"/><rect x="157.8" y="181.87" width="46.48" height="15.49" transform="translate(362.09 379.23) rotate(-180)"/><polygon points="86.29 180.69 32.78 164.2 32.78 174.35 86.29 191.44 86.29 180.69"/><path class="cls-4" d="M210.57,267.51c-4.57,7.16-11.41,12.85-19.29,16.04-7.87,3.19-16.74,3.87-25.01,1.92"/><path class="cls-7" d="M70.17,101.75l-26-12.2c-6.97-3.27-11.39-10.07-11.39-17.52v-23.24c0-7.74,6.54-14.01,14.6-14.01H193.82c6.22,0,12.4,.99,18.29,2.92l39.07,12.81"/><rect class="cls-7" x="70.17" y="50.51" width="193.11" height="62.84" rx="9.02" ry="9.02" transform="translate(333.44 163.87) rotate(-180)"/><path class="cls-7" d="M73.9,104.26h188.66c.54,0,1.08,.11,1.57,.33l33.72,15.04c3.62,1.61,2.42,6.82-1.57,6.82H115.61c-5.81,0-11.55-1.22-16.82-3.57l-26.46-11.8c-3.62-1.61-2.42-6.82,1.57-6.82Z"/><path class="cls-8" d="M210.57,267.51c-4.57,7.16-11.41,12.85-19.29,16.04-7.87,3.19-16.74,3.87-25.01,1.92"/><circle class="cls-9" cx="240.21" cy="192.31" r="27.32"/><circle class="cls-9" cx="131.78" cy="192.31" r="25.89"/><circle cx="248.31" cy="193.82" r="11.7"/><circle cx="139.5" cy="192.31" r="11.09"/><circle class="cls-9" cx="253.87" cy="188.65" r="5.56"/><circle class="cls-9" cx="145.32" cy="187.93" r="5.27"/></svg>