<?xml version="1.0" encoding="UTF-8"?><svg id="Layer_1" xmlns="http://www.w3.org/2000/svg" width="309" height="356" viewBox="0 0 309 356"><defs><style>.cls-1,.cls-2,.cls-3,.cls-4,.cls-5,.cls-6,.cls-7,.cls-8{stroke-miterlimit:10;}.cls-1,.cls-2,.cls-7{stroke-width:3px;}.cls-1,.cls-3,.cls-4,.cls-5{stroke:#000;}.cls-1,.cls-4,.cls-5,.cls-6,.cls-8{fill:none;}.cls-2,.cls-6,.cls-7{stroke:#1d1d1b;}.cls-9{fill:#fff;}.cls-3{fill:#646060;}.cls-3,.cls-5{stroke-width:4px;}.cls-4{stroke-width:8px;}.cls-4,.cls-8{stroke-linecap:round;}.cls-7{fill:#e6e6e6;}.cls-8{stroke:#fff;stroke-width:.75px;}</style></defs><g><path class="cls-5" d="M70.14,255.12c.88,9.32,3.53,18.28,10.86,24.69,10.46,9.16,26.75,9.84,41.45,9.96,10.57,.09,21.13,.18,31.7,.27,12.96,.11,27.02-.1,37.22-7.19,12.69-8.82,14.86-24.99,23.81-36.89,9.77-12.98,26.6-19.74,43.31-25.23V117.75c0-18.19-16.62-32.93-37.12-32.93H76.4c-20.5,0-37.12,14.74-37.12,32.93v123.38h13.78c8.94-.02,16.34,6.08,17.08,13.98Z"/><path class="cls-3" d="M215.18,245.97c-8.95,11.89-11.12,28.06-23.81,36.89-10.2,7.09-24.26,7.3-37.22,7.19-10.57-.09-21.13-.18-31.7-.27-14.7-.13-30.99-.81-41.45-9.96-7.33-6.42-9.98-15.37-10.86-24.69-.74-7.9-8.14-14-17.08-13.99h-13.78v55.98c0,18.19,16.62,32.93,37.12,32.93H221.37c20.5,0,37.12-14.74,37.12-32.93v-76.35c-16.71,5.49-33.54,12.25-43.31,25.23Z"/></g><path class="cls-1" d="M247.93,68h12.79c13.96,0,25.28,10.04,25.28,22.42v179.82c0,7.78-3.24,15.29-9.11,21.08l-30.37,29.98"/><path class="cls-6" d="M66.18,91.25l67.15-21.01c5.94-1.48,12.04-2.23,18.17-2.23h61.37"/><rect class="cls-2" x="141.72" y="154.11" width="81.88" height="66.67" rx="5.56" ry="5.56"/><rect class="cls-2" x="32.48" y="154.11" width="81.88" height="66.67" rx="5.56" ry="5.56"/><rect x="105.6" y="177.87" width="46.48" height="15.49"/><polygon points="223.6 176.69 277.11 160.2 277.11 170.35 223.6 187.44 223.6 176.69"/><path class="cls-4" d="M99.32,263.51c4.57,7.16,11.41,12.85,19.29,16.04s16.74,3.87,25.01,1.92"/><path class="cls-7" d="M239.72,97.75l26-12.2c6.97-3.27,11.39-10.07,11.39-17.52v-23.24c0-7.74-6.54-14.01-14.6-14.01H116.07c-6.22,0-12.4,.99-18.29,2.92l-39.07,12.81"/><rect class="cls-7" x="46.62" y="46.51" width="193.11" height="62.84" rx="9.02" ry="9.02"/><path class="cls-7" d="M235.99,100.26H47.34c-.54,0-1.08,.11-1.57,.33l-33.72,15.04c-3.62,1.61-2.42,6.82,1.57,6.82H194.28c5.81,0,11.55-1.22,16.82-3.57l26.46-11.8c3.62-1.61,2.42-6.82-1.57-6.82Z"/><path class="cls-8" d="M99.32,263.51c4.57,7.16,11.41,12.85,19.29,16.04s16.74,3.87,25.01,1.92"/><circle class="cls-9" cx="69.68" cy="188.31" r="27.32"/><circle class="cls-9" cx="178.11" cy="188.31" r="25.89"/><circle cx="61.58" cy="189.82" r="11.7"/><circle cx="170.39" cy="188.31" r="11.09"/><circle class="cls-9" cx="56.02" cy="184.65" r="5.56"/><circle class="cls-9" cx="164.57" cy="183.93" r="5.27"/></svg>