<?xml version="1.0" encoding="utf-8"?>
<!-- Generator: Adobe Illustrator 27.0.1, SVG Export Plug-In . SVG Version: 6.00 Build 0)  -->
<svg version="1.1" xmlns="http://www.w3.org/2000/svg" xmlns:xlink="http://www.w3.org/1999/xlink" x="0px" y="0px"
	 viewBox="0 0 139.9 160.2" style="enable-background:new 0 0 139.9 160.2;" xml:space="preserve">
<style type="text/css">
	.st0{display:none;}
	.st1{display:inline;}
	.st2{fill:none;stroke:#000000;stroke-miterlimit:10;}
</style>
<g id="Layer_1" class="st0">
	<g id="DYi2LJ.tif" class="st1">
		
			<image style="overflow:visible;" width="250" height="383" id="Layer_0_00000150092887372569092600000000261417226492500157_" xlink:href="C2463396F78345F3.png"  transform="matrix(1 0 0 1 -57.0498 -2.5751)">
		</image>
	</g>
</g>
<g id="Layer_2">
	<g>
		<path d="M71.6,160.2c-0.5,0-1.1,0-1.6-0.1c-11.5-1.2-14.2-2.6-20.7-5.9c-2-1-4.4-2.2-7.4-3.6c-12.2-5.6-21.9-21-23.1-23
			c-7.1-1.2-13.9-13-14.2-13.5c-4.8-10.5-5.8-18.7-3-24.3C3.5,86.1,6.5,84.6,8,84c-4.3-4.3-3.5-19.2-3.4-19.8
			C11.3,24.7,34.8,9.2,53.4,3.2C61.4,0.6,70,0,70,0l0.1,0l0.1,0c2.1,0.4,4.4,0.7,6.6,1c3.9,0.5,8,1,11,2.2
			c30.7,12.5,41,34.4,44.2,50.6c3,15.3,0.5,28.6-0.2,31.8c4.8-0.4,7.7,5.1,7.8,5.4l0,0.2c2.8,25.4-16.4,36.1-19,37.4
			c-0.2,3.7-4.5,8.3-8,11.5C101.5,149.9,82.6,160.2,71.6,160.2z M70,1c-0.8,0.1-8.8,0.7-16.3,3.2C35.4,10.1,12.2,25.4,5.6,64.3
			c0,0.1-0.9,16.7,3.8,19.5l1.1,0.7l-1.2,0.3c0,0-4.4,1-6.7,5.6c-2.7,5.4-1.7,13.2,3,23.4c0,0.1,7,12,13.7,13l0.2,0l0.1,0.2
			c0.1,0.2,10.1,16.9,22.8,22.8c3.1,1.4,5.4,2.6,7.5,3.6c6.4,3.3,9.1,4.6,20.4,5.8c10.1,1,30.3-9.7,41.7-19.9c5-4.5,7.7-8.4,7.7-11
			v-0.3l0.3-0.1c0.2-0.1,21.6-10.2,18.7-36.4c-0.4-0.7-3.1-5.5-7.4-4.7l-0.8,0.2l0.2-0.8c0-0.1,3.8-14.7,0.4-32.1
			C127.8,38,117.6,16.5,87.4,4.1C84.5,3,80.5,2.5,76.6,2C74.4,1.7,72.1,1.4,70,1z"/>
	</g>
	<g>
		<path d="M46.6,105.2c-3.2,0-8.4-5.1-9.5-10.4c-0.8-3.8-0.3-13,4.1-18c2.4-2.7,5.5-3.9,9.4-3.6c3.3,0.3,5.9,1.6,7.8,3.9
			c4.7,5.6,3.7,15.3,3.6,15.7l0,0.3l-0.3,0.1C55,96.1,47,104.9,47,105l-0.1,0.2H46.6z M49.5,74.1c-3.1,0-5.6,1.1-7.5,3.3
			c-4.2,4.8-4.6,13.5-3.9,17.2c0.9,4.6,5.5,9.4,8.3,9.6c1.2-1.3,8.3-8.9,14.7-11.8c0.1-1.6,0.5-9.8-3.4-14.6
			c-1.8-2.1-4.2-3.3-7.1-3.5C50.2,74.2,49.8,74.1,49.5,74.1z"/>
	</g>
	<g>
		<path d="M94.4,105.2h-0.2L94,105c-0.1-0.1-8-9-14.8-11.9L78.9,93l0-0.3c0-0.4-1.1-10,3.6-15.7c1.9-2.3,4.6-3.6,7.8-3.9
			c3.9-0.3,7,0.9,9.4,3.6c4.5,5,4.9,14.2,4.1,18C102.8,100,97.6,105.2,94.4,105.2z M79.9,92.3c6.5,2.9,13.6,10.5,14.7,11.8
			c2.8-0.2,7.4-4.9,8.3-9.6c0.7-3.6,0.3-12.4-3.9-17.2c-2.1-2.4-5-3.5-8.6-3.2c-3,0.2-5.4,1.4-7.1,3.5
			C79.3,82.5,79.7,90.7,79.9,92.3z"/>
	</g>
	<g>
		<path d="M60.1,81c0,0-9.6-7.3-14.6,3.7s3.9,17,3.9,17s7.1-7,12.1-9C61.6,92.7,61.7,84.3,60.1,81z"/>
		<path d="M49.5,102.3l-0.3-0.2c-0.1-0.1-9.2-6.3-4.1-17.6c1.5-3.4,3.7-5.5,6.3-6.1c4.5-1.1,8.8,2.1,9,2.3l0.1,0.1l0.1,0.1
			c1.6,3.4,1.5,11.6,1.5,11.9l0,0.3l-0.3,0.1c-4.9,1.9-11.9,8.8-11.9,8.9L49.5,102.3z M53.4,79.1c-0.6,0-1.1,0.1-1.7,0.2
			c-2.4,0.6-4.3,2.5-5.7,5.6c-4.3,9.4,1.9,14.9,3.4,16.1c1.4-1.3,7.2-6.7,11.6-8.7c0-1.5-0.1-8.1-1.3-11
			C59.2,80.9,56.5,79.1,53.4,79.1z"/>
	</g>
	<g>
		<path d="M81.5,81c0,0,9.6-7.3,14.6,3.7s-3.9,17-3.9,17s-7.1-7-12.1-9C80.1,92.7,79.9,84.3,81.5,81z"/>
		<path d="M92.1,102.3l-0.3-0.3c-0.1-0.1-7.1-6.9-11.9-8.9L79.6,93l0-0.3c0-0.3-0.1-8.5,1.5-11.9l0.1-0.1l0.1-0.1
			c0.2-0.1,4.5-3.4,9-2.3c2.7,0.7,4.8,2.7,6.3,6.1c5.1,11.3-4,17.5-4.1,17.6L92.1,102.3z M80.6,92.4c4.5,1.9,10.2,7.3,11.6,8.7
			c1.5-1.2,7.7-6.7,3.4-16.1c-1.4-3.1-3.3-5-5.7-5.6c-3.7-0.9-7.4,1.6-8,2C80.6,84.2,80.5,90.8,80.6,92.4z"/>
	</g>
	<g>
		<path d="M70.1,131.2c-12.7,0-23-9-23-20s10.3-20,23-20c12.7,0,23,9,23,20S82.8,131.2,70.1,131.2z M70.1,92.2c-12.1,0-22,8.5-22,19
			s9.9,19,22,19s22-8.5,22-19S82.2,92.2,70.1,92.2z"/>
	</g>
	<g>
		<path d="M13.6,82.2c-0.1-0.6-2.5-14.3,5.2-20.2c0.5-0.4,1.1-0.9,1.8-1.4c8-6.3,24.6-19.4,47.1-17.5c24.4,2,38.8,3.7,50.5,14.9
			c4.7,4.5,7,8.7,6.9,12.6c-0.1,3.6-2.2,5.4-2.3,5.5l-0.7-0.8c0,0,1.9-1.7,2-4.8c0.1-3.6-2.2-7.6-6.6-11.8
			c-11.5-11-25.8-12.6-49.9-14.7C45.5,42.3,29,55.3,21.1,61.5c-0.6,0.5-1.2,1-1.8,1.4c-7.2,5.5-4.8,19.1-4.8,19.2L13.6,82.2z"/>
	</g>
	<g>
		<path d="M14.3,76.9l-0.5,0l0.6-7.6l0-0.1C23.1,57,41.8,50.4,70.1,49.5c23.5-0.7,51.4,13,51.7,13.1l-0.2,0.4
			c-0.3-0.1-28.1-13.9-51.4-13.1c-28.1,0.9-46.6,7.5-55.2,19.4L14.3,76.9z"/>
	</g>
	<g>
		<path d="M81.8,45.1l-0.5-0.9c5.8-3,9.7-8.9,9.7-14.6c0-9.1-9.2-16.5-20.5-16.5s-20.5,7.4-20.5,16.5c0,4.5,3.1,10.6,6.8,13.6
			l-0.6,0.8c-4-3.2-7.2-9.7-7.2-14.4c0-9.6,9.6-17.5,21.5-17.5c11.9,0,21.5,7.9,21.5,17.5C92.1,35.8,87.9,42,81.8,45.1z"/>
	</g>
	<g>
		<polygon points="58.6,41.7 52.8,36.8 62.6,16.7 70.6,24.8 77.7,16.7 87.6,35.7 81.8,41.7 76.6,26.7 70.2,33 63.6,26.7 		"/>
		<path d="M81.6,42.6l-5.2-15l-6.2,6.1l-6.4-6.1l-5,15l-6.6-5.7l10.2-21.1l8.1,8.3l7.3-8.3l10.4,20L81.6,42.6z M53.4,36.6l4.9,4.2
			l5-15l6.8,6.5l6.6-6.5l5.2,15l5-5.2l-9.4-18l-7,8l-7.9-8L53.4,36.6z"/>
	</g>
	<g>
		<path d="M126.1,86.4c-0.2,0-0.5-0.1-0.6-0.3c-0.2-0.3-0.3-0.6-0.2-0.9c0.8-1.9,1.5-7.2-10-14.1c-2.7-1.6-4.7-2.9-6.5-4.1
			c-7.9-5.2-9.3-6.2-36.3-7.8c-32-1.9-49.3,10.4-50.4,14.6l0,0.2L21.9,74c0,0-4,2.9-7.4,8.2v3.9l-5.6-1.5l0.3-1l4.4,1.2V82l0.1-0.1
			c3.2-5.1,6.8-8,7.6-8.5c1.4-3.9,17.4-17.2,51.4-15.2c27.2,1.7,28.7,2.6,36.8,8c1.8,1.2,3.8,2.5,6.4,4.1c11.7,7,11.4,12.7,10.5,15
			c2.7-0.9,4.3-1,5-0.2c0.4,0.4,0.4,1,0.3,1.3l-0.9-0.3c0,0,0-0.2,0-0.3c-0.1-0.1-0.8-0.6-4.2,0.6C126.3,86.4,126.2,86.4,126.1,86.4
			z"/>
	</g>
	<g>
		<path class="st2" d="M70.1,130.7"/>
	</g>
	<g>
		<path d="M70.1,130.7c0,0-21.5-1-22.5-19.5c0,0-13-1.5-16-8.5c0,0-13.6,18,5.7,22c0,0,2.3,10,16.3,8c0,0,5,8.4,16.5,3.2
			c0,0,10.5,5.8,16.5-3.2c0,0,15,4,16-8c0,0,18.8-2,6.4-22c0,0-9.4,10-16.4,8.5C92.6,111.2,93.6,128.7,70.1,130.7z"/>
		<path d="M77.4,138.2c-3.5,0-6.5-1.3-7.3-1.8c-10.4,4.6-15.7-1.8-16.7-3.2c-12.6,1.7-15.9-6.4-16.4-8.1c-5.3-1.2-8.6-3.5-9.9-6.9
			c-2.6-6.8,3.9-15.5,4.1-15.8l0.5-0.7l0.3,0.8c2.9,6.7,15.5,8.2,15.6,8.2l0.4,0l0,0.4c0.9,17.5,21.1,19,22,19
			c22.7-1.9,22-18.3,22-19l0-0.7l0.6,0.1c6.6,1.4,15.8-8.3,15.9-8.4l0.4-0.5l0.3,0.6c4.2,6.8,5.4,12.3,3.3,16.5
			c-2.3,4.8-8.1,6-9.7,6.3c-0.3,3-1.6,5.2-3.7,6.7c-4.3,3.1-11,1.8-12.6,1.4C84.1,137.1,80.5,138.2,77.4,138.2z M70.1,135.3l0.2,0.1
			c0,0,2.6,1.4,5.8,1.7c4.3,0.4,7.6-1.2,10-4.8l0.2-0.3l0.3,0.1c0.1,0,7.6,2,12.1-1.2c1.9-1.4,3-3.5,3.3-6.4l0-0.4l0.4,0
			c0.1,0,6.9-0.8,9.3-5.8c1.8-3.7,0.8-8.7-3-14.9c-1.9,1.9-9.6,9.1-15.8,8.3c-0.1,3.2-1.8,17.6-23,19.4l0,0l0,0
			c-0.2,0-21.6-1.2-22.9-19.6c-2.2-0.3-12.3-2-15.6-8c-1.4,2.1-5.5,8.9-3.5,14.2c1.2,3.1,4.4,5.3,9.4,6.3l0.3,0.1l0.1,0.3
			c0.1,0.4,2.4,9.5,15.7,7.6l0.3,0l0.2,0.3c0.2,0.3,5,8,15.9,3L70.1,135.3z"/>
	</g>
	<g>
		<path d="M68.7,141.2c-12.2,0-19.4-5.5-19.5-5.6l0.6-0.8c0.2,0.1,15.7,12.1,40.3-0.1l0.4,0.9C82.2,139.8,74.8,141.2,68.7,141.2z"/>
	</g>
	<g>
		<path d="M59.6,74.7c0,0-12.5-13.1-24.8-1c0,0-1-9.8,1.9-10.4c2.9-0.6,4.9-2.3,12.9-3.5C49.6,59.8,58.6,64.7,59.6,74.7z"/>
		<path d="M60.2,76.1l-1-1c-0.1-0.1-5.7-5.9-12.9-6c-4,0-7.7,1.6-11.1,4.9l-0.7,0.7l-0.1-1c-0.2-1.7-0.9-10.2,2.3-10.9
			c0.9-0.2,1.8-0.5,2.8-0.9c2-0.8,4.7-1.8,10.1-2.6l0.2,0l0.1,0.1c0.1,0,9.2,5.1,10.3,15.2L60.2,76.1z M46.1,68c0.1,0,0.1,0,0.2,0
			c5.8,0.1,10.6,3.6,12.6,5.3c-1.5-8.1-8.3-12.4-9.4-13c-5.1,0.7-7.7,1.7-9.7,2.5c-1,0.4-1.9,0.7-2.9,0.9c-1.5,0.3-1.8,5-1.6,8.8
			C38.6,69.6,42.2,68,46.1,68z"/>
	</g>
	<g>
		<path d="M79.7,74.7c0,0,12.5-13.1,24.8-1c0,0,1-9.8-1.9-10.4c-2.9-0.6-4.9-2.3-12.9-3.5C89.7,59.8,80.7,64.7,79.7,74.7z"/>
		<path d="M79,76.1l0.1-1.4c1-10.1,10.2-15.2,10.3-15.2l0.1-0.1l0.2,0c5.4,0.8,8.1,1.8,10.1,2.6c1,0.4,1.9,0.7,2.8,0.9
			c3.2,0.7,2.5,9.2,2.3,10.9l-0.1,1l-0.7-0.7c-3.4-3.3-7.2-5-11.1-4.9C85.7,69.2,80.1,75,80,75L79,76.1z M89.8,60.3
			c-1.1,0.6-7.9,5-9.4,13c2-1.8,6.8-5.2,12.6-5.3c4,0,7.7,1.5,11.1,4.5c0.3-3.8-0.1-8.5-1.6-8.8c-1-0.2-1.9-0.5-2.9-0.9
			C97.4,62.1,94.9,61.1,89.8,60.3z"/>
	</g>
	<g>
		<path d="M23.5,71c0,0-1.1,21.7,0,23.2c1.1,1.5,1.1-0.5,1.1,3.5s-3.2,5-3.2,5l-1.8,10c0,0-2,0-4-3s0-20.5,0-20.5l-1.5-3.6v-3.4
			L23.5,71z"/>
		<path d="M20,113.2h-0.4c-0.1,0-2.3,0-4.4-3.2c-2-3-0.4-18.4-0.1-20.7l-1.5-3.7V82L24,69.6L24,71.1c-0.5,10.3-0.7,21.8-0.1,22.8
			c0.3,0.4,0.5,0.4,0.6,0.5c0.6,0.3,0.6,0.4,0.6,3.3c0,3.6-2.4,5-3.2,5.4L20,113.2z M14.6,85.4l1.5,3.6l0,0.1
			c-0.6,4.8-1.6,17.9-0.1,20.2c1.3,1.9,2.6,2.5,3.2,2.7l1.8-9.8l0.3-0.1c0.1,0,2.8-1,2.8-4.5c0-1.3,0-2.1,0-2.4
			c-0.3-0.1-0.6-0.3-1-0.8c-1-1.4-0.5-15.7-0.2-22l-8.3,9.8V85.4z"/>
	</g>
	<g>
		<path d="M18.6,127.3c-0.5-3.5,0.5-14.2,0.5-14.6l1,0.1c0,0.1-1,11-0.5,14.4L18.6,127.3z"/>
	</g>
	<g>
		<path d="M124.5,78.5c-0.6-1.2-1.4-2.2-2.5-3l-4.5-3.5c-0.3-0.3-0.7-0.1-0.7,0.3c0.2,4.6,0.9,20.7-0.1,22c-1.1,1.5-1.1-0.5-1.1,3.5
			s3.2,5,3.2,5l1.8,10c0,0,2,0,4-3s0-20.5,0-20.5l1.5-3.6v-2"/>
		<path d="M120.6,113.2h-0.4l-1.9-10.1c-0.8-0.4-3.2-1.8-3.2-5.4c0-2.9,0-3,0.6-3.3c0.1-0.1,0.3-0.1,0.6-0.5c0.5-0.9,0.5-9.6,0-21.7
			c0-0.4,0.2-0.7,0.6-0.9c0.4-0.1,0.8,0,1,0.3l4.4,3.5c1.1,0.8,2.1,1.9,2.7,3.2l-0.9,0.4c-0.5-1.1-1.4-2.1-2.4-2.8l-4.4-3.5
			c0.4,9.4,0.8,20.9-0.2,22.1c-0.4,0.5-0.7,0.7-1,0.8c0,0.3,0,1.1,0,2.4c0,3.6,2.7,4.5,2.8,4.5l0.3,0.1l0.1,0.3l1.7,9.5
			c0.6-0.2,1.9-0.8,3.2-2.7c1.6-2.3,0.5-15.4-0.1-20.2l0-0.1l1.5-3.6v-1.9h1l0,2.2l-1.5,3.5c0.3,2.3,1.9,17.7-0.1,20.7
			C122.9,113.1,120.7,113.2,120.6,113.2z"/>
	</g>
	<g>
		<path d="M121.1,127.8l-1-0.1c0.5-3.4,0-14.8,0-14.9l1,0C121.1,113.1,121.6,124.2,121.1,127.8z"/>
	</g>
	<g>
		<path d="M70.4,146.6c-7.8,0-14.8-2.6-14.9-2.7l0.2-0.5c0.2,0.1,15.7,5.9,26.1,0l0.2,0.4C78.5,145.9,74.3,146.6,70.4,146.6z"/>
	</g>
</g>
</svg>
