<?xml version="1.0" encoding="UTF-8"?><svg id="Layer_1" xmlns="http://www.w3.org/2000/svg" width="403" height="286" viewBox="0 0 403 286"><defs><style>.cls-1{fill:#b9b9b9;}.cls-2{fill:#1d1d1b;}.cls-3{stroke-linecap:round;}.cls-3,.cls-4{stroke-width:2px;}.cls-3,.cls-4,.cls-5{fill:none;stroke:#1d1d1b;stroke-miterlimit:10;}</style></defs><path class="cls-4" d="M114.39,78.03c-15,4.12-26.5,18.38-27.15,33.68-.65,15.29,9.6,30.45,24.2,35.78,7.07,2.58,14.73,2.99,22.15,4.3s15.08,3.76,20.03,9.34c4.76,5.37,6.28,12.73,7.61,19.73,2.82,14.77,5.65,29.53,8.47,44.3,.9,4.72,1.84,9.53,4.12,13.78s6.15,7.95,10.96,8.85c5.17,.97,10.55-1.5,14.09-5.32,3.54-3.82,5.49-8.81,6.78-13.82,3.39-13.14,2.76-26.95,5.05-40.31,2.29-13.36,8.52-27.3,20.86-33.35,11.72-5.75,26.23-3.09,38.17-8.4,12.19-5.42,19.61-19,18.94-32.14-.67-13.13-8.69-25.35-19.78-32.71-9.86-6.54-21.87-9.47-33.8-9.46-2.18,0-4.18-1.35-4.77-3.42-.78-2.69-2.7-5.11-5.05-6.76-3.36-2.35-7.47-3.38-11.52-4.19-14.82-2.94-30.15-3.37-45.13-1.34-5.87,.8-15.18,1.15-19.79,5.23-3.95,3.5-4.91,7.94-10.08,10.63-7.51,3.9-16.34,3.39-24.36,5.59Z"/><path class="cls-3" d="M87.95,120.02c-5.3,23.3-4.88,48.88,1.37,71.93,1.61,5.92,4.58,12.67,10.61,13.82,4.92,.94,9.78-2.58,12.22-6.96s3.04-9.5,3.99-14.42c2.32-12.05,7.45-33.27,17.46-32.62"/><path class="cls-3" d="M244.08,151.42c2.75,.51,4.07,1.43,4.9,3.08s1.15,3.5,1.49,5.32c2.15,11.73,5.29,23.27,9.4,34.46,.99,2.69,2.05,5.39,3.74,7.7s4.11,4.22,6.93,4.72c4.27,.77,8.58-1.86,11.02-5.44,2.44-3.58,3.39-7.95,4.15-12.22,3.73-20.9,4.29-43.09,1.85-64.17"/><circle class="cls-5" cx="226.58" cy="123.15" r="8.5"/><circle class="cls-5" cx="241.53" cy="138.28" r="8.5"/><circle class="cls-1" cx="187.21" cy="124.31" r="7.94"/><circle class="cls-2" cx="244.51" cy="110.51" r="5.86"/><circle class="cls-2" cx="257.93" cy="122.54" r="5.86"/><circle class="cls-2" cx="270.61" cy="110.51" r="5.86"/><circle class="cls-2" cx="257.93" cy="98.18" r="5.86"/><circle class="cls-5" cx="120.86" cy="116.37" r="21.98"/><path class="cls-2" d="M137.76,112.13v9.38c0,.68-.55,1.22-1.22,1.22h-8.54c-.68,0-1.22,.55-1.22,1.22v8.4c0,.68-.55,1.22-1.22,1.22h-9.38c-.68,0-1.22-.55-1.22-1.22v-8.4c0-.68-.55-1.22-1.22-1.22h-8.25c-.68,0-1.22-.55-1.22-1.22v-9.38c0-.68,.55-1.22,1.22-1.22h8.25c.68,0,1.22-.55,1.22-1.22v-8.4c0-.68,.55-1.22,1.22-1.22h9.38c.68,0,1.22,.55,1.22,1.22v8.4c0,.68,.55,1.22,1.22,1.22h8.54c.68,0,1.22,.55,1.22,1.22Z"/><circle class="cls-4" cx="187.21" cy="165.83" r="10.34"/><circle class="cls-2" cx="187.21" cy="165.83" r="21.05"/><line class="cls-3" x1="148.83" y1="61.81" x2="151.15" y2="103.28"/><line class="cls-3" x1="225.27" y1="62.11" x2="220.13" y2="103.41"/><line class="cls-3" x1="141.68" y1="70.38" x2="151.15" y2="103.28"/><line class="cls-3" x1="233.03" y1="71.85" x2="220.13" y2="103.41"/><path class="cls-4" d="M103.33,83.29v-4.93s4.83-7.5,41.15-11.25"/><path class="cls-4" d="M272.17,84.13l1.01-4.57s-5.11-8.75-43.54-12.46"/><rect class="cls-1" x="165.22" y="73.77" width="40.83" height="10.36" rx="1.78" ry="1.78"/><circle class="cls-5" cx="257.93" cy="110.51" r="14"/><g><path class="cls-4" d="M356.04,30.19H26.3c-8.43,0-15.27,6.84-15.27,15.27V255.66c0,8.43,6.84,15.27,15.27,15.27H356.04c8.43,0,15.27-6.84,15.27-15.27V45.47c0-8.43-6.84-15.27-15.27-15.27h-23.81"/><path class="cls-4" d="M26.3,30.19l59.31-14.47c5.83-1.42,11.81-2.14,17.81-2.14H379.45c6.63,0,12,5.37,12,12V228.45c0,4.4-1.5,8.68-4.24,12.12l-21.42,26.85"/></g></svg>