<?xml version="1.0" encoding="UTF-8"?><svg id="Layer_1" xmlns="http://www.w3.org/2000/svg" width="228" height="168" viewBox="0 0 228 168"><defs><style>.cls-1{fill:#fff;}.cls-2{fill:#1d1d1b;}.cls-3{fill:none;stroke:#1d1d1b;stroke-miterlimit:10;stroke-width:2px;}</style></defs><path class="cls-3" d="M197.42,22.84H17.1c-4.61,0-8.35,3.74-8.35,8.35v114.95c0,4.61,3.74,8.35,8.35,8.35H197.42c4.61,0,8.35-3.74,8.35-8.35V31.19c0-4.61-3.74-8.35-8.35-8.35h-13.02"/><path class="cls-3" d="M17.1,22.84l32.44-7.91c3.19-.78,6.46-1.17,9.74-1.17H210.23c3.62,0,6.56,2.94,6.56,6.56v110.94c0,2.41-.82,4.74-2.32,6.63l-11.71,14.68"/><path class="cls-2" d="M171.11,137.77c-42.64,6.38-85.05,6.38-127.69,0-5.61-1.2-10.6-5.44-12.75-10.75-8.19-26.1-8.19-50.6,0-76.71,2.15-5.31,7.14-9.55,12.75-10.75,42.64-6.38,85.05-6.38,127.69,0,5.61,1.2,10.6,5.44,12.75,10.75,8.19,26.11,8.19,50.61,0,76.71-2.15,5.31-7.14,9.55-12.75,10.75Z"/><g><path class="cls-1" d="M79.91,77.2h-2.02v2.02h-8.1v4.05h-4.05v-14.17h12.15v2.02h2.02v6.07Zm-4.05,0v-6.07h-6.07v6.07h6.07Z"/><path class="cls-1" d="M96.67,83.27h-6.07v-2.02h-2.02v-2.02h-2.02v4.05h-4.05v-14.17h12.15v2.02h2.02v6.07h-4.05v2.02h2.02v2.02h2.02v2.02Zm-4.05-8.1v-4.05h-6.07v6.07h4.05v-2.02h2.02Z"/><path class="cls-1" d="M113.43,83.27h-14.17v-14.17h14.17v2.02h-10.12v4.05h8.1v2.02h-8.1v4.05h10.12v2.02Z"/><path class="cls-1" d="M130.19,81.25h-2.02v2.02h-10.12v-2.02h-2.02v-2.02h4.05v2.02h6.07v-4.05h-8.1v-2.02h-2.02v-4.05h2.02v-2.02h8.1v2.02h2.02v2.02h-4.05v-2.02h-4.05v4.05h8.1v2.02h2.02v4.05Z"/><path class="cls-1" d="M146.96,81.25h-2.02v2.02h-10.12v-2.02h-2.02v-2.02h4.05v2.02h6.07v-4.05h-8.1v-2.02h-2.02v-4.05h2.02v-2.02h8.1v2.02h2.02v2.02h-4.05v-2.02h-4.05v4.05h8.1v2.02h2.02v4.05Z"/><path class="cls-1" d="M79.91,105.54h-2.02v2.02h-10.12v-2.02h-2.02v-2.02h4.05v2.02h6.07v-4.05h-8.1v-2.02h-2.02v-4.05h2.02v-2.02h8.1v2.02h2.02v2.02h-4.05v-2.02h-4.05v4.05h8.1v2.02h2.02v4.05Z"/><path class="cls-1" d="M93.63,95.42h-4.05v12.15h-4.05v-12.15h-4.05v-2.02h12.15v2.02Z"/><path class="cls-1" d="M110.4,107.57h-4.05v-4.05h-6.07v4.05h-4.05v-10.12h2.02v-2.02h2.02v-2.02h6.07v2.02h2.02v2.02h2.02v10.12Zm-4.05-6.07v-4.05h-2.02v-2.02h-2.02v2.02h-2.02v4.05h6.07Z"/><path class="cls-1" d="M127.16,107.57h-6.07v-2.02h-2.02v-2.02h-2.02v4.05h-4.05v-14.17h12.15v2.02h2.02v6.07h-4.05v2.02h2.02v2.02h2.02v2.02Zm-4.05-8.1v-4.05h-6.07v6.07h4.05v-2.02h2.02Z"/><path class="cls-1" d="M142.91,95.42h-4.05v12.15h-4.05v-12.15h-4.05v-2.02h12.15v2.02Z"/></g></svg>