<?xml version="1.0" encoding="UTF-8"?><svg id="Layer_1" xmlns="http://www.w3.org/2000/svg" width="410" height="286" viewBox="0 0 410 286"><defs><style>.cls-1{fill:#fff;}.cls-2{fill:#b9b9b9;}.cls-3{fill:#1d1d1b;}.cls-4{stroke-width:2px;}.cls-4,.cls-5{fill:none;stroke:#1d1d1b;stroke-miterlimit:10;}</style></defs><path class="cls-4" d="M259.73,208.3c7.65,8.25,14.6,19.44,25.82,20.24,9.33,.66,17.69-6.98,20.8-15.8,3.11-8.83,2.1-18.53,.61-27.76-3.4-21-9.15-41.63-17.1-61.37-5.92-14.71-14.19-30.03-28.73-36.33-11.4-4.94-25.48-3.01-35.13,4.83-4.06,3.3-7.31,7.49-11.27,10.9-6.77,5.84-15.6,9.26-24.54,9.51-7.63,.21-15.54-2-21.12-7.2-4.1-3.82-6.72-8.98-10.62-13.01-6.89-7.12-17.49-10.05-27.31-8.7s-18.84,6.64-25.81,13.68c-12.5,12.63-18.53,30.2-22.8,47.44-3.55,14.34-6.16,28.91-7.81,43.59-1.11,9.87-1.69,20.31,2.51,29.31s14.74,15.8,24.12,12.54c7.34-2.55,11.56-9.98,16.4-16.07,8.05-10.15,19.39-17.65,31.87-21.1,11.22-3.1,22.97-2.92,34.48-2.1,9.77,.7,19.51,.81,29.21,.54,17.76-.51,34.27,3.78,46.42,16.87Z"/><path class="cls-4" d="M110.44,92.74v-3.28c0-1.59,.83-3.08,2.19-3.9,7.35-4.48,31.49-17.54,45.17-5.38,.84,.74,1.9,1.19,3.02,1.2l58.37,.55c1.28,.01,2.52-.4,3.54-1.17,4.13-3.11,17.64-10.28,42.68,3.54,.95,.53,1.66,1.41,1.95,2.46l1.37,5"/><circle class="cls-2" cx="191.22" cy="95.64" r="11.13"/><circle class="cls-3" cx="131.92" cy="121.43" r="13.22"/><circle class="cls-3" cx="221.5" cy="157.14" r="13.22"/><circle class="cls-5" cx="130.56" cy="121.43" r="20.12"/><circle class="cls-5" cx="221.5" cy="159.31" r="20.12"/><path class="cls-3" d="M177.12,154.94v9.02c0,.65-.53,1.17-1.17,1.17h-8.21c-.65,0-1.17,.53-1.17,1.17v8.07c0,.65-.53,1.17-1.17,1.17h-9.02c-.65,0-1.17-.53-1.17-1.17v-8.07c0-.65-.53-1.17-1.17-1.17h-7.93c-.65,0-1.17-.53-1.17-1.17v-9.02c0-.65,.53-1.17,1.17-1.17h7.93c.65,0,1.17-.53,1.17-1.17v-8.07c0-.65,.53-1.17,1.17-1.17h9.02c.65,0,1.17,.53,1.17,1.17v8.07c0,.65,.53,1.17,1.17,1.17h8.21c.65,0,1.17,.53,1.17,1.17Z"/><circle class="cls-5" cx="161.02" cy="159.44" r="19.07"/><line class="cls-5" x1="251" y1="111.95" x2="251" y2="106.78"/><circle class="cls-3" cx="234.64" cy="121.92" r="7.46"/><circle class="cls-3" cx="251" cy="106.22" r="7.46"/><circle class="cls-3" cx="251" cy="137.77" r="7.46"/><circle class="cls-3" cx="268.72" cy="122.03" r="7.46"/><circle class="cls-2" cx="175.09" cy="121.1" r="4.3"/><circle class="cls-2" cx="207.45" cy="121.1" r="4.3"/><path class="cls-1" d="M252.99,140.75l-.38-1.01h-3.27l-.38,1.03c-.15,.4-.28,.67-.38,.81-.11,.14-.28,.21-.52,.21-.2,0-.39-.08-.54-.23-.16-.15-.24-.32-.24-.51,0-.11,.02-.22,.06-.34,.04-.12,.1-.28,.18-.49l2.06-5.23c.06-.15,.13-.33,.21-.54,.08-.21,.17-.39,.26-.52,.09-.14,.22-.25,.37-.34s.34-.13,.56-.13,.42,.04,.57,.13c.15,.09,.27,.2,.37,.33,.09,.14,.17,.28,.24,.44,.06,.16,.15,.36,.24,.62l2.1,5.19c.17,.4,.25,.68,.25,.86s-.08,.36-.23,.51c-.16,.16-.34,.23-.56,.23-.13,0-.24-.02-.33-.07-.09-.05-.17-.11-.23-.19-.06-.08-.13-.2-.2-.36-.07-.16-.13-.31-.18-.43Zm-3.23-2.23h2.4l-1.21-3.32-1.19,3.32Z"/><path class="cls-1" d="M268.86,125.33h-2.21c-.32,0-.55-.07-.68-.21-.14-.14-.2-.37-.2-.68v-5.44c0-.32,.07-.55,.21-.69,.14-.14,.37-.21,.68-.21h2.34c.35,0,.64,.02,.9,.06,.25,.04,.48,.12,.68,.25,.17,.1,.32,.23,.45,.39,.13,.16,.23,.33,.3,.52,.07,.19,.1,.39,.1,.6,0,.72-.36,1.25-1.09,1.59,.95,.3,1.43,.89,1.43,1.77,0,.4-.1,.77-.31,1.09-.21,.32-.49,.56-.84,.72-.22,.09-.47,.16-.76,.2-.29,.04-.62,.06-1,.06Zm-1.63-6.14v1.87h1.34c.37,0,.65-.03,.85-.1,.2-.07,.35-.2,.46-.4,.08-.14,.12-.29,.12-.46,0-.37-.13-.61-.39-.73-.26-.12-.66-.18-1.19-.18h-1.19Zm1.53,2.92h-1.53v2.11h1.58c.99,0,1.49-.36,1.49-1.07,0-.37-.13-.63-.38-.79s-.64-.25-1.15-.25Z"/><path class="cls-1" d="M231.58,124.44l1.97-2.88-1.66-2.56c-.16-.25-.27-.46-.35-.64s-.12-.35-.12-.51,.07-.32,.23-.45c.15-.13,.33-.2,.55-.2,.25,0,.44,.07,.58,.22,.14,.15,.33,.42,.57,.81l1.32,2.14,1.41-2.14c.12-.18,.22-.33,.3-.46,.08-.13,.16-.23,.24-.32s.16-.15,.26-.19,.2-.06,.33-.06c.22,0,.41,.07,.55,.2,.14,.13,.21,.29,.21,.48,0,.27-.15,.63-.46,1.09l-1.74,2.6,1.87,2.88c.17,.25,.29,.46,.37,.63,.08,.17,.11,.32,.11,.47,0,.14-.03,.27-.1,.38-.07,.12-.16,.21-.29,.28-.12,.07-.26,.1-.42,.1-.17,0-.31-.04-.43-.11-.12-.07-.21-.16-.28-.26s-.21-.31-.4-.61l-1.55-2.44-1.65,2.51c-.13,.2-.22,.34-.27,.42s-.12,.16-.2,.23-.17,.14-.27,.18c-.1,.04-.23,.07-.37,.07-.22,0-.4-.07-.54-.2-.14-.13-.21-.32-.21-.58,0-.3,.15-.66,.44-1.09Z"/><path class="cls-1" d="M250.13,109.35v-2.64l-2.03-3.15c-.18-.28-.3-.5-.38-.66s-.11-.3-.11-.41c0-.19,.07-.36,.22-.5,.15-.14,.33-.21,.55-.21,.23,0,.41,.07,.52,.2s.3,.39,.54,.78l1.55,2.52,1.57-2.52c.09-.16,.17-.29,.24-.39s.14-.21,.21-.3c.08-.09,.16-.16,.26-.21,.09-.05,.21-.07,.35-.07,.21,0,.39,.07,.53,.21,.14,.14,.21,.3,.21,.48,0,.15-.04,.3-.11,.44-.07,.15-.2,.35-.37,.61l-2.08,3.19v2.64c0,.34-.08,.6-.24,.77-.16,.17-.36,.25-.61,.25s-.45-.08-.61-.25c-.16-.17-.23-.43-.23-.77Z"/><g><path class="cls-4" d="M358.94,32.26H29.2c-8.43,0-15.27,6.84-15.27,15.27v210.2c0,8.43,6.84,15.27,15.27,15.27H358.94c8.43,0,15.27-6.84,15.27-15.27V47.53c0-8.43-6.84-15.27-15.27-15.27h-23.81"/><path class="cls-4" d="M29.2,32.26l59.31-14.47c5.83-1.42,11.81-2.14,17.81-2.14H382.36c6.63,0,12,5.37,12,12V230.51c0,4.4-1.5,8.68-4.24,12.12l-21.42,26.85"/></g></svg>