<?xml version="1.0" encoding="UTF-8"?><svg id="import" xmlns="http://www.w3.org/2000/svg" width="250" height="250" viewBox="0 0 250 250"><defs><style>.cls-1{fill:#1d1d1b;}</style></defs><g><polygon class="cls-1" points="54.78 190.11 43.13 200.9 9.51 200.9 9.51 190.11 54.78 190.11"/><path class="cls-1" d="M43.13,201.41H9.51c-.28,0-.5-.22-.5-.5v-10.8c0-.28,.22-.5,.5-.5H54.78c.21,0,.39,.13,.47,.32s.03,.41-.13,.55l-11.65,10.8c-.09,.09-.21,.13-.34,.13Zm-33.12-1H42.93l10.57-9.8H10.01v9.8Z"/></g><g><polygon class="cls-1" points="206.87 49.1 194.53 60.54 112.46 60.54 112.46 49.1 206.87 49.1"/><path class="cls-1" d="M194.53,61.04H112.46c-.28,0-.5-.22-.5-.5v-11.44c0-.28,.22-.5,.5-.5h94.41c.21,0,.39,.13,.47,.32s.03,.41-.13,.55l-12.34,11.44c-.09,.09-.21,.13-.34,.13Zm-81.57-1h81.37l11.26-10.44H112.96v10.44Z"/></g><g><polygon class="cls-1" points="105.4 143.18 102.58 145.79 93.18 154.5 9.51 154.5 9.51 143.18 105.4 143.18"/><path class="cls-1" d="M93.18,155H9.51c-.28,0-.5-.22-.5-.5v-11.33c0-.28,.22-.5,.5-.5H105.4c.21,0,.39,.13,.47,.32s.02,.41-.13,.55l-12.22,11.33c-.09,.09-.21,.13-.34,.13Zm-83.17-1H92.98l11.14-10.33H10.01v10.33Z"/></g><g><polygon class="cls-1" points="80.48 166.27 67.71 178.11 9.51 178.11 9.51 166.27 80.48 166.27"/><path class="cls-1" d="M67.71,178.62H9.51c-.28,0-.5-.22-.5-.5v-11.84c0-.28,.22-.5,.5-.5H80.48c.21,0,.39,.13,.47,.32s.03,.41-.13,.55l-12.77,11.84c-.09,.09-.21,.13-.34,.13Zm-57.7-1h57.5l11.69-10.84H10.01v10.84Z"/></g><path class="cls-1" d="M54.78,190.61H9.51c-.28,0-.5-.22-.5-.5v-11.99c0-.28,.22-.5,.5-.5h58.2c.21,0,.39,.13,.47,.32s.03,.41-.13,.55l-12.93,11.99c-.09,.09-.21,.13-.34,.13Zm-44.77-1H54.58l11.85-10.99H10.01v10.99Z"/><path class="cls-1" d="M80.48,166.78H9.51c-.28,0-.5-.22-.5-.5v-11.77c0-.28,.22-.5,.5-.5H93.17c.21,0,.39,.13,.47,.32s.03,.41-.13,.55l-12.69,11.77c-.09,.09-.21,.13-.34,.13Zm-70.47-1H80.28l11.61-10.77H10.01v10.77Z"/><path class="cls-1" d="M105.4,143.67H9.51c-.28,0-.5-.22-.5-.5V49.09c0-.28,.22-.5,.5-.5H112.46c.28,0,.5,.22,.5,.5v10.94h81.57c.21,0,.39,.13,.47,.32s.03,.41-.13,.55l-12.55,11.64c-.09,.09-.21,.13-.34,.13H112.96v10.63h56.48c.21,0,.39,.13,.47,.32s.02,.41-.13,.55l-12.82,11.88c-.09,.08-.21,.13-.34,.13h-43.66v10.8h30.93c.21,0,.39,.13,.47,.32s.03,.41-.13,.55l-12.52,11.61c-.09,.09-.21,.13-.34,.13h-18.41v10.94h5.53c.21,0,.39,.13,.47,.32s.03,.41-.13,.55l-13.09,12.14c-.09,.09-.21,.13-.34,.13Zm-95.39-1H105.2l12.01-11.14h-4.76c-.28,0-.5-.22-.5-.5v-11.94c0-.28,.22-.5,.5-.5h18.71l11.44-10.61h-30.16c-.28,0-.5-.22-.5-.5v-11.8c0-.28,.22-.5,.5-.5h43.96l11.74-10.88h-55.7c-.28,0-.5-.22-.5-.5v-11.63c0-.28,.22-.5,.5-.5h69.32l11.47-10.64H112.46c-.28,0-.5-.22-.5-.5v-10.94H10.01v93.08Z"/><path class="cls-1" d="M240.49,201.41H43.13c-.21,0-.39-.13-.47-.32s-.03-.41,.13-.55l50.04-46.4s.04-.04,.06-.05L206.53,48.73c.09-.09,.21-.13,.34-.13h33.62c.28,0,.5,.22,.5,.5V200.91c0,.28-.22,.5-.5,.5Zm-196.09-1H239.99V49.59h-32.92l-113.55,105.28s-.04,.04-.06,.05l-49.05,45.48Z"/><g><path class="cls-1" d="M190.05,125c0,25.51-20.69,46.19-46.2,46.19-18.04,0-33.67-10.34-41.27-25.41l2.82-2.61,13.09-12.14,12.88-11.94,12.52-11.61,12.73-11.8,11.07-10.26c13.4,8.08,22.36,22.78,22.36,39.58Z"/><path class="cls-1" d="M143.85,171.7c-17.74,0-33.73-9.84-41.72-25.68-.1-.2-.06-.44,.11-.59l65.11-60.36c.16-.15,.41-.18,.6-.06,14.15,8.53,22.6,23.49,22.6,40.01,0,25.75-20.95,46.69-46.7,46.69Zm-40.65-25.8c7.87,15.31,23.42,24.8,40.65,24.8,25.2,0,45.7-20.5,45.7-45.69,0-16.04-8.14-30.57-21.8-38.96l-64.56,59.85Z"/></g><g><polygon class="cls-1" points="131.37 119.1 118.49 131.04 112.46 131.04 112.46 119.1 131.37 119.1"/><path class="cls-1" d="M118.49,131.54h-6.03c-.28,0-.5-.22-.5-.5v-11.94c0-.28,.22-.5,.5-.5h18.91c.21,0,.39,.13,.47,.32s.03,.41-.13,.55l-12.88,11.94c-.09,.09-.21,.13-.34,.13Zm-5.53-1h5.33l11.8-10.94h-17.14v10.94Z"/></g><path class="cls-1" d="M112.46,131.54H9.51c-.28,0-.5-.22-.5-.5s.22-.5,.5-.5H112.46c.28,0,.5,.22,.5,.5s-.22,.5-.5,.5Z"/><g><polygon class="cls-1" points="181.98 72.18 169.44 83.8 112.46 83.8 112.46 72.18 181.98 72.18"/><path class="cls-1" d="M169.44,84.3h-56.98c-.28,0-.5-.22-.5-.5v-11.63c0-.28,.22-.5,.5-.5h69.52c.21,0,.39,.13,.47,.32s.03,.41-.13,.55l-12.54,11.63c-.09,.09-.21,.13-.34,.13Zm-56.48-1h56.28l11.46-10.63H112.96v10.63Z"/></g><g><polygon class="cls-1" points="156.62 95.68 143.89 107.49 112.46 107.49 112.46 95.68 156.62 95.68"/><path class="cls-1" d="M143.89,107.99h-31.43c-.28,0-.5-.22-.5-.5v-11.8c0-.28,.22-.5,.5-.5h44.16c.21,0,.39,.13,.47,.32s.03,.41-.13,.55l-12.73,11.8c-.09,.09-.21,.13-.34,.13Zm-30.93-1h30.73l11.65-10.8h-42.39v10.8Z"/></g><path class="cls-1" d="M112.46,96.18c-.28,0-.5-.22-.5-.5v-11.88c0-.28,.22-.5,.5-.5s.5,.22,.5,.5v11.88c0,.28-.22,.5-.5,.5Z"/><path class="cls-1" d="M112.46,119.59c-.28,0-.5-.22-.5-.5v-11.61c0-.28,.22-.5,.5-.5s.5,.22,.5,.5v11.61c0,.28-.22,.5-.5,.5Z"/><path class="cls-1" d="M112.46,72.67c-.28,0-.5-.22-.5-.5v-11.64c0-.28,.22-.5,.5-.5s.5,.22,.5,.5v11.64c0,.28-.22,.5-.5,.5Z"/><path class="cls-1" d="M144.64,107.99h-.75c-.28,0-.5-.22-.5-.5s.22-.5,.5-.5h.75c.28,0,.5,.22,.5,.5s-.22,.5-.5,.5Z"/><path class="cls-1" d="M157.82,96.18h-1.2c-.28,0-.5-.22-.5-.5s.22-.5,.5-.5h1.2c.28,0,.5,.22,.5,.5s-.22,.5-.5,.5Z"/><g><polygon class="cls-1" points="18.09 59.21 15.57 60.54 16.05 57.73 14.01 55.74 16.83 55.33 18.09 52.78 19.35 55.33 22.17 55.74 20.13 57.73 20.61 60.54 18.09 59.21"/><path class="cls-1" d="M20.61,61.04c-.08,0-.16-.02-.23-.06l-2.29-1.2-2.29,1.2c-.17,.09-.37,.07-.53-.04-.15-.11-.23-.3-.2-.49l.44-2.55-1.85-1.8c-.14-.13-.19-.33-.13-.51,.06-.18,.22-.31,.4-.34l2.56-.37,1.14-2.32c.08-.17,.26-.28,.45-.28h0c.19,0,.36,.11,.45,.28l1.14,2.32,2.56,.37c.19,.03,.34,.16,.4,.34,.06,.18,0,.38-.13,.51l-1.85,1.8,.44,2.55c.03,.19-.04,.38-.2,.49-.09,.06-.19,.1-.29,.1Zm-5.53-4.95l1.31,1.28c.12,.12,.17,.28,.14,.44l-.31,1.81,1.62-.85c.14-.08,.32-.08,.46,0l1.62,.85-.31-1.81c-.03-.16,.03-.33,.14-.44l1.31-1.28-1.82-.26c-.16-.02-.3-.13-.38-.27l-.81-1.65-.81,1.65c-.07,.15-.21,.25-.38,.27l-1.82,.26Z"/></g><g><polygon class="cls-1" points="35.49 59.21 32.97 60.54 33.45 57.73 31.41 55.74 34.23 55.33 35.49 52.78 36.75 55.33 39.57 55.74 37.53 57.73 38.01 60.54 35.49 59.21"/><path class="cls-1" d="M32.97,61.04c-.1,0-.21-.03-.29-.1-.15-.11-.23-.3-.2-.49l.44-2.55-1.85-1.8c-.14-.13-.19-.33-.13-.51,.06-.18,.22-.31,.4-.34l2.56-.37,1.14-2.32c.17-.34,.73-.34,.9,0l1.14,2.32,2.56,.37c.19,.03,.34,.16,.4,.34,.06,.18,0,.38-.13,.51l-1.85,1.8,.44,2.55c.03,.19-.04,.38-.2,.49-.15,.11-.36,.13-.53,.04l-2.29-1.2-2.29,1.2c-.07,.04-.15,.06-.23,.06Zm2.52-2.33c.08,0,.16,.02,.23,.06l1.62,.85-.31-1.81c-.03-.16,.03-.33,.14-.44l1.31-1.28-1.82-.26c-.16-.02-.3-.13-.38-.27l-.81-1.65-.81,1.65c-.07,.15-.21,.25-.38,.27l-1.82,.26,1.31,1.28c.12,.12,.17,.28,.14,.44l-.31,1.81,1.62-.85c.07-.04,.15-.06,.23-.06Z"/></g><g><polygon class="cls-1" points="52.2 59.21 49.68 60.54 50.16 57.73 48.12 55.74 50.94 55.33 52.2 52.78 53.46 55.33 56.27 55.74 54.24 57.73 54.72 60.54 52.2 59.21"/><path class="cls-1" d="M49.67,61.04c-.1,0-.21-.03-.29-.1-.15-.11-.23-.3-.2-.49l.44-2.55-1.85-1.8c-.14-.13-.19-.33-.13-.51,.06-.18,.22-.31,.4-.34l2.56-.37,1.14-2.32c.17-.34,.73-.34,.9,0l1.14,2.32,2.56,.37c.19,.03,.34,.16,.4,.34,.06,.18,0,.38-.13,.51l-1.85,1.8,.44,2.55c.03,.19-.04,.38-.2,.49-.15,.11-.36,.13-.53,.04l-2.29-1.2-2.29,1.2c-.07,.04-.15,.06-.23,.06Zm2.52-2.33c.08,0,.16,.02,.23,.06l1.62,.85-.31-1.81c-.03-.16,.03-.33,.14-.44l1.31-1.28-1.82-.26c-.16-.02-.3-.13-.38-.27l-.81-1.65-.81,1.65c-.07,.15-.21,.25-.38,.27l-1.82,.26,1.31,1.28c.12,.12,.17,.28,.14,.44l-.31,1.81,1.62-.85c.07-.04,.15-.06,.23-.06Z"/></g><g><polygon class="cls-1" points="70.16 59.21 67.64 60.54 68.12 57.73 66.08 55.74 68.9 55.33 70.16 52.78 71.42 55.33 74.24 55.74 72.2 57.73 72.68 60.54 70.16 59.21"/><path class="cls-1" d="M72.68,61.04c-.08,0-.16-.02-.23-.06l-2.29-1.2-2.29,1.2c-.17,.09-.37,.07-.53-.04-.15-.11-.23-.3-.2-.49l.44-2.55-1.85-1.8c-.14-.13-.19-.33-.13-.51,.06-.18,.22-.31,.4-.34l2.56-.37,1.14-2.32c.08-.17,.26-.28,.45-.28h0c.19,0,.36,.11,.45,.28l1.14,2.32,2.56,.37c.19,.03,.34,.16,.4,.34,.06,.18,0,.38-.13,.51l-1.85,1.8,.44,2.55c.03,.19-.04,.38-.2,.49-.09,.06-.19,.1-.29,.1Zm-5.53-4.95l1.31,1.28c.12,.12,.17,.28,.14,.44l-.31,1.81,1.62-.85c.14-.08,.32-.08,.46,0l1.62,.85-.31-1.81c-.03-.16,.03-.33,.14-.44l1.31-1.28-1.82-.26c-.16-.02-.3-.13-.38-.27l-.81-1.65-.81,1.65c-.07,.15-.21,.25-.38,.27l-1.82,.26Z"/></g><g><polygon class="cls-1" points="87.07 59.21 84.55 60.54 85.03 57.73 82.99 55.74 85.81 55.33 87.07 52.78 88.33 55.33 91.14 55.74 89.11 57.73 89.59 60.54 87.07 59.21"/><path class="cls-1" d="M84.54,61.04c-.1,0-.21-.03-.29-.1-.15-.11-.23-.3-.2-.49l.44-2.55-1.85-1.8c-.14-.13-.19-.33-.13-.51,.06-.18,.22-.31,.4-.34l2.56-.37,1.14-2.32c.17-.34,.73-.34,.9,0l1.14,2.32,2.56,.37c.19,.03,.34,.16,.4,.34,.06,.18,0,.38-.13,.51l-1.85,1.8,.44,2.55c.03,.19-.04,.38-.2,.49-.15,.11-.36,.13-.53,.04l-2.29-1.2-2.29,1.2c-.07,.04-.15,.06-.23,.06Zm2.52-2.33c.08,0,.16,.02,.23,.06l1.62,.85-.31-1.81c-.03-.16,.03-.33,.14-.44l1.31-1.28-1.82-.26c-.16-.02-.3-.13-.38-.27l-.81-1.65-.81,1.65c-.07,.15-.21,.25-.38,.27l-1.82,.26,1.31,1.28c.12,.12,.17,.28,.14,.44l-.31,1.81,1.62-.85c.07-.04,.15-.06,.23-.06Z"/></g><g><polygon class="cls-1" points="104.11 59.21 101.59 60.54 102.07 57.73 100.03 55.74 102.85 55.33 104.11 52.78 105.37 55.33 108.19 55.74 106.15 57.73 106.63 60.54 104.11 59.21"/><path class="cls-1" d="M106.63,61.04c-.08,0-.16-.02-.23-.06l-2.29-1.2-2.29,1.2c-.17,.09-.37,.07-.53-.04-.15-.11-.23-.3-.2-.49l.44-2.55-1.85-1.8c-.14-.13-.19-.33-.13-.51,.06-.18,.22-.31,.4-.34l2.56-.37,1.14-2.32c.17-.34,.73-.34,.9,0l1.14,2.32,2.56,.37c.19,.03,.34,.16,.4,.34,.06,.18,0,.38-.13,.51l-1.85,1.8,.44,2.55c.03,.19-.04,.38-.2,.49-.09,.06-.19,.1-.29,.1Zm-2.52-2.33c.08,0,.16,.02,.23,.06l1.62,.85-.31-1.81c-.03-.16,.03-.33,.14-.44l1.31-1.28-1.82-.26c-.16-.02-.3-.13-.38-.27l-.81-1.65-.81,1.65c-.07,.15-.21,.25-.38,.27l-1.82,.26,1.31,1.28c.12,.12,.17,.28,.14,.44l-.31,1.81,1.62-.85c.07-.04,.15-.06,.23-.06Z"/></g><g><polygon class="cls-1" points="17.97 75.54 15.45 76.86 15.93 74.05 13.89 72.07 16.71 71.66 17.97 69.1 19.23 71.66 22.05 72.07 20.01 74.05 20.49 76.86 17.97 75.54"/><path class="cls-1" d="M20.49,77.36c-.08,0-.16-.02-.23-.06l-2.29-1.2-2.29,1.2c-.17,.09-.37,.08-.53-.04-.15-.11-.23-.3-.2-.49l.44-2.55-1.85-1.8c-.14-.13-.19-.33-.13-.51s.21-.31,.4-.34l2.56-.37,1.14-2.32c.17-.34,.73-.34,.9,0l1.14,2.32,2.56,.37c.19,.03,.34,.16,.4,.34s0,.38-.13,.51l-1.85,1.8,.44,2.55c.03,.19-.04,.38-.2,.49-.09,.06-.19,.1-.29,.1Zm-2.52-2.33c.08,0,.16,.02,.23,.06l1.62,.85-.31-1.81c-.03-.16,.03-.33,.14-.44l1.31-1.28-1.82-.26c-.16-.02-.3-.13-.38-.27l-.81-1.65-.81,1.65c-.07,.15-.21,.25-.38,.27l-1.82,.26,1.31,1.28c.12,.12,.17,.28,.14,.44l-.31,1.81,1.62-.85c.07-.04,.15-.06,.23-.06Z"/></g><g><polygon class="cls-1" points="35.37 75.54 32.85 76.86 33.33 74.05 31.3 72.07 34.11 71.66 35.37 69.1 36.63 71.66 39.45 72.07 37.41 74.05 37.89 76.86 35.37 75.54"/><path class="cls-1" d="M37.89,77.36c-.08,0-.16-.02-.23-.06l-2.29-1.2-2.29,1.2c-.17,.09-.37,.08-.53-.04-.15-.11-.23-.3-.2-.49l.44-2.55-1.85-1.8c-.14-.13-.19-.33-.13-.51s.21-.31,.4-.34l2.56-.37,1.14-2.32c.08-.17,.26-.28,.45-.28h0c.19,0,.36,.11,.45,.28l1.14,2.32,2.56,.37c.19,.03,.34,.16,.4,.34s0,.38-.13,.51l-1.85,1.8,.44,2.55c.03,.19-.04,.38-.2,.49-.09,.06-.19,.1-.29,.1Zm-5.53-4.95l1.31,1.28c.12,.12,.17,.28,.14,.44l-.31,1.81,1.62-.85c.14-.08,.32-.08,.46,0l1.62,.85-.31-1.81c-.03-.16,.03-.33,.14-.44l1.31-1.28-1.82-.26c-.16-.02-.3-.13-.38-.27l-.81-1.65-.81,1.65c-.07,.15-.21,.25-.38,.27l-1.82,.26Z"/></g><g><polygon class="cls-1" points="52.08 75.54 49.56 76.86 50.04 74.05 48 72.07 50.82 71.66 52.08 69.1 53.34 71.66 56.16 72.07 54.12 74.05 54.6 76.86 52.08 75.54"/><path class="cls-1" d="M54.6,77.36c-.08,0-.16-.02-.23-.06l-2.29-1.2-2.29,1.2c-.17,.09-.37,.08-.53-.04-.15-.11-.23-.3-.2-.49l.44-2.55-1.85-1.8c-.14-.13-.19-.33-.13-.51s.21-.31,.4-.34l2.56-.37,1.14-2.32c.08-.17,.26-.28,.45-.28h0c.19,0,.36,.11,.45,.28l1.14,2.32,2.56,.37c.19,.03,.34,.16,.4,.34s0,.38-.13,.51l-1.85,1.8,.44,2.55c.03,.19-.04,.38-.2,.49-.09,.06-.19,.1-.29,.1Zm-5.53-4.95l1.31,1.28c.12,.12,.17,.28,.14,.44l-.31,1.81,1.62-.85c.14-.08,.32-.08,.46,0l1.62,.85-.31-1.81c-.03-.16,.03-.33,.14-.44l1.31-1.28-1.82-.26c-.16-.02-.3-.13-.38-.27l-.81-1.65-.81,1.65c-.07,.15-.21,.25-.38,.27l-1.82,.26Z"/></g><g><polygon class="cls-1" points="70.04 75.54 67.52 76.86 68 74.05 65.97 72.07 68.78 71.66 70.04 69.1 71.3 71.66 74.12 72.07 72.08 74.05 72.56 76.86 70.04 75.54"/><path class="cls-1" d="M72.56,77.36c-.08,0-.16-.02-.23-.06l-2.29-1.2-2.29,1.2c-.17,.09-.37,.08-.53-.04-.15-.11-.23-.3-.2-.49l.44-2.55-1.85-1.8c-.14-.13-.19-.33-.13-.51s.21-.31,.4-.34l2.56-.37,1.14-2.32c.08-.17,.26-.28,.45-.28h0c.19,0,.36,.11,.45,.28l1.14,2.32,2.56,.37c.19,.03,.34,.16,.4,.34s0,.38-.13,.51l-1.85,1.8,.44,2.55c.03,.19-.04,.38-.2,.49-.09,.06-.19,.1-.29,.1Zm-2.52-2.33c.08,0,.16,.02,.23,.06l1.62,.85-.31-1.81c-.03-.16,.03-.33,.14-.44l1.31-1.28-1.82-.26c-.16-.02-.3-.13-.38-.27l-.81-1.65-.81,1.65c-.07,.15-.21,.25-.38,.27l-1.82,.26,1.31,1.28c.12,.12,.17,.28,.14,.44l-.31,1.81,1.62-.85c.07-.04,.15-.06,.23-.06Z"/></g><g><polygon class="cls-1" points="86.95 75.54 84.43 76.86 84.91 74.05 82.87 72.07 85.69 71.66 86.95 69.1 88.21 71.66 91.03 72.07 88.99 74.05 89.47 76.86 86.95 75.54"/><path class="cls-1" d="M84.43,77.36c-.1,0-.21-.03-.29-.1-.15-.11-.23-.3-.2-.49l.44-2.55-1.85-1.8c-.14-.13-.19-.33-.13-.51s.21-.31,.4-.34l2.56-.37,1.14-2.32c.08-.17,.26-.28,.45-.28h0c.19,0,.36,.11,.45,.28l1.14,2.32,2.56,.37c.19,.03,.34,.16,.4,.34s0,.38-.13,.51l-1.85,1.8,.44,2.55c.03,.19-.04,.38-.2,.49-.15,.11-.36,.13-.53,.04l-2.29-1.2-2.29,1.2c-.07,.04-.15,.06-.23,.06Zm-.48-4.95l1.31,1.28c.12,.12,.17,.28,.14,.44l-.31,1.81,1.62-.85c.14-.08,.32-.08,.46,0l1.62,.85-.31-1.81c-.03-.16,.03-.33,.14-.44l1.31-1.28-1.82-.26c-.16-.02-.3-.13-.38-.27l-.81-1.65-.81,1.65c-.07,.15-.21,.25-.38,.27l-1.82,.26Z"/></g><g><polygon class="cls-1" points="104 75.54 101.48 76.86 101.96 74.05 99.92 72.07 102.74 71.66 104 69.1 105.26 71.66 108.08 72.07 106.04 74.05 106.52 76.86 104 75.54"/><path class="cls-1" d="M106.52,77.36c-.08,0-.16-.02-.23-.06l-2.29-1.2-2.29,1.2c-.17,.09-.37,.08-.53-.04-.15-.11-.23-.3-.2-.49l.44-2.55-1.85-1.8c-.14-.13-.19-.33-.13-.51s.21-.31,.4-.34l2.56-.37,1.14-2.32c.17-.34,.73-.34,.9,0l1.14,2.32,2.56,.37c.19,.03,.34,.16,.4,.34s0,.38-.13,.51l-1.85,1.8,.44,2.55c.03,.19-.04,.38-.2,.49-.09,.06-.19,.1-.29,.1Zm-2.52-2.33c.08,0,.16,.02,.23,.06l1.62,.85-.31-1.81c-.03-.16,.03-.33,.14-.44l1.31-1.28-1.82-.26c-.16-.02-.3-.13-.38-.27l-.81-1.65-.81,1.65c-.07,.15-.21,.25-.38,.27l-1.82,.26,1.31,1.28c.12,.12,.17,.28,.14,.44l-.31,1.81,1.62-.85c.07-.04,.15-.06,.23-.06Z"/></g><g><polygon class="cls-1" points="17.97 92.48 15.45 93.81 15.93 91 13.89 89.01 16.71 88.6 17.97 86.05 19.23 88.6 22.05 89.01 20.01 91 20.49 93.81 17.97 92.48"/><path class="cls-1" d="M20.49,94.31c-.08,0-.16-.02-.23-.06l-2.29-1.2-2.29,1.2c-.17,.09-.37,.08-.53-.04-.15-.11-.23-.3-.2-.49l.44-2.55-1.85-1.8c-.14-.13-.19-.33-.13-.51s.21-.31,.4-.34l2.56-.37,1.14-2.32c.17-.34,.73-.34,.9,0l1.14,2.32,2.56,.37c.19,.03,.34,.16,.4,.34s0,.38-.13,.51l-1.85,1.8,.44,2.55c.03,.19-.04,.38-.2,.49-.09,.06-.19,.1-.29,.1Zm-5.53-4.95l1.31,1.28c.12,.12,.17,.28,.14,.44l-.31,1.81,1.62-.85c.14-.08,.32-.08,.46,0l1.62,.85-.31-1.81c-.03-.16,.03-.33,.14-.44l1.31-1.28-1.82-.26c-.16-.02-.3-.13-.38-.27l-.81-1.65-.81,1.65c-.07,.15-.21,.25-.38,.27l-1.82,.26Z"/></g><g><polygon class="cls-1" points="35.37 92.48 32.85 93.81 33.33 91 31.3 89.01 34.11 88.6 35.37 86.05 36.63 88.6 39.45 89.01 37.41 91 37.89 93.81 35.37 92.48"/><path class="cls-1" d="M37.89,94.31c-.08,0-.16-.02-.23-.06l-2.29-1.2-2.29,1.2c-.17,.09-.37,.08-.53-.04-.15-.11-.23-.3-.2-.49l.44-2.55-1.85-1.8c-.14-.13-.19-.33-.13-.51s.21-.31,.4-.34l2.56-.37,1.14-2.32c.08-.17,.26-.28,.45-.28h0c.19,0,.36,.11,.45,.28l1.14,2.32,2.56,.37c.19,.03,.34,.16,.4,.34s0,.38-.13,.51l-1.85,1.8,.44,2.55c.03,.19-.04,.38-.2,.49-.09,.06-.19,.1-.29,.1Zm-5.53-4.95l1.31,1.28c.12,.12,.17,.28,.14,.44l-.31,1.81,1.62-.85c.14-.08,.32-.08,.46,0l1.62,.85-.31-1.81c-.03-.16,.03-.33,.14-.44l1.31-1.28-1.82-.26c-.16-.02-.3-.13-.38-.27l-.81-1.65-.81,1.65c-.07,.15-.21,.25-.38,.27l-1.82,.26Z"/></g><g><polygon class="cls-1" points="52.08 92.48 49.56 93.81 50.04 91 48 89.01 50.82 88.6 52.08 86.05 53.34 88.6 56.16 89.01 54.12 91 54.6 93.81 52.08 92.48"/><path class="cls-1" d="M54.6,94.31c-.08,0-.16-.02-.23-.06l-2.29-1.2-2.29,1.2c-.17,.09-.37,.08-.53-.04-.15-.11-.23-.3-.2-.49l.44-2.55-1.85-1.8c-.14-.13-.19-.33-.13-.51s.21-.31,.4-.34l2.56-.37,1.14-2.32c.08-.17,.26-.28,.45-.28h0c.19,0,.36,.11,.45,.28l1.14,2.32,2.56,.37c.19,.03,.34,.16,.4,.34s0,.38-.13,.51l-1.85,1.8,.44,2.55c.03,.19-.04,.38-.2,.49-.09,.06-.19,.1-.29,.1Zm-5.53-4.95l1.31,1.28c.12,.12,.17,.28,.14,.44l-.31,1.81,1.62-.85c.14-.08,.32-.08,.46,0l1.62,.85-.31-1.81c-.03-.16,.03-.33,.14-.44l1.31-1.28-1.82-.26c-.16-.02-.3-.13-.38-.27l-.81-1.65-.81,1.65c-.07,.15-.21,.25-.38,.27l-1.82,.26Z"/></g><g><polygon class="cls-1" points="70.04 92.48 67.52 93.81 68 91 65.97 89.01 68.78 88.6 70.04 86.05 71.3 88.6 74.12 89.01 72.08 91 72.56 93.81 70.04 92.48"/><path class="cls-1" d="M72.56,94.31c-.08,0-.16-.02-.23-.06l-2.29-1.2-2.29,1.2c-.17,.09-.37,.08-.53-.04-.15-.11-.23-.3-.2-.49l.44-2.55-1.85-1.8c-.14-.13-.19-.33-.13-.51s.21-.31,.4-.34l2.56-.37,1.14-2.32c.08-.17,.26-.28,.45-.28h0c.19,0,.36,.11,.45,.28l1.14,2.32,2.56,.37c.19,.03,.34,.16,.4,.34s0,.38-.13,.51l-1.85,1.8,.44,2.55c.03,.19-.04,.38-.2,.49-.09,.06-.19,.1-.29,.1Zm-5.53-4.95l1.31,1.28c.12,.12,.17,.28,.14,.44l-.31,1.81,1.62-.85c.14-.08,.32-.08,.46,0l1.62,.85-.31-1.81c-.03-.16,.03-.33,.14-.44l1.31-1.28-1.82-.26c-.16-.02-.3-.13-.38-.27l-.81-1.65-.81,1.65c-.07,.15-.21,.25-.38,.27l-1.82,.26Z"/></g><g><polygon class="cls-1" points="86.95 92.48 84.43 93.81 84.91 91 82.87 89.01 85.69 88.6 86.95 86.05 88.21 88.6 91.03 89.01 88.99 91 89.47 93.81 86.95 92.48"/><path class="cls-1" d="M89.47,94.31c-.08,0-.16-.02-.23-.06l-2.29-1.2-2.29,1.2c-.17,.09-.37,.08-.53-.04-.15-.11-.23-.3-.2-.49l.44-2.55-1.85-1.8c-.14-.13-.19-.33-.13-.51s.21-.31,.4-.34l2.56-.37,1.14-2.32c.08-.17,.26-.28,.45-.28h0c.19,0,.36,.11,.45,.28l1.14,2.32,2.56,.37c.19,.03,.34,.16,.4,.34s0,.38-.13,.51l-1.85,1.8,.44,2.55c.03,.19-.04,.38-.2,.49-.09,.06-.19,.1-.29,.1Zm-5.53-4.95l1.31,1.28c.12,.12,.17,.28,.14,.44l-.31,1.81,1.62-.85c.14-.08,.32-.08,.46,0l1.62,.85-.31-1.81c-.03-.16,.03-.33,.14-.44l1.31-1.28-1.82-.26c-.16-.02-.3-.13-.38-.27l-.81-1.65-.81,1.65c-.07,.15-.21,.25-.38,.27l-1.82,.26Z"/></g><g><polygon class="cls-1" points="104 92.48 101.48 93.81 101.96 91 99.92 89.01 102.74 88.6 104 86.05 105.26 88.6 108.08 89.01 106.04 91 106.52 93.81 104 92.48"/><path class="cls-1" d="M101.48,94.31c-.1,0-.21-.03-.29-.1-.15-.11-.23-.3-.2-.49l.44-2.55-1.85-1.8c-.14-.13-.19-.33-.13-.51s.21-.31,.4-.34l2.56-.37,1.14-2.32c.17-.34,.73-.34,.9,0l1.14,2.32,2.56,.37c.19,.03,.34,.16,.4,.34s0,.38-.13,.51l-1.85,1.8,.44,2.55c.03,.19-.04,.38-.2,.49-.15,.11-.36,.13-.53,.04l-2.29-1.2-2.29,1.2c-.07,.04-.15,.06-.23,.06Zm2.52-2.33c.08,0,.16,.02,.23,.06l1.62,.85-.31-1.81c-.03-.16,.03-.33,.14-.44l1.31-1.28-1.82-.26c-.16-.02-.3-.13-.38-.27l-.81-1.65-.81,1.65c-.07,.15-.21,.25-.38,.27l-1.82,.26,1.31,1.28c.12,.12,.17,.28,.14,.44l-.31,1.81,1.62-.85c.07-.04,.15-.06,.23-.06Z"/></g><g><polygon class="cls-1" points="17.97 109.11 15.45 110.44 15.93 107.63 13.89 105.65 16.71 105.24 17.97 102.68 19.23 105.24 22.05 105.65 20.01 107.63 20.49 110.44 17.97 109.11"/><path class="cls-1" d="M20.49,110.94c-.08,0-.16-.02-.23-.06l-2.29-1.2-2.29,1.2c-.17,.09-.37,.07-.53-.04-.15-.11-.23-.3-.2-.49l.44-2.55-1.85-1.8c-.14-.13-.19-.33-.13-.51s.21-.31,.4-.34l2.56-.37,1.14-2.32c.17-.34,.73-.34,.9,0l1.14,2.32,2.56,.37c.19,.03,.34,.16,.4,.34s0,.38-.13,.51l-1.85,1.8,.44,2.55c.03,.19-.04,.38-.2,.49-.09,.06-.19,.1-.29,.1Zm-5.53-4.95l1.31,1.28c.12,.12,.17,.28,.14,.44l-.31,1.81,1.62-.85c.14-.08,.32-.08,.46,0l1.62,.85-.31-1.81c-.03-.16,.03-.33,.14-.44l1.31-1.28-1.82-.26c-.16-.02-.3-.13-.38-.27l-.81-1.65-.81,1.65c-.07,.15-.21,.25-.38,.27l-1.82,.26Z"/></g><g><polygon class="cls-1" points="35.37 109.11 32.85 110.44 33.33 107.63 31.3 105.65 34.11 105.24 35.37 102.68 36.63 105.24 39.45 105.65 37.41 107.63 37.89 110.44 35.37 109.11"/><path class="cls-1" d="M37.89,110.94c-.08,0-.16-.02-.23-.06l-2.29-1.2-2.29,1.2c-.17,.09-.37,.07-.53-.04-.15-.11-.23-.3-.2-.49l.44-2.55-1.85-1.8c-.14-.13-.19-.33-.13-.51s.21-.31,.4-.34l2.56-.37,1.14-2.32c.08-.17,.26-.28,.45-.28h0c.19,0,.36,.11,.45,.28l1.14,2.32,2.56,.37c.19,.03,.34,.16,.4,.34s0,.38-.13,.51l-1.85,1.8,.44,2.55c.03,.19-.04,.38-.2,.49-.09,.06-.19,.1-.29,.1Zm-5.53-4.95l1.31,1.28c.12,.12,.17,.28,.14,.44l-.31,1.81,1.62-.85c.14-.08,.32-.08,.46,0l1.62,.85-.31-1.81c-.03-.16,.03-.33,.14-.44l1.31-1.28-1.82-.26c-.16-.02-.3-.13-.38-.27l-.81-1.65-.81,1.65c-.07,.15-.21,.25-.38,.27l-1.82,.26Z"/></g><g><polygon class="cls-1" points="52.08 109.11 49.56 110.44 50.04 107.63 48 105.65 50.82 105.24 52.08 102.68 53.34 105.24 56.16 105.65 54.12 107.63 54.6 110.44 52.08 109.11"/><path class="cls-1" d="M54.6,110.94c-.08,0-.16-.02-.23-.06l-2.29-1.2-2.29,1.2c-.17,.09-.37,.07-.53-.04-.15-.11-.23-.3-.2-.49l.44-2.55-1.85-1.8c-.14-.13-.19-.33-.13-.51s.21-.31,.4-.34l2.56-.37,1.14-2.32c.08-.17,.26-.28,.45-.28h0c.19,0,.36,.11,.45,.28l1.14,2.32,2.56,.37c.19,.03,.34,.16,.4,.34s0,.38-.13,.51l-1.85,1.8,.44,2.55c.03,.19-.04,.38-.2,.49-.09,.06-.19,.1-.29,.1Zm-5.53-4.95l1.31,1.28c.12,.12,.17,.28,.14,.44l-.31,1.81,1.62-.85c.14-.08,.32-.08,.46,0l1.62,.85-.31-1.81c-.03-.16,.03-.33,.14-.44l1.31-1.28-1.82-.26c-.16-.02-.3-.13-.38-.27l-.81-1.65-.81,1.65c-.07,.15-.21,.25-.38,.27l-1.82,.26Z"/></g><g><polygon class="cls-1" points="70.04 109.11 67.52 110.44 68 107.63 65.97 105.65 68.78 105.24 70.04 102.68 71.3 105.24 74.12 105.65 72.08 107.63 72.56 110.44 70.04 109.11"/><path class="cls-1" d="M72.56,110.94c-.08,0-.16-.02-.23-.06l-2.29-1.2-2.29,1.2c-.17,.09-.37,.07-.53-.04-.15-.11-.23-.3-.2-.49l.44-2.55-1.85-1.8c-.14-.13-.19-.33-.13-.51s.21-.31,.4-.34l2.56-.37,1.14-2.32c.08-.17,.26-.28,.45-.28h0c.19,0,.36,.11,.45,.28l1.14,2.32,2.56,.37c.19,.03,.34,.16,.4,.34s0,.38-.13,.51l-1.85,1.8,.44,2.55c.03,.19-.04,.38-.2,.49-.09,.06-.19,.1-.29,.1Zm-5.53-4.95l1.31,1.28c.12,.12,.17,.28,.14,.44l-.31,1.81,1.62-.85c.14-.08,.32-.08,.46,0l1.62,.85-.31-1.81c-.03-.16,.03-.33,.14-.44l1.31-1.28-1.82-.26c-.16-.02-.3-.13-.38-.27l-.81-1.65-.81,1.65c-.07,.15-.21,.25-.38,.27l-1.82,.26Z"/></g><g><polygon class="cls-1" points="86.95 109.11 84.43 110.44 84.91 107.63 82.87 105.65 85.69 105.24 86.95 102.68 88.21 105.24 91.03 105.65 88.99 107.63 89.47 110.44 86.95 109.11"/><path class="cls-1" d="M89.47,110.94c-.08,0-.16-.02-.23-.06l-2.29-1.2-2.29,1.2c-.17,.09-.37,.07-.53-.04-.15-.11-.23-.3-.2-.49l.44-2.55-1.85-1.8c-.14-.13-.19-.33-.13-.51s.21-.31,.4-.34l2.56-.37,1.14-2.32c.08-.17,.26-.28,.45-.28h0c.19,0,.36,.11,.45,.28l1.14,2.32,2.56,.37c.19,.03,.34,.16,.4,.34s0,.38-.13,.51l-1.85,1.8,.44,2.55c.03,.19-.04,.38-.2,.49-.09,.06-.19,.1-.29,.1Zm-5.53-4.95l1.31,1.28c.12,.12,.17,.28,.14,.44l-.31,1.81,1.62-.85c.14-.08,.32-.08,.46,0l1.62,.85-.31-1.81c-.03-.16,.03-.33,.14-.44l1.31-1.28-1.82-.26c-.16-.02-.3-.13-.38-.27l-.81-1.65-.81,1.65c-.07,.15-.21,.25-.38,.27l-1.82,.26Z"/></g><g><polygon class="cls-1" points="104 109.11 101.48 110.44 101.96 107.63 99.92 105.65 102.74 105.24 104 102.68 105.26 105.24 108.08 105.65 106.04 107.63 106.52 110.44 104 109.11"/><path class="cls-1" d="M101.48,110.94c-.1,0-.21-.03-.29-.1-.15-.11-.23-.3-.2-.49l.44-2.55-1.85-1.8c-.14-.13-.19-.33-.13-.51s.21-.31,.4-.34l2.56-.37,1.14-2.32c.17-.34,.73-.34,.9,0l1.14,2.32,2.56,.37c.19,.03,.34,.16,.4,.34s0,.38-.13,.51l-1.85,1.8,.44,2.55c.03,.19-.04,.38-.2,.49-.15,.11-.36,.13-.53,.04l-2.29-1.2-2.29,1.2c-.07,.04-.15,.06-.23,.06Zm2.52-2.33c.08,0,.16,.02,.23,.06l1.62,.85-.31-1.81c-.03-.16,.03-.33,.14-.44l1.31-1.28-1.82-.26c-.16-.02-.3-.13-.38-.27l-.81-1.65-.81,1.65c-.07,.15-.21,.25-.38,.27l-1.82,.26,1.31,1.28c.12,.12,.17,.28,.14,.44l-.31,1.81,1.62-.85c.07-.04,.15-.06,.23-.06Z"/></g><g><polygon class="cls-1" points="17.97 125.75 15.45 127.07 15.93 124.27 13.89 122.28 16.71 121.87 17.97 119.32 19.23 121.87 22.05 122.28 20.01 124.27 20.49 127.07 17.97 125.75"/><path class="cls-1" d="M20.49,127.57c-.08,0-.16-.02-.23-.06l-2.29-1.2-2.29,1.2c-.17,.09-.37,.07-.53-.04-.15-.11-.23-.3-.2-.49l.44-2.55-1.85-1.8c-.14-.13-.19-.33-.13-.51,.06-.18,.22-.31,.4-.34l2.56-.37,1.14-2.32c.17-.34,.73-.34,.9,0l1.14,2.32,2.56,.37c.19,.03,.34,.16,.4,.34,.06,.18,0,.38-.13,.51l-1.85,1.8,.44,2.55c.03,.19-.04,.38-.2,.49-.09,.06-.19,.1-.29,.1Zm-5.53-4.95l1.31,1.28c.12,.12,.17,.28,.14,.44l-.31,1.81,1.62-.85c.14-.08,.32-.08,.46,0l1.62,.85-.31-1.81c-.03-.16,.03-.33,.14-.44l1.31-1.28-1.82-.26c-.16-.02-.3-.13-.38-.27l-.81-1.65-.81,1.65c-.07,.15-.21,.25-.38,.27l-1.82,.26Z"/></g><g><polygon class="cls-1" points="35.37 125.75 32.85 127.07 33.33 124.27 31.3 122.28 34.11 121.87 35.37 119.32 36.63 121.87 39.45 122.28 37.41 124.27 37.89 127.07 35.37 125.75"/><path class="cls-1" d="M37.89,127.57c-.08,0-.16-.02-.23-.06l-2.29-1.2-2.29,1.2c-.17,.09-.37,.07-.53-.04-.15-.11-.23-.3-.2-.49l.44-2.55-1.85-1.8c-.14-.13-.19-.33-.13-.51,.06-.18,.22-.31,.4-.34l2.56-.37,1.14-2.32c.08-.17,.26-.28,.45-.28h0c.19,0,.36,.11,.45,.28l1.14,2.32,2.56,.37c.19,.03,.34,.16,.4,.34,.06,.18,0,.38-.13,.51l-1.85,1.8,.44,2.55c.03,.19-.04,.38-.2,.49-.09,.06-.19,.1-.29,.1Zm-5.53-4.95l1.31,1.28c.12,.12,.17,.28,.14,.44l-.31,1.81,1.62-.85c.14-.08,.32-.08,.46,0l1.62,.85-.31-1.81c-.03-.16,.03-.33,.14-.44l1.31-1.28-1.82-.26c-.16-.02-.3-.13-.38-.27l-.81-1.65-.81,1.65c-.07,.15-.21,.25-.38,.27l-1.82,.26Z"/></g><g><polygon class="cls-1" points="52.08 125.75 49.56 127.07 50.04 124.27 48 122.28 50.82 121.87 52.08 119.32 53.34 121.87 56.16 122.28 54.12 124.27 54.6 127.07 52.08 125.75"/><path class="cls-1" d="M54.6,127.57c-.08,0-.16-.02-.23-.06l-2.29-1.2-2.29,1.2c-.17,.09-.37,.07-.53-.04-.15-.11-.23-.3-.2-.49l.44-2.55-1.85-1.8c-.14-.13-.19-.33-.13-.51,.06-.18,.22-.31,.4-.34l2.56-.37,1.14-2.32c.08-.17,.26-.28,.45-.28h0c.19,0,.36,.11,.45,.28l1.14,2.32,2.56,.37c.19,.03,.34,.16,.4,.34,.06,.18,0,.38-.13,.51l-1.85,1.8,.44,2.55c.03,.19-.04,.38-.2,.49-.09,.06-.19,.1-.29,.1Zm-5.53-4.95l1.31,1.28c.12,.12,.17,.28,.14,.44l-.31,1.81,1.62-.85c.14-.08,.32-.08,.46,0l1.62,.85-.31-1.81c-.03-.16,.03-.33,.14-.44l1.31-1.28-1.82-.26c-.16-.02-.3-.13-.38-.27l-.81-1.65-.81,1.65c-.07,.15-.21,.25-.38,.27l-1.82,.26Z"/></g><g><polygon class="cls-1" points="70.04 125.75 67.52 127.07 68 124.27 65.97 122.28 68.78 121.87 70.04 119.32 71.3 121.87 74.12 122.28 72.08 124.27 72.56 127.07 70.04 125.75"/><path class="cls-1" d="M72.56,127.57c-.08,0-.16-.02-.23-.06l-2.29-1.2-2.29,1.2c-.17,.09-.37,.07-.53-.04-.15-.11-.23-.3-.2-.49l.44-2.55-1.85-1.8c-.14-.13-.19-.33-.13-.51,.06-.18,.22-.31,.4-.34l2.56-.37,1.14-2.32c.08-.17,.26-.28,.45-.28h0c.19,0,.36,.11,.45,.28l1.14,2.32,2.56,.37c.19,.03,.34,.16,.4,.34,.06,.18,0,.38-.13,.51l-1.85,1.8,.44,2.55c.03,.19-.04,.38-.2,.49-.09,.06-.19,.1-.29,.1Zm-5.53-4.95l1.31,1.28c.12,.12,.17,.28,.14,.44l-.31,1.81,1.62-.85c.14-.08,.32-.08,.46,0l1.62,.85-.31-1.81c-.03-.16,.03-.33,.14-.44l1.31-1.28-1.82-.26c-.16-.02-.3-.13-.38-.27l-.81-1.65-.81,1.65c-.07,.15-.21,.25-.38,.27l-1.82,.26Z"/></g><g><polygon class="cls-1" points="86.95 125.75 84.43 127.07 84.91 124.27 82.87 122.28 85.69 121.87 86.95 119.32 88.21 121.87 91.03 122.28 88.99 124.27 89.47 127.07 86.95 125.75"/><path class="cls-1" d="M89.47,127.57c-.08,0-.16-.02-.23-.06l-2.29-1.2-2.29,1.2c-.17,.09-.37,.07-.53-.04-.15-.11-.23-.3-.2-.49l.44-2.55-1.85-1.8c-.14-.13-.19-.33-.13-.51,.06-.18,.22-.31,.4-.34l2.56-.37,1.14-2.32c.08-.17,.26-.28,.45-.28h0c.19,0,.36,.11,.45,.28l1.14,2.32,2.56,.37c.19,.03,.34,.16,.4,.34,.06,.18,0,.38-.13,.51l-1.85,1.8,.44,2.55c.03,.19-.04,.38-.2,.49-.09,.06-.19,.1-.29,.1Zm-5.53-4.95l1.31,1.28c.12,.12,.17,.28,.14,.44l-.31,1.81,1.62-.85c.14-.08,.32-.08,.46,0l1.62,.85-.31-1.81c-.03-.16,.03-.33,.14-.44l1.31-1.28-1.82-.26c-.16-.02-.3-.13-.38-.27l-.81-1.65-.81,1.65c-.07,.15-.21,.25-.38,.27l-1.82,.26Z"/></g><g><polygon class="cls-1" points="26.5 67.37 23.98 68.7 24.46 65.89 22.42 63.91 25.24 63.5 26.5 60.94 27.76 63.5 30.58 63.91 28.54 65.89 29.02 68.7 26.5 67.37"/><path class="cls-1" d="M23.98,69.2c-.1,0-.21-.03-.29-.1-.15-.11-.23-.3-.2-.49l.44-2.55-1.85-1.8c-.14-.13-.19-.33-.13-.51,.06-.18,.22-.31,.4-.34l2.56-.37,1.14-2.32c.17-.34,.73-.34,.9,0l1.14,2.32,2.56,.37c.19,.03,.34,.16,.4,.34,.06,.18,0,.38-.13,.51l-1.85,1.8,.44,2.55c.03,.19-.04,.38-.2,.49-.15,.11-.36,.13-.53,.04l-2.29-1.2-2.29,1.2c-.07,.04-.15,.06-.23,.06Zm2.52-2.33c.08,0,.16,.02,.23,.06l1.62,.85-.31-1.81c-.03-.16,.03-.33,.14-.44l1.31-1.28-1.82-.26c-.16-.02-.3-.13-.38-.27l-.81-1.65-.81,1.65c-.07,.15-.21,.25-.38,.27l-1.82,.26,1.31,1.28c.12,.12,.17,.28,.14,.44l-.31,1.81,1.62-.85c.07-.04,.15-.06,.23-.06Z"/></g><g><polygon class="cls-1" points="43.9 67.37 41.38 68.7 41.86 65.89 39.82 63.91 42.64 63.5 43.9 60.94 45.16 63.5 47.98 63.91 45.94 65.89 46.42 68.7 43.9 67.37"/><path class="cls-1" d="M46.42,69.2c-.08,0-.16-.02-.23-.06l-2.29-1.2-2.29,1.2c-.17,.09-.37,.07-.53-.04-.15-.11-.23-.3-.2-.49l.44-2.55-1.85-1.8c-.14-.13-.19-.33-.13-.51,.06-.18,.22-.31,.4-.34l2.56-.37,1.14-2.32c.17-.34,.73-.34,.9,0l1.14,2.32,2.56,.37c.19,.03,.34,.16,.4,.34,.06,.18,0,.38-.13,.51l-1.85,1.8,.44,2.55c.03,.19-.04,.38-.2,.49-.09,.06-.19,.1-.29,.1Zm-2.52-2.33c.08,0,.16,.02,.23,.06l1.62,.85-.31-1.81c-.03-.16,.03-.33,.14-.44l1.31-1.28-1.82-.26c-.16-.02-.3-.13-.38-.27l-.81-1.65-.81,1.65c-.07,.15-.21,.25-.38,.27l-1.82,.26,1.31,1.28c.12,.12,.17,.28,.14,.44l-.31,1.81,1.62-.85c.07-.04,.15-.06,.23-.06Z"/></g><g><polygon class="cls-1" points="60.6 67.37 58.08 68.7 58.56 65.89 56.53 63.91 59.34 63.5 60.6 60.94 61.86 63.5 64.68 63.91 62.64 65.89 63.12 68.7 60.6 67.37"/><path class="cls-1" d="M63.12,69.2c-.08,0-.16-.02-.23-.06l-2.29-1.2-2.29,1.2c-.17,.09-.37,.07-.53-.04-.15-.11-.23-.3-.2-.49l.44-2.55-1.85-1.8c-.14-.13-.19-.33-.13-.51,.06-.18,.22-.31,.4-.34l2.56-.37,1.14-2.32c.17-.34,.73-.34,.9,0l1.14,2.32,2.56,.37c.19,.03,.34,.16,.4,.34,.06,.18,0,.38-.13,.51l-1.85,1.8,.44,2.55c.03,.19-.04,.38-.2,.49-.09,.06-.19,.1-.29,.1Zm-2.52-2.33c.08,0,.16,.02,.23,.06l1.62,.85-.31-1.81c-.03-.16,.03-.33,.14-.44l1.31-1.28-1.82-.26c-.16-.02-.3-.13-.38-.27l-.81-1.65-.81,1.65c-.07,.15-.21,.25-.38,.27l-1.82,.26,1.31,1.28c.12,.12,.17,.28,.14,.44l-.31,1.81,1.62-.85c.07-.04,.15-.06,.23-.06Z"/></g><g><polygon class="cls-1" points="78.57 67.37 76.05 68.7 76.53 65.89 74.49 63.91 77.31 63.5 78.57 60.94 79.83 63.5 82.65 63.91 80.61 65.89 81.09 68.7 78.57 67.37"/><path class="cls-1" d="M81.09,69.2c-.08,0-.16-.02-.23-.06l-2.29-1.2-2.29,1.2c-.17,.09-.37,.07-.53-.04-.15-.11-.23-.3-.2-.49l.44-2.55-1.85-1.8c-.14-.13-.19-.33-.13-.51,.06-.18,.22-.31,.4-.34l2.56-.37,1.14-2.32c.17-.34,.73-.34,.9,0l1.14,2.32,2.56,.37c.19,.03,.34,.16,.4,.34,.06,.18,0,.38-.13,.51l-1.85,1.8,.44,2.55c.03,.19-.04,.38-.2,.49-.09,.06-.19,.1-.29,.1Zm-2.52-2.33c.08,0,.16,.02,.23,.06l1.62,.85-.31-1.81c-.03-.16,.03-.33,.14-.44l1.31-1.28-1.82-.26c-.16-.02-.3-.13-.38-.27l-.81-1.65-.81,1.65c-.07,.15-.21,.25-.38,.27l-1.82,.26,1.31,1.28c.12,.12,.17,.28,.14,.44l-.31,1.81,1.62-.85c.07-.04,.15-.06,.23-.06Z"/></g><g><polygon class="cls-1" points="95.47 67.37 92.95 68.7 93.43 65.89 91.39 63.91 94.21 63.5 95.47 60.94 96.73 63.5 99.55 63.91 97.51 65.89 97.99 68.7 95.47 67.37"/><path class="cls-1" d="M97.99,69.2c-.08,0-.16-.02-.23-.06l-2.29-1.2-2.29,1.2c-.17,.09-.37,.07-.53-.04-.15-.11-.23-.3-.2-.49l.44-2.55-1.85-1.8c-.14-.13-.19-.33-.13-.51,.06-.18,.22-.31,.4-.34l2.56-.37,1.14-2.32c.17-.34,.73-.34,.9,0l1.14,2.32,2.56,.37c.19,.03,.34,.16,.4,.34,.06,.18,0,.38-.13,.51l-1.85,1.8,.44,2.55c.03,.19-.04,.38-.2,.49-.09,.06-.19,.1-.29,.1Zm-2.52-2.33c.08,0,.16,.02,.23,.06l1.62,.85-.31-1.81c-.03-.16,.03-.33,.14-.44l1.31-1.28-1.82-.26c-.16-.02-.3-.13-.38-.27l-.81-1.65-.81,1.65c-.07,.15-.21,.25-.38,.27l-1.82,.26,1.31,1.28c.12,.12,.17,.28,.14,.44l-.31,1.81,1.62-.85c.07-.04,.15-.06,.23-.06Z"/></g><g><polygon class="cls-1" points="104 125.75 101.48 127.07 101.96 124.27 99.92 122.28 102.74 121.87 104 119.32 105.26 121.87 108.08 122.28 106.04 124.27 106.52 127.07 104 125.75"/><path class="cls-1" d="M101.48,127.57c-.1,0-.21-.03-.29-.1-.15-.11-.23-.3-.2-.49l.44-2.55-1.85-1.8c-.14-.13-.19-.33-.13-.51,.06-.18,.22-.31,.4-.34l2.56-.37,1.14-2.32c.17-.34,.73-.34,.9,0l1.14,2.32,2.56,.37c.19,.03,.34,.16,.4,.34,.06,.18,0,.38-.13,.51l-1.85,1.8,.44,2.55c.03,.19-.04,.38-.2,.49-.15,.11-.36,.13-.53,.04l-2.29-1.2-2.29,1.2c-.07,.04-.15,.06-.23,.06Zm2.52-2.33c.08,0,.16,.02,.23,.06l1.62,.85-.31-1.81c-.03-.16,.03-.33,.14-.44l1.31-1.28-1.82-.26c-.16-.02-.3-.13-.38-.27l-.81-1.65-.81,1.65c-.07,.15-.21,.25-.38,.27l-1.82,.26,1.31,1.28c.12,.12,.17,.28,.14,.44l-.31,1.81,1.62-.85c.07-.04,.15-.06,.23-.06Z"/></g><g><polygon class="cls-1" points="26.5 84.01 23.98 85.33 24.46 82.53 22.42 80.54 25.24 80.13 26.5 77.58 27.76 80.13 30.58 80.54 28.54 82.53 29.02 85.33 26.5 84.01"/><path class="cls-1" d="M23.98,85.83c-.1,0-.21-.03-.29-.1-.15-.11-.23-.3-.2-.49l.44-2.55-1.85-1.8c-.14-.13-.19-.33-.13-.51s.21-.31,.4-.34l2.56-.37,1.14-2.32c.17-.34,.73-.34,.9,0l1.14,2.32,2.56,.37c.19,.03,.34,.16,.4,.34s0,.38-.13,.51l-1.85,1.8,.44,2.55c.03,.19-.04,.38-.2,.49-.15,.11-.36,.13-.53,.04l-2.29-1.2-2.29,1.2c-.07,.04-.15,.06-.23,.06Zm2.52-2.33c.08,0,.16,.02,.23,.06l1.62,.85-.31-1.81c-.03-.16,.03-.33,.14-.44l1.31-1.28-1.82-.26c-.16-.02-.3-.13-.38-.27l-.81-1.65-.81,1.65c-.07,.15-.21,.25-.38,.27l-1.82,.26,1.31,1.28c.12,.12,.17,.28,.14,.44l-.31,1.81,1.62-.85c.07-.04,.15-.06,.23-.06Z"/></g><g><polygon class="cls-1" points="43.9 84.01 41.38 85.33 41.86 82.53 39.82 80.54 42.64 80.13 43.9 77.58 45.16 80.13 47.98 80.54 45.94 82.53 46.42 85.33 43.9 84.01"/><path class="cls-1" d="M46.42,85.83c-.08,0-.16-.02-.23-.06l-2.29-1.2-2.29,1.2c-.17,.09-.37,.08-.53-.04-.15-.11-.23-.3-.2-.49l.44-2.55-1.85-1.8c-.14-.13-.19-.33-.13-.51s.21-.31,.4-.34l2.56-.37,1.14-2.32c.17-.34,.73-.34,.9,0l1.14,2.32,2.56,.37c.19,.03,.34,.16,.4,.34s0,.38-.13,.51l-1.85,1.8,.44,2.55c.03,.19-.04,.38-.2,.49-.09,.06-.19,.1-.29,.1Zm-2.52-2.33c.08,0,.16,.02,.23,.06l1.62,.85-.31-1.81c-.03-.16,.03-.33,.14-.44l1.31-1.28-1.82-.26c-.16-.02-.3-.13-.38-.27l-.81-1.65-.81,1.65c-.07,.15-.21,.25-.38,.27l-1.82,.26,1.31,1.28c.12,.12,.17,.28,.14,.44l-.31,1.81,1.62-.85c.07-.04,.15-.06,.23-.06Z"/></g><g><polygon class="cls-1" points="60.6 84.01 58.08 85.33 58.56 82.53 56.53 80.54 59.34 80.13 60.6 77.58 61.86 80.13 64.68 80.54 62.64 82.53 63.12 85.33 60.6 84.01"/><path class="cls-1" d="M63.12,85.83c-.08,0-.16-.02-.23-.06l-2.29-1.2-2.29,1.2c-.17,.09-.37,.08-.53-.04-.15-.11-.23-.3-.2-.49l.44-2.55-1.85-1.8c-.14-.13-.19-.33-.13-.51s.21-.31,.4-.34l2.56-.37,1.14-2.32c.17-.34,.73-.34,.9,0l1.14,2.32,2.56,.37c.19,.03,.34,.16,.4,.34s0,.38-.13,.51l-1.85,1.8,.44,2.55c.03,.19-.04,.38-.2,.49-.09,.06-.19,.1-.29,.1Zm-2.52-2.33c.08,0,.16,.02,.23,.06l1.62,.85-.31-1.81c-.03-.16,.03-.33,.14-.44l1.31-1.28-1.82-.26c-.16-.02-.3-.13-.38-.27l-.81-1.65-.81,1.65c-.07,.15-.21,.25-.38,.27l-1.82,.26,1.31,1.28c.12,.12,.17,.28,.14,.44l-.31,1.81,1.62-.85c.07-.04,.15-.06,.23-.06Z"/></g><g><polygon class="cls-1" points="78.57 84.01 76.05 85.33 76.53 82.53 74.49 80.54 77.31 80.13 78.57 77.58 79.83 80.13 82.65 80.54 80.61 82.53 81.09 85.33 78.57 84.01"/><path class="cls-1" d="M81.09,85.83c-.08,0-.16-.02-.23-.06l-2.29-1.2-2.29,1.2c-.17,.09-.37,.08-.53-.04-.15-.11-.23-.3-.2-.49l.44-2.55-1.85-1.8c-.14-.13-.19-.33-.13-.51s.21-.31,.4-.34l2.56-.37,1.14-2.32c.17-.34,.73-.34,.9,0l1.14,2.32,2.56,.37c.19,.03,.34,.16,.4,.34s0,.38-.13,.51l-1.85,1.8,.44,2.55c.03,.19-.04,.38-.2,.49-.09,.06-.19,.1-.29,.1Zm-2.52-2.33c.08,0,.16,.02,.23,.06l1.62,.85-.31-1.81c-.03-.16,.03-.33,.14-.44l1.31-1.28-1.82-.26c-.16-.02-.3-.13-.38-.27l-.81-1.65-.81,1.65c-.07,.15-.21,.25-.38,.27l-1.82,.26,1.31,1.28c.12,.12,.17,.28,.14,.44l-.31,1.81,1.62-.85c.07-.04,.15-.06,.23-.06Z"/></g><g><polygon class="cls-1" points="95.47 84.01 92.95 85.33 93.43 82.53 91.39 80.54 94.21 80.13 95.47 77.58 96.73 80.13 99.55 80.54 97.51 82.53 97.99 85.33 95.47 84.01"/><path class="cls-1" d="M97.99,85.83c-.08,0-.16-.02-.23-.06l-2.29-1.2-2.29,1.2c-.17,.09-.37,.08-.53-.04-.15-.11-.23-.3-.2-.49l.44-2.55-1.85-1.8c-.14-.13-.19-.33-.13-.51s.21-.31,.4-.34l2.56-.37,1.14-2.32c.17-.34,.73-.34,.9,0l1.14,2.32,2.56,.37c.19,.03,.34,.16,.4,.34s0,.38-.13,.51l-1.85,1.8,.44,2.55c.03,.19-.04,.38-.2,.49-.09,.06-.19,.1-.29,.1Zm-2.52-2.33c.08,0,.16,.02,.23,.06l1.62,.85-.31-1.81c-.03-.16,.03-.33,.14-.44l1.31-1.28-1.82-.26c-.16-.02-.3-.13-.38-.27l-.81-1.65-.81,1.65c-.07,.15-.21,.25-.38,.27l-1.82,.26,1.31,1.28c.12,.12,.17,.28,.14,.44l-.31,1.81,1.62-.85c.07-.04,.15-.06,.23-.06Z"/></g><g><polygon class="cls-1" points="26.5 100.8 23.98 102.12 24.46 99.32 22.42 97.33 25.24 96.92 26.5 94.36 27.76 96.92 30.58 97.33 28.54 99.32 29.02 102.12 26.5 100.8"/><path class="cls-1" d="M23.98,102.62c-.1,0-.21-.03-.29-.1-.15-.11-.23-.3-.2-.49l.44-2.55-1.85-1.8c-.14-.13-.19-.33-.13-.51,.06-.18,.22-.31,.4-.34l2.56-.37,1.14-2.32c.17-.34,.73-.34,.9,0l1.14,2.32,2.56,.37c.19,.03,.34,.16,.4,.34,.06,.18,0,.38-.13,.51l-1.85,1.8,.44,2.55c.03,.19-.04,.38-.2,.49-.15,.11-.36,.13-.53,.04l-2.29-1.2-2.29,1.2c-.07,.04-.15,.06-.23,.06Zm2.52-2.33c.08,0,.16,.02,.23,.06l1.62,.85-.31-1.81c-.03-.16,.03-.33,.14-.44l1.31-1.28-1.82-.26c-.16-.02-.3-.13-.38-.27l-.81-1.65-.81,1.65c-.07,.15-.21,.25-.38,.27l-1.82,.26,1.31,1.28c.12,.12,.17,.28,.14,.44l-.31,1.81,1.62-.85c.07-.04,.15-.06,.23-.06Z"/></g><g><polygon class="cls-1" points="43.9 100.8 41.38 102.12 41.86 99.32 39.82 97.33 42.64 96.92 43.9 94.36 45.16 96.92 47.98 97.33 45.94 99.32 46.42 102.12 43.9 100.8"/><path class="cls-1" d="M46.42,102.62c-.08,0-.16-.02-.23-.06l-2.29-1.2-2.29,1.2c-.17,.09-.37,.07-.53-.04-.15-.11-.23-.3-.2-.49l.44-2.55-1.85-1.8c-.14-.13-.19-.33-.13-.51,.06-.18,.22-.31,.4-.34l2.56-.37,1.14-2.32c.17-.34,.73-.34,.9,0l1.14,2.32,2.56,.37c.19,.03,.34,.16,.4,.34,.06,.18,0,.38-.13,.51l-1.85,1.8,.44,2.55c.03,.19-.04,.38-.2,.49-.09,.06-.19,.1-.29,.1Zm-2.52-2.33c.08,0,.16,.02,.23,.06l1.62,.85-.31-1.81c-.03-.16,.03-.33,.14-.44l1.31-1.28-1.82-.26c-.16-.02-.3-.13-.38-.27l-.81-1.65-.81,1.65c-.07,.15-.21,.25-.38,.27l-1.82,.26,1.31,1.28c.12,.12,.17,.28,.14,.44l-.31,1.81,1.62-.85c.07-.04,.15-.06,.23-.06Z"/></g><g><polygon class="cls-1" points="60.6 100.8 58.08 102.12 58.56 99.32 56.53 97.33 59.34 96.92 60.6 94.36 61.86 96.92 64.68 97.33 62.64 99.32 63.12 102.12 60.6 100.8"/><path class="cls-1" d="M63.12,102.62c-.08,0-.16-.02-.23-.06l-2.29-1.2-2.29,1.2c-.17,.09-.37,.07-.53-.04-.15-.11-.23-.3-.2-.49l.44-2.55-1.85-1.8c-.14-.13-.19-.33-.13-.51,.06-.18,.22-.31,.4-.34l2.56-.37,1.14-2.32c.17-.34,.73-.34,.9,0l1.14,2.32,2.56,.37c.19,.03,.34,.16,.4,.34,.06,.18,0,.38-.13,.51l-1.85,1.8,.44,2.55c.03,.19-.04,.38-.2,.49-.09,.06-.19,.1-.29,.1Zm-2.52-2.33c.08,0,.16,.02,.23,.06l1.62,.85-.31-1.81c-.03-.16,.03-.33,.14-.44l1.31-1.28-1.82-.26c-.16-.02-.3-.13-.38-.27l-.81-1.65-.81,1.65c-.07,.15-.21,.25-.38,.27l-1.82,.26,1.31,1.28c.12,.12,.17,.28,.14,.44l-.31,1.81,1.62-.85c.07-.04,.15-.06,.23-.06Z"/></g><g><polygon class="cls-1" points="78.57 100.8 76.05 102.12 76.53 99.32 74.49 97.33 77.31 96.92 78.57 94.36 79.83 96.92 82.65 97.33 80.61 99.32 81.09 102.12 78.57 100.8"/><path class="cls-1" d="M81.09,102.62c-.08,0-.16-.02-.23-.06l-2.29-1.2-2.29,1.2c-.17,.09-.37,.07-.53-.04-.15-.11-.23-.3-.2-.49l.44-2.55-1.85-1.8c-.14-.13-.19-.33-.13-.51,.06-.18,.22-.31,.4-.34l2.56-.37,1.14-2.32c.17-.34,.73-.34,.9,0l1.14,2.32,2.56,.37c.19,.03,.34,.16,.4,.34,.06,.18,0,.38-.13,.51l-1.85,1.8,.44,2.55c.03,.19-.04,.38-.2,.49-.09,.06-.19,.1-.29,.1Zm-2.52-2.33c.08,0,.16,.02,.23,.06l1.62,.85-.31-1.81c-.03-.16,.03-.33,.14-.44l1.31-1.28-1.82-.26c-.16-.02-.3-.13-.38-.27l-.81-1.65-.81,1.65c-.07,.15-.21,.25-.38,.27l-1.82,.26,1.31,1.28c.12,.12,.17,.28,.14,.44l-.31,1.81,1.62-.85c.07-.04,.15-.06,.23-.06Z"/></g><g><polygon class="cls-1" points="95.47 100.8 92.95 102.12 93.43 99.32 91.39 97.33 94.21 96.92 95.47 94.36 96.73 96.92 99.55 97.33 97.51 99.32 97.99 102.12 95.47 100.8"/><path class="cls-1" d="M97.99,102.62c-.08,0-.16-.02-.23-.06l-2.29-1.2-2.29,1.2c-.17,.09-.37,.07-.53-.04-.15-.11-.23-.3-.2-.49l.44-2.55-1.85-1.8c-.14-.13-.19-.33-.13-.51,.06-.18,.22-.31,.4-.34l2.56-.37,1.14-2.32c.17-.34,.73-.34,.9,0l1.14,2.32,2.56,.37c.19,.03,.34,.16,.4,.34,.06,.18,0,.38-.13,.51l-1.85,1.8,.44,2.55c.03,.19-.04,.38-.2,.49-.09,.06-.19,.1-.29,.1Zm-5.53-4.95l1.31,1.28c.12,.12,.17,.28,.14,.44l-.31,1.81,1.62-.85c.14-.08,.32-.08,.46,0l1.62,.85-.31-1.81c-.03-.16,.03-.33,.14-.44l1.31-1.28-1.82-.26c-.16-.02-.3-.13-.38-.27l-.81-1.65-.81,1.65c-.07,.15-.21,.25-.38,.27l-1.82,.26Z"/></g><g><polygon class="cls-1" points="26.5 117.43 23.98 118.76 24.46 115.95 22.42 113.96 25.24 113.55 26.5 111 27.76 113.55 30.58 113.96 28.54 115.95 29.02 118.76 26.5 117.43"/><path class="cls-1" d="M23.98,119.26c-.1,0-.21-.03-.29-.1-.15-.11-.23-.3-.2-.49l.44-2.55-1.85-1.8c-.14-.13-.19-.33-.13-.51,.06-.18,.22-.31,.4-.34l2.56-.37,1.14-2.32c.17-.34,.73-.34,.9,0l1.14,2.32,2.56,.37c.19,.03,.34,.16,.4,.34,.06,.18,0,.38-.13,.51l-1.85,1.8,.44,2.55c.03,.19-.04,.38-.2,.49-.15,.11-.36,.13-.53,.04l-2.29-1.2-2.29,1.2c-.07,.04-.15,.06-.23,.06Zm2.52-2.33c.08,0,.16,.02,.23,.06l1.62,.85-.31-1.81c-.03-.16,.03-.33,.14-.44l1.31-1.28-1.82-.26c-.16-.02-.3-.13-.38-.27l-.81-1.65-.81,1.65c-.07,.15-.21,.25-.38,.27l-1.82,.26,1.31,1.28c.12,.12,.17,.28,.14,.44l-.31,1.81,1.62-.85c.07-.04,.15-.06,.23-.06Z"/></g><g><polygon class="cls-1" points="43.9 117.43 41.38 118.76 41.86 115.95 39.82 113.96 42.64 113.55 43.9 111 45.16 113.55 47.98 113.96 45.94 115.95 46.42 118.76 43.9 117.43"/><path class="cls-1" d="M46.42,119.26c-.08,0-.16-.02-.23-.06l-2.29-1.2-2.29,1.2c-.17,.09-.37,.08-.53-.04-.15-.11-.23-.3-.2-.49l.44-2.55-1.85-1.8c-.14-.13-.19-.33-.13-.51,.06-.18,.22-.31,.4-.34l2.56-.37,1.14-2.32c.17-.34,.73-.34,.9,0l1.14,2.32,2.56,.37c.19,.03,.34,.16,.4,.34,.06,.18,0,.38-.13,.51l-1.85,1.8,.44,2.55c.03,.19-.04,.38-.2,.49-.09,.06-.19,.1-.29,.1Zm-2.52-2.33c.08,0,.16,.02,.23,.06l1.62,.85-.31-1.81c-.03-.16,.03-.33,.14-.44l1.31-1.28-1.82-.26c-.16-.02-.3-.13-.38-.27l-.81-1.65-.81,1.65c-.07,.15-.21,.25-.38,.27l-1.82,.26,1.31,1.28c.12,.12,.17,.28,.14,.44l-.31,1.81,1.62-.85c.07-.04,.15-.06,.23-.06Z"/></g><g><polygon class="cls-1" points="60.6 117.43 58.08 118.76 58.56 115.95 56.53 113.96 59.34 113.55 60.6 111 61.86 113.55 64.68 113.96 62.64 115.95 63.12 118.76 60.6 117.43"/><path class="cls-1" d="M63.12,119.26c-.08,0-.16-.02-.23-.06l-2.29-1.2-2.29,1.2c-.17,.09-.37,.08-.53-.04-.15-.11-.23-.3-.2-.49l.44-2.55-1.85-1.8c-.14-.13-.19-.33-.13-.51,.06-.18,.22-.31,.4-.34l2.56-.37,1.14-2.32c.17-.34,.73-.34,.9,0l1.14,2.32,2.56,.37c.19,.03,.34,.16,.4,.34,.06,.18,0,.38-.13,.51l-1.85,1.8,.44,2.55c.03,.19-.04,.38-.2,.49-.09,.06-.19,.1-.29,.1Zm-2.52-2.33c.08,0,.16,.02,.23,.06l1.62,.85-.31-1.81c-.03-.16,.03-.33,.14-.44l1.31-1.28-1.82-.26c-.16-.02-.3-.13-.38-.27l-.81-1.65-.81,1.65c-.07,.15-.21,.25-.38,.27l-1.82,.26,1.31,1.28c.12,.12,.17,.28,.14,.44l-.31,1.81,1.62-.85c.07-.04,.15-.06,.23-.06Z"/></g><g><polygon class="cls-1" points="78.57 117.43 76.05 118.76 76.53 115.95 74.49 113.96 77.31 113.55 78.57 111 79.83 113.55 82.65 113.96 80.61 115.95 81.09 118.76 78.57 117.43"/><path class="cls-1" d="M81.09,119.26c-.08,0-.16-.02-.23-.06l-2.29-1.2-2.29,1.2c-.17,.09-.37,.08-.53-.04-.15-.11-.23-.3-.2-.49l.44-2.55-1.85-1.8c-.14-.13-.19-.33-.13-.51,.06-.18,.22-.31,.4-.34l2.56-.37,1.14-2.32c.17-.34,.73-.34,.9,0l1.14,2.32,2.56,.37c.19,.03,.34,.16,.4,.34,.06,.18,0,.38-.13,.51l-1.85,1.8,.44,2.55c.03,.19-.04,.38-.2,.49-.09,.06-.19,.1-.29,.1Zm-2.52-2.33c.08,0,.16,.02,.23,.06l1.62,.85-.31-1.81c-.03-.16,.03-.33,.14-.44l1.31-1.28-1.82-.26c-.16-.02-.3-.13-.38-.27l-.81-1.65-.81,1.65c-.07,.15-.21,.25-.38,.27l-1.82,.26,1.31,1.28c.12,.12,.17,.28,.14,.44l-.31,1.81,1.62-.85c.07-.04,.15-.06,.23-.06Z"/></g><g><polygon class="cls-1" points="95.47 117.43 92.95 118.76 93.43 115.95 91.39 113.96 94.21 113.55 95.47 111 96.73 113.55 99.55 113.96 97.51 115.95 97.99 118.76 95.47 117.43"/><path class="cls-1" d="M97.99,119.26c-.08,0-.16-.02-.23-.06l-2.29-1.2-2.29,1.2c-.17,.09-.37,.08-.53-.04-.15-.11-.23-.3-.2-.49l.44-2.55-1.85-1.8c-.14-.13-.19-.33-.13-.51,.06-.18,.22-.31,.4-.34l2.56-.37,1.14-2.32c.17-.34,.73-.34,.9,0l1.14,2.32,2.56,.37c.19,.03,.34,.16,.4,.34,.06,.18,0,.38-.13,.51l-1.85,1.8,.44,2.55c.03,.19-.04,.38-.2,.49-.09,.06-.19,.1-.29,.1Zm-5.53-4.95l1.31,1.28c.12,.12,.17,.28,.14,.44l-.31,1.81,1.62-.85c.14-.08,.32-.08,.46,0l1.62,.85-.31-1.81c-.03-.16,.03-.33,.14-.44l1.31-1.28-1.82-.26c-.16-.02-.3-.13-.38-.27l-.81-1.65-.81,1.65c-.07,.15-.21,.25-.38,.27l-1.82,.26Z"/></g><path class="cls-1" d="M240.49,201.91H9.51c-.55,0-1-.45-1-1V49.09c0-.55,.45-1,1-1H240.49c.55,0,1,.45,1,1V200.91c0,.55-.45,1-1,1Zm-229.98-2H239.49V50.09H10.51V199.91Z"/></svg>