<?xml version="1.0" encoding="UTF-8"?><svg id="nintendo" xmlns="http://www.w3.org/2000/svg" width="250" height="250" viewBox="0 0 250 250"><defs><style>.cls-1{fill:#1d1d1b;}.cls-2{fill:#b9b9b9;}</style></defs><path class="cls-1" d="M125.47,234.77c-.94,0-1.86-.08-2.78-.25-5.25-.98-10.02-4.81-13.07-10.5-2.69-5.01-3.78-10.76-4.75-15.84-1.62-8.49-3.25-16.98-4.87-25.47l-4.69-24.54c-1.33-7.02-2.99-15.75-8.36-21.8-4.54-5.12-11.55-8.37-22.04-10.22-2.44-.43-4.95-.78-7.38-1.12-5.93-.83-12.06-1.68-17.8-3.78-16.97-6.19-28.73-23.6-27.98-41.38,.74-17.53,13.58-33.7,30.65-38.74v-.02l.74-.2c3.51-.96,7.18-1.48,10.73-1.98,5.64-.79,11.48-1.61,16.58-4.26,3.28-1.71,4.97-4.09,6.76-6.62,1.25-1.76,2.54-3.58,4.42-5.25,4.59-4.06,12.77-4.98,19.35-5.72,1.25-.14,2.44-.27,3.52-.42,17.19-2.33,34.44-1.82,51.28,1.52,4.33,.87,9.29,2.03,13.38,4.89,2.97,2.08,5.19,5.06,6.09,8.17,.53,1.87,2.4,3.15,4.5,3.14,14.58,0,27.94,3.75,38.64,10.85,13.31,8.84,22.04,23.29,22.78,37.71,.81,15.82-8.23,31.14-21.98,37.25-6.7,2.98-14.14,3.79-21.33,4.57-7.42,.81-15.09,1.64-21.73,4.9-15.84,7.77-21.21,26.47-23,36.92-1.08,6.3-1.59,12.81-2.08,19.11-.69,8.75-1.4,17.8-3.63,26.48-1.83,7.1-4.34,12.2-7.89,16.03-3.88,4.19-9.07,6.56-14.05,6.56ZM44.18,42.69l-.5,.15c-16.62,4.56-29.2,20.17-29.92,37.1-.72,16.93,10.49,33.51,26.67,39.41,5.54,2.02,11.57,2.86,17.39,3.68,2.45,.34,4.97,.69,7.45,1.13,10.96,1.94,18.33,5.39,23.19,10.87,5.73,6.47,7.45,15.5,8.83,22.75l4.69,24.54c1.62,8.49,3.25,16.98,4.87,25.47,.94,4.94,2.01,10.53,4.55,15.27,2.73,5.08,7.09,8.62,11.68,9.48,5.1,.96,10.84-1.23,14.99-5.7,3.32-3.58,5.68-8.4,7.42-15.17,2.2-8.51,2.9-17.47,3.58-26.13,.5-6.35,1.01-12.91,2.11-19.29,1.86-10.83,7.46-30.22,24.1-38.38,6.95-3.41,14.8-4.27,22.4-5.09,7.04-.77,14.32-1.56,20.73-4.41,13.01-5.78,21.56-20.31,20.79-35.32-.7-13.8-9.09-27.65-21.89-36.15-10.37-6.88-23.35-10.51-37.54-10.51-3.01-.01-5.64-1.87-6.42-4.59-.78-2.68-2.71-5.26-5.31-7.09-3.78-2.64-8.5-3.74-12.63-4.57-16.62-3.3-33.65-3.8-50.62-1.5-1.1,.15-2.3,.29-3.56,.43-6.3,.71-14.14,1.6-18.25,5.23-1.7,1.51-2.93,3.24-4.11,4.91-1.85,2.61-3.76,5.3-7.47,7.23-5.4,2.81-11.41,3.65-17.22,4.46-3.31,.47-6.74,.95-9.97,1.79Z"/><path class="cls-1" d="M28.94,187.26c-.67,0-1.35-.06-2.04-.19-5.82-1.11-10.11-6.6-12.76-16.32-7.06-26.05-7.62-55.06-1.56-81.69,.12-.54,.66-.88,1.2-.75,.54,.12,.88,.66,.75,1.2-5.99,26.32-5.44,54.99,1.54,80.72,2.43,8.92,6.19,13.93,11.2,14.88,5.36,1.03,10.36-3.1,12.73-7.36,2.22-3.99,3.07-8.69,3.89-13.23,.17-.92,.33-1.84,.51-2.75,4.92-25.55,11.9-38.19,20.76-37.64,.55,.04,.97,.51,.93,1.06-.04,.55-.52,.97-1.06,.93-5.26-.35-12.81,5.63-18.66,36.02-.17,.91-.34,1.82-.5,2.73-.85,4.7-1.72,9.57-4.11,13.85-2.42,4.34-7.3,8.55-12.82,8.55Z"/><path class="cls-1" d="M221.41,188.29c-.62,0-1.25-.05-1.89-.17-3.16-.56-6.16-2.59-8.45-5.72-1.98-2.7-3.19-5.77-4.35-8.94-4.63-12.61-8.22-25.75-10.66-39.07l-.05-.27c-.37-1.96-.71-3.81-1.54-5.47-.7-1.4-1.75-2.37-4.82-2.94-.54-.1-.9-.62-.8-1.17,.1-.54,.62-.9,1.17-.8,3.31,.61,5.12,1.78,6.24,4.01,.96,1.91,1.35,3.99,1.72,6l.05,.27c2.42,13.21,5.98,26.24,10.57,38.74,1.11,3.03,2.27,5.95,4.09,8.45,1.98,2.71,4.54,4.46,7.19,4.93,4.64,.84,9.09-2.27,11.44-5.72,2.67-3.92,3.7-8.77,4.53-13.41,4.14-23.19,4.86-48.14,2.08-72.16-.06-.55,.33-1.04,.88-1.11,.54-.07,1.04,.33,1.11,.88,2.8,24.2,2.08,49.35-2.1,72.74-.86,4.85-1.95,9.93-4.84,14.18-2.4,3.53-6.76,6.73-11.56,6.73Z"/><path class="cls-1" d="M170.07,102.91c-5.57,0-10.1-4.53-10.1-10.1s4.53-10.1,10.1-10.1,10.1,4.53,10.1,10.1-4.53,10.1-10.1,10.1Zm0-19.19c-5.02,0-9.1,4.08-9.1,9.1s4.08,9.1,9.1,9.1,9.1-4.08,9.1-9.1-4.08-9.1-9.1-9.1Z"/><path class="cls-1" d="M186.95,119.99c-5.57,0-10.1-4.53-10.1-10.1s4.53-10.1,10.1-10.1,10.1,4.53,10.1,10.1-4.53,10.1-10.1,10.1Zm0-19.19c-5.02,0-9.1,4.08-9.1,9.1s4.08,9.1,9.1,9.1,9.1-4.08,9.1-9.1-4.08-9.1-9.1-9.1Z"/><circle class="cls-2" cx="125.62" cy="94.12" r="8.96"/><circle class="cls-1" cx="190.31" cy="78.54" r="6.62"/><circle class="cls-1" cx="205.46" cy="92.13" r="6.62" transform="translate(57.75 262.08) rotate(-73.15)"/><circle class="cls-1" cx="219.78" cy="78.54" r="6.62"/><circle class="cls-1" cx="205.46" cy="64.62" r="6.62" transform="translate(108.76 257.08) rotate(-80.78)"/><path class="cls-1" d="M50.72,110.47c-13.96,0-25.31-11.36-25.31-25.31s11.36-25.31,25.31-25.31,25.31,11.36,25.31,25.31-11.36,25.31-25.31,25.31Zm0-49.63c-13.41,0-24.31,10.91-24.31,24.31s10.91,24.31,24.31,24.31,24.31-10.91,24.31-24.31-10.91-24.31-24.31-24.31Z"/><path class="cls-1" d="M69.8,80.37v10.59c0,.77-.62,1.38-1.38,1.38h-9.64c-.77,0-1.38,.62-1.38,1.38v9.48c0,.77-.62,1.38-1.38,1.38h-10.59c-.77,0-1.38-.62-1.38-1.38v-9.48c0-.77-.62-1.38-1.38-1.38h-9.31c-.77,0-1.38-.62-1.38-1.38v-10.59c0-.77,.62-1.38,1.38-1.38h9.31c.77,0,1.38-.62,1.38-1.38v-9.48c0-.77,.62-1.38,1.38-1.38h10.59c.77,0,1.38,.62,1.38,1.38v9.48c0,.77,.62,1.38,1.38,1.38h9.64c.77,0,1.38,.62,1.38,1.38Z"/><path class="cls-1" d="M125.62,153.67c-6.99,0-12.67-5.69-12.67-12.67s5.69-12.67,12.67-12.67,12.67,5.69,12.67,12.67-5.69,12.67-12.67,12.67Zm0-23.35c-5.89,0-10.67,4.79-10.67,10.67s4.79,10.67,10.67,10.67,10.67-4.79,10.67-10.67-4.79-10.67-10.67-10.67Z"/><circle class="cls-1" cx="125.62" cy="141" r="23.76"/><path class="cls-1" d="M84.91,71.38c-.53,0-.97-.41-1-.94l-2.62-46.82c-.03-.55,.39-1.02,.94-1.05,.56-.03,1.02,.39,1.05,.94l2.62,46.82c.03,.55-.39,1.02-.94,1.05-.02,0-.04,0-.06,0Z"/><path class="cls-1" d="M162.79,71.53s-.08,0-.12,0c-.55-.07-.94-.57-.87-1.12l5.8-46.63c.07-.55,.57-.94,1.12-.87,.55,.07,.94,.57,.87,1.12l-5.8,46.63c-.06,.51-.49,.88-.99,.88Z"/><path class="cls-1" d="M84.91,71.38c-.43,0-.83-.29-.96-.72l-10.69-37.14c-.15-.53,.15-1.08,.68-1.24,.53-.15,1.09,.15,1.24,.68l10.69,37.14c.15,.53-.15,1.08-.68,1.24-.09,.03-.19,.04-.28,.04Z"/><path class="cls-1" d="M162.79,71.53c-.13,0-.25-.02-.38-.07-.51-.21-.76-.79-.55-1.3l14.56-35.63c.21-.51,.79-.75,1.3-.55,.51,.21,.76,.79,.55,1.3l-14.56,35.63c-.16,.39-.53,.62-.93,.62Z"/><path class="cls-1" d="M31.93,47.81h-2v-5.86l.16-.25c.23-.36,6.19-8.92,47.2-13.15l.21,1.99c-36.12,3.73-44.39,10.84-45.56,12.07v5.21Z"/><path class="cls-1" d="M222.52,48.98l-1.95-.43,1.04-4.71c-1.38-1.57-10.25-9.65-48.17-13.31l.19-1.99c43.4,4.19,49.68,14.14,49.92,14.56l.2,.34-1.22,5.54Z"/><rect class="cls-2" x="100.8" y="37.07" width="46.1" height="11.7" rx="2.01" ry="2.01"/><path class="cls-1" d="M205.46,94.85c-8.99,0-16.31-7.31-16.31-16.31s7.31-16.31,16.31-16.31,16.31,7.31,16.31,16.31-7.31,16.31-16.31,16.31Zm0-31.61c-8.44,0-15.31,6.87-15.31,15.31s6.87,15.31,15.31,15.31,15.31-6.87,15.31-15.31-6.87-15.31-15.31-15.31Z"/></svg>