<?xml version="1.0" encoding="UTF-8"?><svg id="pc" xmlns="http://www.w3.org/2000/svg" width="250" height="250" viewBox="0 0 250 250"><defs><style>.cls-1{fill:#1d1d1b;}</style></defs><path class="cls-1" d="M51.77,153.81c-2.94,0-5.33-2.38-5.33-5.31s2.39-5.33,5.33-5.33,5.33,2.39,5.33,5.33-2.39,5.31-5.33,5.31Zm0-9.64c-2.38,0-4.33,1.94-4.33,4.33s1.94,4.31,4.33,4.31,4.33-1.94,4.33-4.31-1.94-4.33-4.33-4.33Z"/><path class="cls-1" d="M18.78,70.11v109.77c0,2.01,1.63,3.65,3.65,3.65h58.67c2.01,0,3.65-1.63,3.65-3.65V70.11c0-2.01-1.63-3.65-3.65-3.65H22.43c-2.01,0-3.65,1.63-3.65,3.65Zm34.77,87.44c-6.51,1.22-12.08-4.39-10.84-10.89,.7-3.63,3.62-6.55,7.25-7.24,6.5-1.23,12.1,4.37,10.86,10.88-.69,3.64-3.63,6.57-7.27,7.25Z"/><path class="cls-1" d="M175.68,166.37h-30.16c-1.06,0-2-.55-2.52-1.48-.52-.92-.5-2.02,.05-2.92l5.67-9.27v-8.55h-47.97c-2.96,0-5.37-2.41-5.37-5.37V70.83c0-2.96,2.41-5.37,5.37-5.37h122.03c2.96,0,5.37,2.41,5.37,5.37v67.94c0,2.96-2.41,5.37-5.37,5.37h-50.3v8.55l5.67,9.28c.55,.9,.57,2,.05,2.92-.52,.92-1.46,1.48-2.52,1.48ZM100.75,67.47c-1.86,0-3.37,1.51-3.37,3.37v67.94c0,1.86,1.51,3.37,3.37,3.37h48.97c.55,0,1,.45,1,1v9.83c0,.18-.05,.36-.15,.52l-5.82,9.51c-.25,.4-.09,.76-.02,.9,.08,.14,.31,.46,.78,.46h30.16c.47,0,.7-.32,.78-.46,.08-.14,.23-.5-.02-.9l-5.82-9.52c-.1-.16-.15-.34-.15-.52v-9.83c0-.55,.45-1,1-1h51.3c1.86,0,3.37-1.51,3.37-3.37V70.83c0-1.86-1.51-3.37-3.37-3.37H100.75Z"/><path class="cls-1" d="M231.22,184.53H92.6c-.55,0-1-.45-1-1v-4.23c0-3.67,2.98-6.65,6.65-6.65h125.83c4.49,0,8.14,3.65,8.14,8.14v2.74c0,.55-.45,1-1,1Zm-137.62-2H230.22v-1.74c0-3.39-2.75-6.14-6.14-6.14H98.25c-2.56,0-4.65,2.08-4.65,4.65v3.23Z"/><path class="cls-1" d="M51.77,154.31c-3.21,0-5.83-2.61-5.83-5.81s2.61-5.83,5.83-5.83,5.83,2.61,5.83,5.83-2.61,5.81-5.83,5.81Zm0-9.64c-2.11,0-3.83,1.72-3.83,3.83s1.72,3.81,3.83,3.81,3.83-1.71,3.83-3.81-1.72-3.83-3.83-3.83Z"/><path class="cls-1" d="M51.77,153.81c-2.94,0-5.33-2.38-5.33-5.31s2.39-5.33,5.33-5.33,5.33,2.39,5.33,5.33-2.39,5.31-5.33,5.31Zm0-9.64c-2.38,0-4.33,1.94-4.33,4.33s1.94,4.31,4.33,4.31,4.33-1.94,4.33-4.31-1.94-4.33-4.33-4.33Z"/><path class="cls-1" d="M51.77,147.13c-.55,0-1-.45-1-1v-3.65c0-.55,.45-1,1-1s1,.45,1,1v3.65c0,.55-.45,1-1,1Z"/><rect class="cls-1" x="99.79" y="70.44" width="123.36" height="66.57" rx="1.13" ry="1.13"/></svg>