<?xml version="1.0" encoding="UTF-8"?><svg id="playstation" xmlns="http://www.w3.org/2000/svg" width="250" height="250" viewBox="0 0 250 250"><defs><style>.cls-1{fill:#1d1d1b;}.cls-2{fill:#b9b9b9;}</style></defs><circle class="cls-2" cx="200.25" cy="111.48" r="8.36"/><circle class="cls-2" cx="218.55" cy="93.4" r="8.36"/><circle class="cls-2" cx="182.15" cy="93.4" r="8.36" transform="translate(60.78 258.24) rotate(-80.78)"/><circle class="cls-2" cx="199.81" cy="75.99" r="8.36"/><path class="cls-1" d="M89.83,154.51c-13.34,0-24.19-10.85-24.19-24.19s10.85-24.19,24.19-24.19,24.19,10.85,24.19,24.19-10.85,24.19-24.19,24.19Zm0-47.38c-12.79,0-23.19,10.4-23.19,23.19s10.4,23.19,23.19,23.19,23.19-10.4,23.19-23.19-10.4-23.19-23.19-23.19Z"/><path class="cls-1" d="M29.62,201.18c-9.83,0-17.76-7.95-21.07-15.59-3.73-8.63-3.66-18.37-3.03-27.62,.68-9.84,1.92-19.71,3.7-29.36,2.21-12.03,4.79-22.24,8.35-33.09l1.9,.62c-3.53,10.76-6.08,20.89-8.28,32.83-1.77,9.57-3,19.38-3.68,29.14-.62,8.99-.7,18.45,2.87,26.69,3.15,7.29,10.83,14.9,20.16,14.36,6.99-.4,13.91-5.49,18.51-13.61,2.53-4.47,4.3-9.44,6.01-14.25,1.03-2.89,2.09-5.89,3.32-8.77,.67-1.58,1.35-3.54,2.08-5.61,1.96-5.62,4.19-12,7.74-16.02l1.5,1.32c-3.29,3.73-5.45,9.91-7.35,15.36-.74,2.11-1.43,4.1-2.13,5.74-1.2,2.83-2.25,5.79-3.27,8.65-1.74,4.89-3.53,9.95-6.15,14.57-4.94,8.72-12.47,14.18-20.14,14.62-.35,.02-.7,.03-1.04,.03Z"/><path class="cls-1" d="M28.21,71.23l-1.89-.65c1.77-5.17,4.05-10.91,7.57-14.19,4.75-4.45,14.83-3.19,21.51-2.35,1.05,.13,2.02,.25,2.88,.34l4.64,.47c7.43,.76,15.11,1.54,22.68,2.23l-.18,1.99c-7.58-.69-15.27-1.47-22.7-2.23l-4.64-.47c-.87-.09-1.85-.21-2.92-.35-6.3-.79-15.82-1.98-19.89,1.83-3.19,2.99-5.35,8.44-7.04,13.38Z"/><path class="cls-1" d="M222.07,71.45c-3.5-6.28-9.21-14.25-16.56-16.61-7.77-2.49-16.23-.62-24.41,1.19-.91,.2-1.81,.4-2.71,.59-4.57,.98-9.32,1.82-14.12,2.49l-.28-1.98c4.76-.67,9.46-1.5,13.98-2.47,.9-.19,1.8-.39,2.7-.59,8.44-1.87,17.17-3.8,25.45-1.15,7.98,2.56,14.03,10.95,17.7,17.54l-1.75,.97Z"/><path class="cls-1" d="M219.22,199.2c-1.11,0-2.24-.1-3.37-.31-9.2-1.72-16.4-9.85-21.98-24.84-.76-2.03-1.51-4.38-2.31-6.86-2.78-8.63-6.23-19.37-12.14-23.73l1.19-1.61c6.43,4.75,10,15.83,12.86,24.73,.79,2.46,1.54,4.79,2.28,6.78,5.32,14.28,12.02,21.99,20.48,23.57,9.51,1.78,18.51-5.21,22.47-13.03,4.51-8.89,4.42-19.63,3.83-27.99-1.48-21.12-6.25-40.46-12.32-63.54l1.93-.51c6.11,23.19,10.9,42.61,12.39,63.91,.6,8.62,.69,19.71-4.04,29.04-3.84,7.56-12.08,14.4-21.25,14.4Z"/><path class="cls-1" d="M137.07,138.14c-8.05-.12-16.1-.24-24.15-.35h-.32s.03-2,.03-2h.32c8.05,.12,16.1,.23,24.15,.35l-.03,2Z"/><path class="cls-1" d="M159.77,154.51c-13.34,0-24.19-10.85-24.19-24.19s10.85-24.19,24.19-24.19,24.19,10.85,24.19,24.19-10.85,24.19-24.19,24.19Zm0-47.38c-12.79,0-23.19,10.4-23.19,23.19s10.4,23.19,23.19,23.19,23.19-10.4,23.19-23.19-10.4-23.19-23.19-23.19Z"/><path class="cls-1" d="M160.36,102.57H89.25c-2.62,0-4.76-2.13-4.76-4.76V59.78c0-2.62,2.13-4.76,4.76-4.76h71.11c2.62,0,4.76,2.13,4.76,4.76v38.04c0,2.62-2.13,4.76-4.76,4.76ZM89.25,57.02c-1.52,0-2.76,1.24-2.76,2.76v38.04c0,1.52,1.24,2.76,2.76,2.76h71.11c1.52,0,2.76-1.24,2.76-2.76V59.78c0-1.52-1.24-2.76-2.76-2.76H89.25Z"/><path class="cls-1" d="M199.81,124.49c-17.84,0-32.36-14.51-32.36-32.36s14.52-32.36,32.36-32.36c10.76,0,20.79,5.33,26.82,14.24l-1.66,1.12c-5.66-8.37-15.06-13.36-25.16-13.36-16.74,0-30.36,13.62-30.36,30.36s13.62,30.36,30.36,30.36,30.36-13.62,30.36-30.36c0-6.08-1.8-11.96-5.2-16.98l1.66-1.12c3.62,5.36,5.54,11.62,5.54,18.1,0,17.84-14.52,32.36-32.36,32.36Z"/><path class="cls-1" d="M17.53,95.93c-.1-1.04-.15-2.1-.15-3.15,0-8.48,3.25-16.49,9.16-22.56l1.43,1.39c-5.54,5.69-8.59,13.21-8.59,21.16,0,.99,.05,1.99,.14,2.97l-1.99,.19Z"/><path class="cls-1" d="M49.73,125.13c-16.75,0-30.59-12.55-32.2-29.2l1.99-.19c1.51,15.62,14.5,27.39,30.21,27.39,16.74,0,30.36-13.62,30.36-30.36s-13.62-30.36-30.36-30.36c-8.27,0-16,3.26-21.75,9.19l-1.44-1.39c6.13-6.32,14.37-9.8,23.19-9.8,17.84,0,32.36,14.52,32.36,32.36s-14.52,32.36-32.36,32.36Z"/><path class="cls-1" d="M67.61,56.31h-1v-4.52c0-.58-.47-1.05-1.05-1.05h-20.12c-.31,0-.56,.25-.56,.56v2.93h-1v-2.93c0-.86,.7-1.56,1.56-1.56h20.12c1.13,0,2.05,.92,2.05,2.05v4.52Z"/><path class="cls-1" d="M181.81,54.96h-1v-3.76c0-1.04,.84-1.88,1.88-1.88h22.96c1.19,0,2.16,.97,2.16,2.16v2.94h-1v-2.94c0-.64-.52-1.16-1.16-1.16h-22.96c-.49,0-.88,.4-.88,.88v3.76Z"/><circle class="cls-2" cx="125.72" cy="126.65" r="5.17"/><circle class="cls-1" cx="89.83" cy="130.32" r="14.81"/><circle class="cls-1" cx="159.77" cy="130.32" r="14.81"/><path class="cls-1" d="M56.79,103.51v7.64c0,1.11-.9,2-2,2h-8.41c-1.11,0-2-.9-2-2v-7.64c0-.55,.23-1.08,.63-1.46l2.47-2.33,1.74-1.63c.77-.72,1.97-.72,2.74,0l1.73,1.63,2.47,2.33c.4,.38,.63,.91,.63,1.46h.02Z"/><path class="cls-1" d="M44.39,81.49v-7.64c0-1.11,.9-2,2-2h8.41c1.11,0,2,.9,2,2v7.64c0,.55-.23,1.08-.63,1.46l-2.47,2.33-1.74,1.63c-.77,.72-1.97,.72-2.74,0l-1.73-1.63-2.47-2.33c-.4-.38-.63-.91-.63-1.46h-.02Z"/><path class="cls-1" d="M38.73,98.97h-7.64c-1.11,0-2-.9-2-2v-8.41c0-1.11,.9-2,2-2h7.64c.55,0,1.08,.23,1.46,.63l2.33,2.47,1.63,1.74c.72,.77,.72,1.97,0,2.74l-1.63,1.73-2.33,2.47c-.38,.4-.91,.63-1.46,.63v.02Z"/><path class="cls-1" d="M60.75,86.58h7.64c1.11,0,2,.9,2,2v8.41c0,1.11-.9,2-2,2h-7.64c-.55,0-1.08-.23-1.46-.63l-2.33-2.47-1.63-1.74c-.72-.77-.72-1.97,0-2.74l1.63-1.73,2.33-2.47c.38-.4,.91-.63,1.46-.63v-.02Z"/><rect class="cls-1" x="176.97" y="88.15" width="10.35" height="10.35" rx="3.05" ry="3.05"/><circle class="cls-1" cx="218.55" cy="93.4" r="6.16"/><path class="cls-1" d="M199.81,79.84h-4.65c-.85,0-1.37-.92-.95-1.65l2.33-4.02,2.33-4.02c.42-.73,1.48-.73,1.9,0l2.33,4.02,2.33,4.02c.42,.73-.1,1.65-.95,1.65h-4.64Z"/><g><path class="cls-1" d="M204.87,117.84c-.4,0-.79-.16-1.09-.47l-9.22-9.72c-.57-.6-.54-1.55,.06-2.12,.6-.57,1.55-.54,2.12,.06l9.22,9.72c.57,.6,.54,1.55-.06,2.12-.29,.28-.66,.41-1.03,.41Z"/><path class="cls-1" d="M195.65,117.84c-.37,0-.74-.14-1.03-.41-.6-.57-.63-1.52-.06-2.12l9.22-9.72c.57-.6,1.52-.63,2.12-.06,.6,.57,.63,1.52,.06,2.12l-9.22,9.72c-.29,.31-.69,.47-1.09,.47Z"/></g></svg>