<?xml version="1.0" encoding="UTF-8"?><svg id="skylanders" xmlns="http://www.w3.org/2000/svg" width="250" height="250" viewBox="0 0 250 250"><defs><style>.cls-1{fill:#1d1d1b;}</style></defs><path class="cls-1" d="M120.76,101.68h-.02c-.67,0-1.32-.33-1.94-.97-1.63-1.68-2.62-5.16-2.78-5.77-.61-.9-6.98-10.24-11.17-14.43-3.21-3.21-7.77-10.24-10.22-14.17-.01-.01-.02-.03-.03-.04h0c-.96-1.55-1.57-2.56-1.57-2.56-.1-.12-3.16-4.14-4.79-12.63-.3-.78-.45-1.71-.41-2.6,.03-.77,.19-1.52,.47-2.24-.88-6.11,6.87-25.85,14.64-28.19,7.41-2.22,12.43-3.97,12.48-3.99,1.43-.22,2.52,.21,3.33,1.24,4.31,5.47-1.26,27.59-1.7,28.69-.09,.21-.31,.34-.54,.31l-5.39-.78c-1.27,.42-4.4,1.67-5.26,3.04-1.13,1.81-3.03,10.88-1.22,12.53,.34,.31,.95,.92,1.77,1.72l.49,.49c3.6,3.58,13.16,13.08,18.25,14.6,6.65,1.99,3.92,14.39,3.8,14.92,0,.03-.02,.06-.03,.08-.11,.25-2.66,6.24-6.22,9.79-.63,.63-1.29,.95-1.96,.95Zm-25.33-35.95s.02,.03,.03,.05c1.95,3.13,6.84,10.76,10.1,14.03,4.45,4.45,11.06,14.24,11.34,14.65,.03,.05,.06,.1,.07,.16,0,.04,.99,3.79,2.55,5.41,.42,.44,.84,.66,1.23,.66h0c.4,0,.82-.22,1.26-.66,3.26-3.26,5.75-8.9,5.98-9.44,.17-.79,2.46-12.03-3.12-13.7-4.73-1.42-12.46-8.68-18.67-14.85l-.49-.49c-.8-.79-1.4-1.39-1.73-1.69-2.39-2.17-.2-11.81,1.04-13.8,1.26-2.01,5.72-3.44,5.91-3.5,.07-.02,.15-.03,.22-.02l5.08,.73c.86-3.07,5.4-22.67,1.73-27.33-.58-.74-1.34-1.03-2.31-.89h0s-5.01,1.75-12.43,3.98c-7.26,2.18-14.88,21.65-13.92,27.2,.02,.09,0,.19-.03,.28-.27,.65-.42,1.33-.45,2.03-.03,.77,.1,1.56,.37,2.29,1.6,8.31,4.62,12.29,4.65,12.33,.03,.05,.63,1.04,1.57,2.56Zm33.05,25.01h0Z"/><path class="cls-1" d="M148.28,98.07c-4.63,0-9.92-.51-14.32-2.66-.17-.08-4.62-2.09-5.93-4.42-.14-.24-.05-.55,.19-.68,.24-.14,.54-.05,.68,.19,1.15,2.05,5.44,3.98,5.48,4,6.56,3.21,15.3,2.64,20.53,2.3,.85-.06,1.6-.1,2.21-.13,2.16-.08,3.66-.58,4.53-.98,.02,0,.04-.02,.06-.02,.85-.4,1.26-.77,1.27-.77,1.76-1.24-.21-7.19-1.86-10.65-1.26-3.66-3.14-5.75-4.15-6.68-.2-.19-.22-.5-.03-.71,.19-.2,.5-.22,.71-.03,1.32,1.21,3.16,3.41,4.4,7.04,.45,.94,4.51,9.73,1.56,11.81h0s-.5,.45-1.52,.92c-.02,0-.04,.02-.06,.02-.96,.43-2.58,.96-4.86,1.05-.6,.02-1.34,.07-2.18,.12-1.87,.12-4.19,.27-6.7,.27Z"/><path class="cls-1" d="M167.54,43.81c-1.58,0-3.31-.99-4.98-2.88-1.95-2.21-3.61-5.41-4.68-9.01s-1.42-7.19-.99-10.1c.45-3.05,1.71-5.02,3.55-5.57,.46-.14,.94-.18,1.44-.12,3.49,.37,7.29,5.25,9.26,11.87h0c1.07,3.6,1.42,7.19,.99,10.1-.45,3.05-1.71,5.02-3.55,5.57-.33,.1-.68,.15-1.03,.15Zm-6.07-26.71c-.26,0-.51,.04-.74,.11-1.42,.42-2.46,2.16-2.85,4.76-.41,2.77-.07,6.21,.96,9.67,1.03,3.47,2.62,6.53,4.47,8.63,1.74,1.97,3.56,2.86,4.98,2.44,1.42-.42,2.46-2.16,2.85-4.76,.41-2.77,.07-6.21-.96-9.67-1.79-6.04-5.4-10.84-8.4-11.16-.1-.01-.21-.02-.31-.02Z"/><path class="cls-1" d="M163.06,96.72c-.4,0-.82-.03-1.25-.08-.28,0-.47-.22-.47-.5s.25-.5,.53-.5h0c2.12,.28,3.73-.25,4.72-.74,.25-.12,.55-.02,.67,.23,.12,.25,.02,.55-.23,.67-.91,.45-2.27,.92-3.98,.92Z"/><path class="cls-1" d="M184.08,78.23c-.11,0-.22-.03-.31-.11-.22-.17-.26-.48-.09-.7,4.57-5.84,7.38-10.39,7.41-10.44,1.98-2.72,.17-14.33-.7-18.58-.02-.14-.89-8.62-7.51-17.62-6.59-8.93-14.36-10.4-14.44-10.41-.12-.02-.22-.08-.3-.17-.03-.04-3.47-4.15-6.73-3.13-.26,.08-.54-.06-.63-.33-.08-.26,.06-.54,.33-.63,3.57-1.13,7,2.52,7.69,3.31,1.27,.27,8.54,2.15,14.89,10.77,6.79,9.24,7.66,17.71,7.69,18.07,.12,.59,3.16,15.69,.54,19.28,0,.01-2.85,4.61-7.45,10.5-.1,.13-.25,.19-.39,.19Z"/><g><path class="cls-1" d="M176.12,68.31c-1.95,1.89-7.52,6.78-14.86,8.88,0,0-.56,.41-3.95,0-.58-.53-.96-.76-.96-.76l-5.69-.79-14.41-.95h-7.15c-1.08,0-3.77-.52-4.09,1.73-5.06-1.52-14.08-10.37-18.46-14.73,0,0,1.37-1.46,4.05-.46,0,0,1.1-1.08,2.2,.06,0,0,1-1.78,3.7-.52,0,0,27.75,8.34,28.11,10.14,.36,1.8,2.75,.5,2.75,.5l5.59-9.68s.81-2.19,3.65-1.18c0,0,18.85,5.18,19.53,7.77Z"/><path class="cls-1" d="M159.84,77.87c-.62,0-1.46-.05-2.58-.19l-.16-.02-.12-.11c-.39-.35-.67-.56-.81-.66l-5.58-.78-14.37-.95h-7.11c-.16,0-.35,0-.57-.02-1.54-.09-2.83-.05-3.03,1.32l-.08,.58-.56-.17c-4.73-1.42-12.46-8.68-18.67-14.85l-.34-.34,.33-.35c.06-.07,1.54-1.59,4.32-.68,.25-.18,.68-.4,1.2-.4,0,0,.02,0,.03,0,.36,0,.69,.11,1,.32,.57-.55,1.83-1.27,3.97-.27,10.4,3.12,28.02,8.68,28.38,10.5,.07,.34,.21,.44,.31,.49,.39,.19,1.14-.05,1.59-.27l5.52-9.55h0s1.01-2.55,4.25-1.4c3.16,.87,19.13,5.38,19.84,8.11l.07,.28-.21,.2c-2.07,2-7.66,6.87-15.02,8.99-.21,.1-.66,.22-1.61,.22Zm-2.31-1.16c2.82,.33,3.46,.06,3.49,.04l.07-.05h.04c6.87-1.96,12.18-6.42,14.39-8.5-1.23-1.56-10.38-4.8-19.05-7.18-2.31-.82-2.98,.7-3.05,.87l-5.7,9.88-.12,.07c-.16,.09-1.59,.83-2.62,.35-.32-.15-.72-.48-.87-1.2-.79-1.13-14.9-5.9-27.76-9.76-2.32-1.08-3.11,.27-3.12,.28l-.33,.59-.47-.49c-.68-.71-1.31-.21-1.49-.04l-.23,.21-.3-.11c-1.56-.58-2.59-.25-3.12,.05,3.74,3.71,12.34,12.14,17.34,14.03,.64-1.78,2.83-1.66,3.93-1.6,.19,.01,.37,.02,.51,.02h7.15l14.44,.95,5.93,.87s.37,.23,.91,.71Z"/></g><path class="cls-1" d="M176.12,68.81c-.13,0-.26-.05-.36-.15-.19-.2-.19-.51,0-.71,.35-.34,.58-.58,.68-.68,3.9-9.23-2.76-17.64-2.83-17.73-2.06-2.91-4.86-3.03-4.89-3.03-.12,0-.24-.05-.32-.13l-4.24-3.92c-.2-.19-.22-.5-.03-.71s.5-.21,.71-.03l4.12,3.8c.75,.08,3.43,.55,5.46,3.41,.05,.06,7.13,9,2.92,18.8-.02,.05-.05,.1-.09,.14,0,0-.27,.29-.77,.78-.1,.09-.22,.14-.35,.14Zm.75-1.26h0Z"/><g><path class="cls-1" d="M127.72,96.22c.31-.26,13.52,4.96,13.52,4.96,0,0-1.47,4.21-9.64,3.16s-3.88-8.12-3.88-8.12Z"/><path class="cls-1" d="M134.08,105.01c-.77,0-1.62-.05-2.55-.17-2.58-.33-4.27-1.29-5.02-2.84-1.26-2.62,.7-5.9,.78-6.04,.03-.05,.07-.09,.11-.12,.28-.23,.54-.45,14.02,4.88,.25,.1,.38,.38,.29,.63-.06,.17-1.36,3.67-7.62,3.67Zm-6.09-8.25c-.41,.79-1.42,3.06-.58,4.81,.59,1.23,2.02,2,4.25,2.28,6.13,.79,8.26-1.43,8.88-2.4-4.44-1.75-11.07-4.29-12.55-4.69Z"/></g><g><path class="cls-1" d="M156.43,102.46s6.08-1.78,9.01-4.09c0,0,2.31,4.3-1.78,7.86-4.09,3.56-7.23-3.77-7.23-3.77Z"/><path class="cls-1" d="M161.4,107.71c-.24,0-.49-.03-.74-.08-2.8-.64-4.61-4.79-4.69-4.97-.06-.13-.05-.28,0-.41,.06-.13,.17-.23,.31-.27,.06-.02,6.02-1.78,8.85-4,.12-.09,.27-.12,.41-.1,.14,.03,.27,.12,.34,.25,.02,.05,2.44,4.69-1.89,8.47-.84,.73-1.71,1.1-2.59,1.1Zm-4.26-4.94c.54,1.06,1.95,3.47,3.75,3.88,.82,.19,1.62-.07,2.45-.79,2.95-2.57,2.33-5.51,1.9-6.71-2.55,1.77-6.61,3.15-8.1,3.62Z"/></g><path class="cls-1" d="M151.47,103.35c-5.93,0-10.2-1.62-10.42-1.7-.26-.1-.39-.39-.29-.65s.39-.38,.65-.29c.07,.03,6.8,2.57,14.94,1.25,.27-.05,.53,.14,.57,.41,.04,.27-.14,.53-.41,.57-1.77,.29-3.46,.4-5.04,.4Z"/><g><path class="cls-1" d="M127.61,107.25c.03-.26,.28-.43,.53-.36,1.77,.53,8.56,2.39,13.09,1.12,5.03-1.41,12.37,.28,12.96,.42,.03,0,.05,.01,.07,.02,.38,.18,4.09,1.84,7.29,.23,.24-.12,.53-.01,.6,.25,.23,.87,.39,2.67-1.95,3.37-3.14,.94-9.22,1.36-9.22,1.36l-6.84,.79c-.21,.02-.4,.12-.58,.23-.41,.26-1.6,.43-4.53-2.49,0,0-.73-1.15-2.73,.31s-3.46,0-3.46,0c0,0-1.63-.73-3.75-2.2-1.49-1.03-1.57-2.36-1.49-3.07Z"/><path class="cls-1" d="M143.05,115.34c-1.05,0-2.51-.93-4.37-2.78-.03-.03-.05-.05-.07-.09h0s-.12-.15-.38-.19c-.29-.05-.81,.03-1.63,.64-1.78,1.32-3.38,.62-4.04,.02-.36-.17-1.85-.9-3.75-2.21-1.7-1.18-1.8-2.72-1.7-3.54,.03-.27,.18-.52,.41-.67,.23-.15,.5-.19,.76-.11,1.9,.57,8.46,2.34,12.81,1.12,5.1-1.43,12.39,.23,13.21,.42,.03,0,.13,.04,.16,.06,.39,.18,3.89,1.73,6.86,.23,.26-.13,.55-.14,.81-.02,.25,.11,.43,.33,.5,.59,.51,1.91-.35,3.4-2.29,3.98-3.16,.95-9.08,1.37-9.33,1.38l-6.82,.79c-.1,.01-.21,.06-.36,.16-.23,.15-.49,.22-.78,.22Zm-3.63-3.46c2.96,2.94,3.84,2.42,3.88,2.4,.18-.12,.45-.27,.79-.31l6.84-.79c.08,0,6.08-.43,9.14-1.34,1.73-.52,1.86-1.71,1.64-2.66-3.37,1.64-7.22-.06-7.65-.26-.29-.07-7.74-1.8-12.68-.42-4.54,1.27-11.18-.48-13.27-1.1-.06,.72,.13,1.71,1.29,2.51,2.05,1.42,3.65,2.15,3.67,2.16,.06,.03,.11,.06,.15,.1,.12,.12,1.23,1.12,2.81-.05,.91-.67,1.73-.94,2.43-.81,.56,.1,.86,.43,.97,.57Zm-11.8-4.63h0Z"/></g><g><path class="cls-1" d="M196.7,212.52s0,.05,0,.07c-1.02,9.49-28.91,13.23-33.34,12.6-4.44-.64-38.34,5.57-38.34,5.57,0,0-14.8,1.9-39.41,.39-24.6-1.53-30.54-14.21-30.54-14.21-1.71-8.9,2.52-12.92,2.01-14.79-.58-2.1,3.82-8.98,3.82-8.98,8.32,15.32,12.77,4.3,12.77,4.3,.8-.93,1.79-.13,1.79-.13,8.2,10.31,11.96-1.48,11.96-1.48,9.32,8.33,8.51-3.45,8.51-3.45,3.02-.56,8.82-6.53,9.56-7.28,.29-.29,.38-1.43,.38-2.71,0-1.92-.2-4.14-.2-4.14,.69,.48,1.5,.74,2.34,.72l1.98-.04s4.32-.74,6.11-1.41c1.05-.4,1.79-.14,2.23,.13,.66,.42,1.35,.8,2.1,.98,.86,.21,1.57-.02,2.14-.31,.62-.32,1.78-.74,2.76-1.07,1.07-.36,2.22-.46,3.34-.29l3.76,.56s.44,.21,1.98-.03c2.07-.32,5.32,0,5.32,0l-.19,4.39c-1.73,6.49,5.06,7.25,5.06,7.25,3.91,6.11,11.83,5.35,11.83,5.35,14.03,10.31,11.16,0,11.16,0,13.93,7.45,12.6-2.29,12.6-2.29,5.73,4.21,7.26-1.14,7.26-1.14,1.9-.58,8.78,10.88,8.78,10.88,0,0,.93,4.26,.46,10.57Z"/><path class="cls-1" d="M104.05,232.23c-5.31,0-11.51-.15-18.47-.58-24.61-1.53-30.71-13.97-30.96-14.5l-.04-.12c-1.17-6.12,.43-10.08,1.38-12.44,.42-1.04,.76-1.87,.63-2.32-.62-2.25,3.42-8.65,3.88-9.38l.46-.71,.4,.75c2.87,5.28,5.62,8,7.96,7.87,2.5-.14,3.89-3.49,3.9-3.52l.08-.14c.82-.96,1.94-.64,2.49-.2l.08,.08c2.38,3,4.56,4.33,6.49,3.98,3.06-.56,4.59-5.25,4.61-5.3l.23-.73,.58,.51c2.63,2.36,4.68,3.28,5.93,2.67,1.69-.83,1.83-4.41,1.75-5.72l-.03-.44,.44-.08c1.01-.19,3.55-1.34,9.15-6.99l.15-.15s.23-.38,.23-2.35-.19-4.07-.2-4.09l-.1-1.07,.88,.61c.61,.43,1.31,.64,2.04,.63l1.98-.04s4.22-.73,5.94-1.38c1.23-.46,2.13-.16,2.67,.17,.56,.36,1.22,.75,1.96,.92,.6,.14,1.15,.06,1.8-.27,.52-.27,1.48-.64,2.83-1.09,1.15-.38,2.39-.49,3.57-.31l3.9,.6h0s.45,.12,1.69-.07c2.11-.33,5.31-.02,5.44,0l.47,.05-.23,4.97c-.46,1.74-.31,3.19,.45,4.31,1.34,1.97,4.16,2.31,4.19,2.32l.24,.03,.13,.2c3.7,5.77,11.29,5.13,11.36,5.12l.19-.02,.15,.11c6.73,4.95,9.08,4.76,9.88,4.21,1.04-.72,.72-2.89,.5-3.67l-.31-1.12,1.03,.55c6.33,3.38,9.19,3.03,10.47,2.14,1.73-1.2,1.4-3.89,1.39-3.92l-.16-1.16,.95,.69c1.8,1.32,3.31,1.78,4.49,1.38,1.48-.51,1.99-2.23,1.99-2.25l.08-.26,.26-.08c2.06-.61,7.22,7.56,9.35,11.1l.06,.15c.04,.18,.94,4.4,.47,10.7l-.02,.15c-.21,1.82-1.34,3.54-3.36,5.11-7.99,6.21-27.21,8.35-30.55,7.88-4.31-.62-37.84,5.51-38.17,5.57-.12,.02-7.8,.98-21.06,.98Zm-48.5-15.45c.45,.87,6.91,12.43,30.09,13.87,24.28,1.5,39.17-.36,39.31-.38,1.36-.25,34-6.22,38.47-5.57,3.51,.5,22.34-1.89,29.79-7.68,1.81-1.41,2.81-2.91,2.98-4.48v-.09c.43-5.67-.31-9.7-.43-10.3-3.31-5.51-6.8-10.11-7.96-10.55-.27,.67-1,2.04-2.5,2.55-1.31,.45-2.84,.13-4.58-.96-.05,1.1-.38,2.82-1.84,3.84-2.08,1.45-5.64,.91-10.6-1.59,.14,1.13,.12,2.87-1.09,3.71-1.82,1.25-5.38-.09-10.9-4.12-1.28,.08-8.22,.24-11.98-5.4-.79-.13-3.29-.7-4.66-2.71-.93-1.36-1.13-3.07-.6-5.08l.17-3.86c-.96-.07-3.19-.2-4.72,.04-1.34,.21-1.94,.1-2.18,.02l-3.71-.55c-1.03-.16-2.11-.06-3.11,.27-1.3,.44-2.21,.79-2.69,1.04-.55,.28-1.4,.62-2.49,.35-.88-.21-1.67-.67-2.26-1.05-.5-.31-1.11-.34-1.79-.08-1.82,.69-6.02,1.41-6.2,1.44l-2.05,.04c-.61,.02-1.21-.1-1.78-.33,.06,.83,.13,2.1,.13,3.26,0,2.23-.25,2.79-.52,3.06l-.14,.14c-2.87,2.9-6.73,6.4-9.26,7.17,.03,1.3-.09,5.17-2.32,6.26-1.59,.77-3.72,0-6.49-2.34-.6,1.47-2.24,4.75-5.12,5.28-2.3,.42-4.79-1.02-7.41-4.29-.17-.12-.62-.36-1.01,.04-.26,.59-1.82,3.89-4.73,4.06-2.67,.16-5.53-2.42-8.49-7.64-1.62,2.65-3.65,6.6-3.31,7.86,.21,.78-.16,1.69-.67,2.96-.97,2.4-2.44,6.01-1.34,11.81Z"/></g><path class="cls-1" d="M102.12,235.97c-10.2,0-18.38-.48-18.54-.49-1.04-.15-24.44-3.62-28.13-15.05-.38-1.17-.67-2.32-.87-3.4-.05-.25,.1-.49,.34-.57,.24-.08,.5,.04,.61,.26,.06,.12,6.15,12.43,30.12,13.92,24.28,1.5,39.17-.36,39.31-.38,1.36-.25,34-6.22,38.47-5.57,3.51,.5,22.34-1.89,29.79-7.68,1.81-1.41,2.81-2.91,2.98-4.48,.03-.27,.27-.46,.54-.44,.27,.03,.47,.26,.45,.54-.11,1.37-.26,2.65-.46,3.92-1.43,8.97-16.94,11.68-17.1,11.68-.23,0-30.53,1.84-47.62,5.52-8.21,1.77-20,2.23-29.9,2.23Zm-45.88-16.37c.05,.17,.11,.34,.16,.52,3.49,10.84,27.04,14.33,27.28,14.37,.27,.02,31.58,1.85,48.12-1.72,16.92-3.65,47.61-5.55,47.83-5.55,1.4-.09,14.89-3.21,16.11-10.84,.03-.18,.06-.37,.08-.55-.52,.68-1.19,1.33-2,1.96-7.99,6.21-27.21,8.35-30.55,7.88-4.31-.62-37.84,5.51-38.17,5.57-.17,.02-15.16,1.9-39.53,.39-18.17-1.13-26.25-8.2-29.33-12.04Z"/><path class="cls-1" d="M139.73,178.02s-.04,0-.06,0c-.27-.03-.47-.28-.44-.56l1.14-9.39c.03-.27,.28-.47,.56-.44,.27,.03,.47,.28,.44,.56l-1.14,9.39c-.03,.25-.25,.44-.5,.44Z"/><path class="cls-1" d="M187.46,191.57s-.1,0-.15-.02c-.26-.08-.41-.36-.33-.62,.15-.49,.45-1.92,.05-2.6-.6-1.02-2.91-5.39-3.01-5.57-.02-.03-.03-.06-.04-.1l-2.88-10.18c-1.74-2.71-4.57-7.05-4.86-7.38-.13-.13-.2-.32-.29-.57-.3-.83-1.09-3.03-5.92-7.53-.05-.05-.09-.1-.12-.17-.01-.03-1.49-3.35-3.77-4.45-.25-.12-.35-.42-.24-.67s.42-.35,.67-.24c2.41,1.15,3.94,4.25,4.21,4.85,4.95,4.61,5.79,6.96,6.11,7.85,.04,.11,.06,.19,.1,.25,.32,.31,3.9,5.87,5,7.56,.03,.04,.05,.09,.06,.13l2.89,10.2c.25,.48,2.4,4.54,2.96,5.49,.7,1.18,.12,3.18,.05,3.4-.07,.21-.26,.35-.48,.35Z"/><path class="cls-1" d="M45.6,132.75c-2.22,0-4.25-.17-5.7-.62-.03-.01-.07-.03-.1-.04-.09-.05-9.1-5.36-6.61-15.33,2.13-8.54,4.02-12.4,4.5-13.29-.54-1.66-3.69-11.93-.24-14.87,1.26-1.07,3.18-1.05,5.72,.06-1.18-2.93-3.67-10.17-.71-13.09,2.02-1.99,5.87-1.58,11.79,1.22l2.59-2.22c.26-.89,1.63-5.2,4.35-5.76,1.44-.29,2.96,.49,4.52,2.35,1.84-.89,9.94-4.45,15.09-.98,.59-.77,1.96-2.28,3.66-2.35,1.15-.05,2.18,.55,3.1,1.77,1,1.31,1.89,3.41,2.62,6.23l9.35,14.25c1.29-.18,6-.67,8.71,1.26,1.04,.74,1.66,1.74,1.87,2.99h0s1.66,5.22-5.56,8.08l-2.65,8.6c-.02,.07-.06,.14-.11,.2-1.63,1.73-9.89,10.38-12.22,10.5-2.96,.11-7.95,.49-9.96,.65-1.06,.08-1.86,.15-2.22,.18-.78,.84-4.65,4.75-9.14,5.01-.69,.81-3.66,3.93-8.26,3.81-.79,.14-8.3,1.4-14.38,1.4Zm-5.35-1.56c5.33,1.62,19.46-.81,19.61-.83,.03,0,.06,0,.1,0,4.72,.16,7.61-3.57,7.64-3.6,.09-.12,.23-.19,.38-.2,4.58-.14,8.75-4.79,8.79-4.84,.08-.1,.2-.16,.33-.17,0,0,.97-.08,2.42-.2,2.01-.16,7.02-.54,10-.65,1.47-.07,7.77-6.2,11.46-10.1l2.69-8.72c.05-.15,.16-.27,.3-.32,6.61-2.51,5.19-6.95,5.17-6.99-.18-1.07-.66-1.83-1.48-2.42-2.75-1.96-8.23-1.05-8.29-1.04-.2,.03-.39-.05-.5-.22l-9.57-14.58s-.05-.1-.07-.15c-.71-2.74-1.54-4.74-2.47-5.96-.71-.94-1.47-1.41-2.27-1.37-1.71,.07-3.15,2.3-3.17,2.32-.08,.12-.2,.2-.34,.22-.14,.02-.28-.01-.39-.1-5.15-4-14.71,.9-14.8,.95-.21,.11-.48,.06-.62-.13-1.39-1.76-2.66-2.53-3.78-2.3-1.97,.41-3.29,3.89-3.63,5.19-.03,.1-.08,.19-.16,.25l-2.95,2.54c-.15,.13-.36,.16-.54,.07-5.5-2.65-9.28-3.19-10.95-1.55-3.18,3.13,1.4,13.1,1.45,13.2,.09,.2,.05,.43-.11,.57-.16,.15-.39,.18-.58,.08-2.75-1.46-4.71-1.72-5.82-.77-2.62,2.23-.45,10.86,.61,13.99,.05,.14,.03,.29-.04,.41-.02,.04-2.13,3.72-4.5,13.23-2.25,8.97,5.35,13.75,6.09,14.19Zm61.16-20.34h0Z"/><path class="cls-1" d="M74.28,89.32c-6.69,0-12.14-3.82-12.14-8.53s5.45-8.53,12.14-8.53,12.14,3.83,12.14,8.53-5.44,8.53-12.14,8.53Zm0-16.05c-6.14,0-11.14,3.38-11.14,7.53s5,7.53,11.14,7.53,11.14-3.38,11.14-7.53-5-7.53-11.14-7.53Z"/><path class="cls-1" d="M64.31,108.1c-.1,0-.2-.03-.29-.09l-.55-.4c-.08-.07-4.68-4.09-2.67-10.21,2.04-6.23,14.57-3.64,15.11-3.53,2.32,.12,8.85,.18,10.23-1.08,1.92-1.75,11.96-2.59,13.1-2.68,.28-.02,.52,.18,.54,.46s-.18,.52-.46,.54c-4.33,.34-11.24,1.27-12.5,2.43-1.94,1.78-10.11,1.38-11.04,1.33-.2-.03-12.26-2.52-14.02,2.86-1.79,5.47,2.17,8.97,2.34,9.11l.52,.37c.22,.16,.27,.47,.11,.7-.1,.14-.25,.21-.41,.21Z"/><path class="cls-1" d="M70.75,121.93c-1.64,0-3.34-.76-4.84-2.16-2.66-2.49-2.08-17.7-2-19.43,.01-.28,.25-.47,.52-.48,.28,.01,.49,.25,.48,.52-.29,6.59-.07,17,1.69,18.65,1.44,1.35,3.05,2.01,4.55,1.87,1.55-.14,3-1.11,4.3-2.88,.26-.67,2.99-8.11-1.62-18-.04-.05-2.01-2.88-5.69-2.6-.27,.02-.52-.18-.54-.46s.18-.52,.46-.54c4.27-.34,6.54,2.97,6.63,3.11,5.05,10.82,1.79,18.61,1.65,18.94-.02,.03-.03,.07-.06,.1-1.49,2.04-3.19,3.16-5.05,3.33-.16,.02-.32,.02-.49,.02Z"/><path class="cls-1" d="M90.79,112.14c-2.05,0-4.06-.77-4.18-.82-.04-.01-.07-.03-.1-.05-.31-.21-7.63-5.26-8.19-5.66-.22-.16-.28-.47-.12-.7,.16-.22,.47-.27,.7-.12,.53,.38,7.47,5.16,8.13,5.62,.45,.17,3.79,1.33,5.76,.33,.67-.34,1.1-.9,1.31-1.7,1.04-3.99-2.44-8.32-2.47-8.36l-3.29-4.05c-.54-.22-3.04-1.16-5.31-.78-.28,.05-.53-.14-.58-.41-.05-.27,.14-.53,.41-.58,2.85-.48,5.86,.84,5.98,.9,.07,.03,.14,.08,.19,.14l3.37,4.15c.16,.19,3.84,4.76,2.66,9.25-.28,1.08-.9,1.86-1.82,2.33-.74,.38-1.6,.51-2.45,.51Z"/><path class="cls-1" d="M93.85,103.95c-.25,0-.46-.18-.49-.43-.04-.27,.15-.53,.43-.56l10.29-1.43c.27-.04,.53,.15,.56,.43s-.15,.53-.43,.56l-10.29,1.43s-.05,0-.07,0Z"/><path class="cls-1" d="M76.56,107.37c-.26,0-.48-.2-.5-.46-.02-.28,.19-.52,.46-.54l4.02-.3c.28-.02,.52,.19,.54,.46,.02,.28-.19,.52-.46,.54l-4.02,.3s-.03,0-.04,0Z"/><path class="cls-1" d="M105.67,178.78c-.18,0-.35-.1-.44-.26-3.92-7.1-9.38-7.27-14.66-7.44-1.13-.04-2.29-.07-3.41-.18-6.63-.62-7.61-6.53-7.62-6.59-.03-.16,.03-.33,.15-.44l1.34-1.24c2.95-16.11,10.64-20.21,10.96-20.38,.14-.07,.32-.07,.46,0,.11,.06,11.12,5.76,26.24,6.25,.1,0,.19,.03,.27,.09,.12,.08,11.72,8,21.33,5.12,4.44-1.33,7.81-4.76,10.02-10.21,.03-.07,.07-.13,.13-.18l2.67-2.43c.18-.16,.45-.17,.64-.03,.08,.06,8.03,6.23,10.46,7.75,2.66,1.65,2.64,3.19,2.63,3.36-.01,.18-.11,.33-.27,.41-.16,.08-.35,.07-.49-.02-.07-.05-7.35-4.52-14.22-1.39-6.71,3.06-3.55,13.01-3.52,13.11,.02,.06,.03,.12,.02,.18,0,.12-.18,3.1-2.04,4.51-.9,.68-2.02,.88-3.33,.58-2.69-.61-4.09-2.19-4.57-2.85-8.5,1.25-13.09-2.4-14.16-3.39-13.32,4.71-18.1,15.27-18.15,15.37-.08,.17-.25,.29-.44,.3,0,0-.02,0-.02,0Zm-25.09-14.36c.25,1.06,1.52,5.01,6.68,5.49,1.09,.1,2.19,.14,3.35,.17,5.11,.16,10.88,.35,15.04,7.15,1.47-2.69,6.89-11.15,18.6-15.17,.18-.07,.39-.01,.53,.13,.04,.05,4.57,4.75,13.82,3.27,.21-.03,.41,.07,.51,.24,.01,.02,1.2,2,4.12,2.67,1.02,.23,1.84,.1,2.5-.4,1.34-1.01,1.6-3.22,1.64-3.68-.33-1.1-3.05-10.97,4.09-14.23,5.64-2.56,11.34-.47,13.85,.75-.32-.39-.82-.86-1.61-1.35-2.21-1.38-8.65-6.34-10.21-7.55l-2.27,2.07c-2.33,5.68-5.91,9.28-10.62,10.69-9.65,2.88-20.71-4.26-22.06-5.18-14.02-.49-24.54-5.38-26.27-6.23-1.25,.79-7.7,5.48-10.26,19.71-.02,.11-.07,.2-.15,.28l-1.26,1.17Z"/><path class="cls-1" d="M60.84,193.67c-.35,0-1.8-.08-2.88-1.39-1.35-1.63-1.55-4.43-.59-8.33,2.28-9.33,20.21-18.7,21.63-19.43l.68-.64c.2-.19,.52-.18,.71,.02,.19,.2,.18,.52-.02,.71l-.74,.69s-.07,.06-.12,.08c-.19,.1-18.96,9.74-21.18,18.81-1.09,4.43-.39,6.49,.38,7.44,.88,1.08,2.1,1.04,2.14,1.04,.29-.02,.51,.2,.52,.47,.01,.28-.2,.51-.47,.52,0,0-.03,0-.08,0Z"/><path class="cls-1" d="M108.87,134.84c-.13,0-.2,0-.21,0-.11-.01-.21-.05-.29-.13-5.81-5.23-15.22-13.02-17.31-13.04-.35,0-.8,0-1.33,.02h-.19c-.25,0-.5-.2-.51-.47-.01-.27,.2-.5,.47-.52,1.49-.08,7.87-6.29,11.54-10.19,.18-.19,.47-.21,.67-.05,.59,.46,14.33,11.45,13.24,18.04h0c-1,5.98-5.11,6.34-6.09,6.34Zm.04-1c.75,.01,4.18-.25,5.06-5.51,.9-5.46-10.36-15.02-12.52-16.8-1.73,1.82-6.78,7.04-9.91,9.2,3.69,.95,15.43,11.37,17.37,13.11Zm5.55-5.43h0Z"/><path class="cls-1" d="M143.05,87.21v1.84c0,.64,.26,1.26,.72,1.71l3.63,3.54c.65,.63,1.74,.35,2-.52l.64-2.12c.21-.7-.05-1.46-.65-1.89l-4.76-3.38c-.66-.47-1.58,0-1.58,.82Z"/><path class="cls-1" d="M147.3,80.82l-.25,.88c-.2,.73,0,1.51,.53,2.05l2.44,2.48c.63,.64,1.61,.8,2.41,.38l1.06-.56c.41-.22,.67-.64,.67-1.11v-1.22c0-.62-.34-1.19-.89-1.49l-4.05-2.21c-.75-.41-1.69-.02-1.92,.81Z"/><path class="cls-1" d="M156.28,87.14l-2.23,2.3c-.62,.64-.85,1.56-.62,2.42l.31,1.14c.22,.78,1.08,1.18,1.81,.83l1.37-.65c1.05-.5,1.67-1.61,1.55-2.76l-.3-2.77c-.08-.74-.89-1.16-1.54-.79h0c-.13,.07-.25,.17-.36,.27Z"/><path class="cls-1" d="M167.23,41.7c-.08,0-.16-.02-.23-.06-5.52-2.9-8.08-9.75-8.18-15.25-.05-3.06,.71-5.34,2.03-6.1,.53-.31,1.42-.51,2.6,.22,4.79,2.95,6.37,14.07,4.81,17.41-.58,1.23-1.45,1.1-1.8,.99-2.52-.84-5.36-7.7-5.08-11.09,.14-1.65,.99-2.02,1.49-2.1,.63-.1,1.54,.13,2.29,1.77,.87,1.91,1.41,5.94,.69,6.55-.21,.18-.53,.15-.7-.06-.16-.19-.16-.45,0-.64,.23-.67-.15-4.68-1.33-6.19-.39-.5-.69-.46-.78-.44-.37,.06-.59,.46-.65,1.2-.26,3.13,2.5,9.43,4.4,10.06,.1,.03,.31,.1,.57-.46,1.37-2.94-.2-13.53-4.43-16.14-.63-.39-1.14-.45-1.58-.2-.97,.55-1.57,2.6-1.53,5.21,.09,5.04,2.51,11.68,7.64,14.38,.24,.13,.34,.43,.21,.67-.09,.17-.26,.27-.44,.27Zm-2.02-8.44s0,0,0,0c0,0,0,0,0,0Z"/><path class="cls-1" d="M160.94,169.32c-1.47,0-2.83-.25-4.06-.74-2.27-.91-4.22-2.76-5.35-5.09-1.05-2.17-1.4-4.76-.98-7.31,.21-1.31,.6-2.33,1.17-3.12,.76-1.05,1.88-1.69,3.01-1.71,.27,.01,.5,.21,.51,.49,0,.28-.21,.5-.49,.51-.82,.02-1.65,.5-2.22,1.3-.48,.66-.81,1.54-.99,2.69-.38,2.34-.06,4.72,.9,6.71,1.02,2.1,2.77,3.78,4.82,4.59,1.46,.58,3.15,.78,5,.6,.4-.04,.92-.11,1.39-.27,.46-.16,.92-.42,1.41-.79,.65-.5,1.16-1.06,1.51-1.66,.45-.75,.73-1.7,.84-2.83,.22-2.28-.34-4.58-1.54-6.31-1.29-1.86-3.33-3.08-5.44-3.25-.74-.06-1.56,0-2.48,.18-1.26,.24-2.11,.63-2.68,1.21-1.15,1.17-1.08,3.04-.94,4.05,.32,2.23,1.36,4.26,2.92,5.71,.29,.27,.67,.59,1.11,.75,.45,.16,.95,.16,1.51,.14,1.54-.05,3.1-.23,4.07-1.24,.52-.54,.83-1.31,.9-2.18,.06-.75-.07-1.57-.38-2.51-.38-1.14-.91-2.07-1.58-2.77-.76-.79-1.74-1.28-2.69-1.36-.51-.04-1.03,.03-1.47,.11-.62,.11-1.3,.27-1.69,.71-.27,.31-.42,.8-.45,1.45-.05,1.18,.28,2.27,.91,3.08,.68,.86,1.75,1.35,2.74,1.25,.22-.02,.53-.08,.72-.26,.43-.4,.23-1.26,.13-1.61-.2-.66-.59-1.53-1.32-1.95-.26-.15-.8-.16-.98,.05-.16,.19-.02,.76,.67,1.61,.17,.22,.14,.53-.08,.7-.22,.17-.53,.14-.7-.08-1.24-1.56-1.04-2.43-.64-2.89,.53-.61,1.6-.63,2.24-.26,.81,.47,1.41,1.32,1.77,2.53,.34,1.14,.2,2.08-.41,2.64-.32,.29-.76,.47-1.3,.52-1.33,.13-2.71-.5-3.61-1.63-.79-.99-1.19-2.32-1.13-3.74,.04-.9,.27-1.57,.7-2.07,.59-.68,1.48-.91,2.27-1.04,.51-.08,1.11-.17,1.72-.12,1.21,.1,2.39,.68,3.33,1.66,.78,.8,1.39,1.86,1.81,3.15,.35,1.07,.5,2.01,.43,2.9-.08,1.1-.5,2.1-1.17,2.8-1.21,1.26-3.09,1.49-4.76,1.54-.64,.02-1.27,.02-1.88-.2-.61-.22-1.1-.63-1.46-.96-1.73-1.61-2.87-3.85-3.22-6.3-.17-1.2-.24-3.42,1.21-4.9,.95-.96,2.28-1.31,3.2-1.49,1.02-.2,1.92-.26,2.75-.19,2.41,.2,4.71,1.57,6.18,3.68,1.35,1.95,1.96,4.43,1.71,6.98-.12,1.27-.45,2.36-.97,3.24-.42,.72-1.02,1.37-1.77,1.95-.57,.44-1.13,.75-1.69,.94-.57,.2-1.17,.28-1.62,.32-.48,.05-.95,.07-1.41,.07Z"/><path class="cls-1" d="M90.68,191.07s-.07,0-.1,0c-1.24-.03-2.49-.68-3.7-1.92-1.64-1.68-2.54-3.66-2.53-5.56,0-.97,.25-2,.73-3.07,1.25-2.78,3.77-4.91,6.6-5.57,2.98-.69,6.28,.33,8.21,2.53,2.03,2.32,2.45,5.88,.98,8.48-.14,.24-.44,.33-.68,.19-.24-.14-.33-.44-.19-.68,1.26-2.23,.9-5.31-.86-7.32-1.7-1.93-4.6-2.83-7.23-2.22-2.52,.58-4.79,2.5-5.91,5-.42,.93-.63,1.83-.64,2.66-.01,1.63,.78,3.36,2.24,4.85,1.03,1.05,2.04,1.6,3.01,1.62,.87,.05,1.75-.37,2.52-.72,2.17-.97,4.23-2.14,4.61-4.09,.21-1.05-.13-2.26-.94-3.3-1.22-1.59-3.26-2.39-4.96-1.93-.91,.24-1.73,.92-2.21,1.81-.41,.78-.5,1.61-.25,2.34,.26,.76,.87,1.36,1.73,1.7,.96,.39,2.04,.36,2.89-.08,.28-.14,.46-.29,.56-.45,.21-.34,.1-.84,.02-1.11-.2-.63-.57-1.11-1.02-1.32-.45-.21-1.05-.08-1.27,.27-.1,.16-.1,.4,0,.61,.04,.07,.14,.25,.32,.26,.28,.02,.48,.26,.46,.54s-.26,.5-.54,.46c-.48-.04-.9-.34-1.14-.81-.26-.52-.25-1.13,.04-1.59,.5-.79,1.61-1.07,2.53-.65,.72,.33,1.27,1.02,1.56,1.93,.24,.76,.2,1.43-.12,1.94-.2,.32-.5,.58-.95,.81-1.1,.56-2.49,.61-3.72,.11-1.11-.45-1.95-1.29-2.3-2.31-.34-.99-.23-2.11,.32-3.13,.6-1.13,1.66-1.99,2.83-2.31,2.08-.55,4.55,.39,6.01,2.29,.98,1.28,1.39,2.77,1.12,4.1-.47,2.4-2.77,3.73-5.19,4.81-.81,.36-1.8,.81-2.86,.81Z"/><path class="cls-1" d="M91.54,193.9c-1.56,0-3.2-.34-4.97-1.01-3.29-1.25-5.97-3.83-7.35-7.06-.46-1.08-.74-2.14-.81-3.13-.16-2.17,.63-4.42,2.12-6.01,.19-.2,.5-.21,.71-.02,.2,.19,.21,.51,.02,.71-1.3,1.39-2,3.36-1.85,5.25,.07,.89,.31,1.83,.73,2.81,1.26,2.94,3.8,5.38,6.79,6.52,3.3,1.26,6.09,1.26,8.79,0,.25-.12,.55,0,.66,.24,.12,.25,0,.55-.24,.67-1.49,.7-3,1.04-4.59,1.04Z"/><path class="cls-1" d="M162.69,173.99c-.21,0-.41-.14-.48-.35-.08-.26,.06-.54,.33-.63,1.88-.59,3.66-1.47,5.28-2.6,.38-.26,.86-.62,1.27-1.05,1.64-1.7,2.21-4.45,1.7-8.18-.25-1.82-.37-2.71-.91-4.39-.08-.26,.06-.54,.33-.63,.27-.08,.54,.06,.63,.33,.56,1.77,.7,2.74,.94,4.51,.56,4.09-.1,7.12-1.96,9.06-.47,.49-1.01,.88-1.42,1.17-1.7,1.19-3.57,2.11-5.55,2.74-.05,.02-.1,.02-.15,.02Z"/><g><path class="cls-1" d="M215.99,127.41s-2.23,20.03-8.08,20.49c0,0-2.69,2.23-5.97-.58,0,0-1.29,1.29-3.39,.24,0,0-1.4,1.32-3.17,1.19,0,0-10.07,10.64-14.87,10.29l-6.44-1.99s-5.69-8.4-2.62-11.44h0c.27-.28,.63-.52,1.07-.7-.31-2.17-.23-4.9,1.92-5.68-.72-7.38-4.57-12.97-6-14.79,.02-1.03,.05-2.06-.28-3.21,0-.03-.16-.04-.17-.07,.62-.31,1.4-.79,1.84-1.18,3.25-2.84,4.72-10.52,1.16-12.86-3.36-2.21-4.1-10.78-4.18-11.77,0-.07,0-.09,0-.09,.75-.37,1.16-.72,1.16-.72,6.35-5.21,11.93-11.57,16.05-16.84,0,.02,.03,.04,.05,.06,0,0,.02-.03,.03-.04,1.03,1.19,3.22,3.71,3.62,4.25,.54,.7,5.45,3.86,6.85,6.79,1.4,2.92,7.73,5.81,9.48,11.51,1.76,5.7,1.64,6.84,1.64,6.84,0,0,1.4,1.2,2.93,6.82,0,0,.47,2.93,5.51,5.03,0,0,1.75,1.53,1.05,3.05,0,0,2.93,2.81,.82,5.39Z"/><path class="cls-1" d="M180.74,159.54c-.09,0-.18,0-.27,0l-.11-.02-6.61-2.04-.1-.15c-.24-.35-5.71-8.52-2.71-11.92h0s.15-.17,.15-.17c.25-.25,.54-.46,.88-.63-.35-2.94,.31-4.89,1.93-5.69-.81-7.24-4.67-12.66-5.85-14.17l-.11-.14v-.18c.02-.99,.04-1.87-.2-2.83-.09-.05-.18-.14-.23-.28l-.14-.41,.39-.2c.64-.32,1.35-.78,1.73-1.11,1.91-1.66,3.24-5.3,3.04-8.27-.08-1.24-.47-2.91-1.82-3.79-3.48-2.29-4.28-10.52-4.4-12.15v-.44s.27-.14,.27-.14c.68-.33,1.05-.64,1.05-.65,5.31-4.36,10.69-10,15.98-16.77l.49-.62,.36,.62,.44,.5c1.13,1.31,2.85,3.29,3.21,3.78,.11,.14,.67,.58,1.21,1.01,1.73,1.36,4.63,3.64,5.69,5.86,.5,1.04,1.75,2.14,3.2,3.4,2.32,2.03,5.2,4.56,6.32,8.18,1.38,4.46,1.62,6.19,1.66,6.78,.45,.51,1.64,2.2,2.92,6.89,.02,.07,.55,2.75,5.22,4.71l.14,.08c.08,.07,1.8,1.59,1.3,3.3,1.08,1.18,2.36,3.57,.72,5.71-.3,2.64-2.51,20.03-8.38,20.77-.6,.42-3.16,1.89-6.16-.43-.56,.36-1.72,.86-3.31,.19-.49,.38-1.62,1.11-2.99,1.11-.02,0-.03,0-.04,0-1.33,1.38-10.08,10.29-14.84,10.29Zm-.14-1c4.56,.26,14.32-10.03,14.41-10.13l.16-.17,.24,.02c1.52,.12,2.78-1.04,2.79-1.05l.25-.24,.31,.15c1.73,.87,2.78-.1,2.82-.15l.33-.32,.35,.29c2.93,2.51,5.23,.66,5.32,.58l.12-.1h.16c4.46-.36,7.02-14.6,7.62-20.06l.02-.15,.09-.11c1.79-2.19-.67-4.61-.78-4.72l-.26-.25,.15-.32c.47-1.02-.61-2.16-.87-2.41-5.15-2.18-5.7-5.25-5.72-5.38-1.43-5.25-2.76-6.51-2.77-6.52l-.19-.17,.02-.26s.04-1.26-1.62-6.64c-1.03-3.35-3.68-5.67-6.02-7.72-1.53-1.34-2.85-2.49-3.44-3.72-.96-2.01-3.75-4.2-5.41-5.51-.81-.64-1.21-.96-1.39-1.19-.34-.46-2.11-2.5-3.17-3.72l-.09-.1c-5.22,6.63-10.53,12.17-15.78,16.48,0,0-.34,.29-.95,.62,.31,3.54,1.44,9.51,3.94,11.15,1.34,.88,2.13,2.46,2.27,4.56,.23,3.31-1.23,7.22-3.38,9.09-.38,.33-.94,.7-1.45,.98,.26,1.05,.25,2,.24,2.92,1.36,1.77,5.27,7.44,5.99,14.91l.04,.39-.37,.13c-1.83,.66-1.88,3.16-1.6,5.13l.06,.39-.36,.15c-.32,.13-.6,.3-.82,.5l-.09,.09c-2.22,2.2,1.03,8.3,2.59,10.66l6.21,1.92Z"/></g><path class="cls-1" d="M168.16,121.23c.33,1.15,.3,2.18,.28,3.21,0,0,0-.02-.02-.03,.03-.99-.09-2.07-.43-3.24,0,.03,.17,.04,.17,.07Z"/><path class="cls-1" d="M184.08,77.73s-.02,.03-.03,.04c-.02-.02-.04-.04-.05-.06,0,0,.02-.02,.03-.03,0,.02,.03,.03,.05,.05Z"/><g><path class="cls-1" d="M168.44,124.44v.06c-.05,3.44-1.75,5.67-1.75,5.67-.25,2.65-1.71,3.07-1.71,3.07l-.25,3.25c-1.54,4.19-6.45,2.05-6.45,2.05-4.84-.59-4.83,2.73-4.83,2.73l-2.67,2.43c-8.72,21.49-32.1,5.31-32.1,5.31-15.42-.5-26.46-6.31-26.46-6.31l-4.98-4.9c-4.49-.09-4.39-5.09-4.39-5.09-2.49-1.7-1.79-3.89-1.79-3.89-1.5-.09-1.51-6.97-1.51-6.97,2.76-.22,7.26-.55,9.98-.65,.62-.02,1.15-.04,1.55-.03,3.04,.04,17.64,13.17,17.64,13.17,0,0,4.69,.46,5.75-5.92,1.06-6.37-13.06-17.56-13.06-17.56l2.72-8.83c7.14-2.71,5.47-7.62,5.47-7.62-.89-5.41-10.32-3.79-10.32-3.79l-9.57-14.59c-.78-3.04-1.66-4.97-2.56-6.14,0,0,3.2-3.98,5.19-3.27,0,0,1.39-1.51,2.69-.58,0,0,0,0,0,0,2.39,3.83,7,10.94,10.17,14.11,4.47,4.47,11.28,14.58,11.28,14.58,0,0,1,3.89,2.68,5.63l.49,4.15s-1.68,2.56-1.57,3.82c.1,1.25-.53,11.63,7.86,14.14,0,0,3.14,2.21,6.18,0,0,0,1.06,9.96,5.87,9.12s23.28-2.4,23.28-2.4c0,0,1.46-.53,1.77-2.41s.63-6.5,.63-6.5c0,0,1.9,1.7,4.32,.89,0,.03,.17,.04,.17,.07,.33,1.15,.3,2.18,.28,3.21Z"/><path class="cls-1" d="M135.71,155.36c-8.18,0-16.06-5.09-17.2-5.86-15.29-.53-26.42-6.3-26.53-6.36l-.12-.09-4.84-4.77c-3.6-.19-4.62-3.41-4.68-5.32-1.89-1.4-1.95-3.08-1.86-3.86-1.23-.94-1.44-4.83-1.44-7.26v-.46s.46-.04,.46-.04c2.01-.16,7.02-.54,10-.65h.2c.55-.02,1.02-.04,1.38-.03,3.05,.04,15.8,11.36,17.83,13.18,.75,.01,4.18-.25,5.06-5.51,1-6.01-12.74-16.98-12.88-17.09l-.27-.21,2.9-9.4,.23-.09c6.57-2.49,5.23-6.81,5.17-6.99-.18-1.07-.66-1.83-1.48-2.42-2.75-1.96-8.23-1.05-8.29-1.04l-.32,.05-9.82-15.01c-.71-2.74-1.54-4.74-2.47-5.96l-.24-.31,.25-.31c.33-.42,3.2-3.89,5.43-3.51,.65-.58,1.87-1.22,3-.51h.12l.09,.15,.12,.09v.11c1.99,3.19,6.81,10.69,10.04,13.92,4.45,4.45,11.06,14.24,11.34,14.65l.07,.16s.99,3.79,2.55,5.41l.12,.12,.53,4.5-.1,.15c-.61,.93-1.56,2.71-1.49,3.5,0,.12,.01,.31,.02,.58,.13,7.26,2.65,11.68,7.49,13.13l.14,.07c.12,.08,2.89,1.97,5.59,0l.7-.51,.09,.86c0,.06,.69,6.24,3.26,8.17,.62,.47,1.29,.63,2.04,.5,4.68-.81,21.76-2.28,23.24-2.4,.23-.11,1.17-.62,1.4-2,.3-1.84,.62-6.4,.63-6.45l.07-1.01,.76,.67c.07,.06,1.72,1.49,3.83,.79l.47-.16,.09,.25c.17,.09,.23,.22,.26,.33,.34,1.19,.32,2.24,.3,3.26l-.5,.06h.5v.06c-.04,3.16-1.41,5.33-1.77,5.85-.24,2.08-1.19,2.91-1.71,3.21l-.26,3.1c-.45,1.24-1.23,2.1-2.29,2.55-1.98,.85-4.31-.01-4.75-.19-1.56-.18-2.72,.05-3.44,.69-.74,.66-.76,1.55-.76,1.56v.22s-2.75,2.51-2.75,2.51c-2.33,5.68-5.91,9.28-10.62,10.69-1.6,.48-3.24,.68-4.87,.68Zm-43.19-13.07c.92,.47,11.65,5.75,26.18,6.22h.15s.12,.09,.12,.09c.12,.08,11.72,8,21.33,5.12,4.44-1.33,7.81-4.76,10.02-10.21l.13-.18,2.52-2.3c.05-.43,.26-1.34,1.08-2.07,.95-.84,2.4-1.16,4.3-.92l.14,.04s2.28,.97,4.04,.22c.78-.34,1.36-.98,1.72-1.91l.28-3.53,.33-.1s1.13-.41,1.35-2.64v-.14s.1-.11,.1-.11c.02-.02,1.61-2.15,1.65-5.37v-.13c.02-.87,.03-1.71-.17-2.61-1.56,.39-2.88-.12-3.67-.56-.11,1.44-.34,4.27-.57,5.67-.35,2.15-2.02,2.78-2.1,2.8l-.13,.03c-.18,.02-18.49,1.57-23.23,2.4-1.02,.18-1.97-.05-2.81-.69-2.34-1.77-3.26-6.26-3.54-8.08-2.79,1.5-5.52-.07-6-.38-5.26-1.61-7.99-6.34-8.13-14.05,0-.23,0-.41-.02-.51-.1-1.25,1.16-3.35,1.56-3.98l-.45-3.81c-1.56-1.73-2.5-5.05-2.66-5.64-.61-.9-6.98-10.24-11.17-14.43-3.15-3.16-7.62-10-10.1-13.97h-.22v-.22c-.88-.38-1.82,.61-1.83,.62l-.22,.24-.31-.11c-1.13-.4-3.18,1.41-4.39,2.82,.91,1.32,1.71,3.31,2.39,5.91l9.35,14.25c1.29-.18,6-.67,8.71,1.26,1.04,.74,1.66,1.74,1.87,2.99h0s1.66,5.22-5.56,8.08l-2.55,8.28c2.02,1.64,14,11.66,12.97,17.82-1.13,6.77-6.24,6.33-6.29,6.34l-.16-.02-.12-.11c-5.81-5.23-15.22-13.02-17.31-13.04-.35,0-.8,0-1.33,.02h-.19c-2.75,.11-7.25,.45-9.49,.62,.05,3.32,.57,5.88,1.04,6.01l.64,.04-.2,.61c-.02,.07-.54,1.88,1.6,3.33l.22,.15v.27c0,.18-.03,4.5,3.9,4.58h.2s5.07,4.99,5.07,4.99Z"/></g></svg>