<?xml version="1.0" encoding="UTF-8"?><svg id="xbox" xmlns="http://www.w3.org/2000/svg" width="250" height="250" viewBox="0 0 250 250"><defs><style>.cls-1{fill:#fff;}.cls-2{fill:#1d1d1b;}.cls-3{fill:#b9b9b9;}</style></defs><path class="cls-2" d="M27.67,206.02c-8.69,0-16.95-6.64-20.54-14.32-4.54-9.73-3.76-20.91-2.67-30.63,1.69-15.07,4.4-30.17,8.04-44.88,4.12-16.66,10.16-35.52,23.67-49.17,7.84-7.92,17.46-13.01,27.07-14.33,10.87-1.49,21.94,2.04,28.89,9.23,1.9,1.96,3.51,4.18,5.07,6.32,1.77,2.43,3.6,4.95,5.8,7,5.1,4.75,12.75,7.35,20.97,7.12,8.89-.25,17.84-3.72,24.57-9.52,1.86-1.6,3.62-3.43,5.31-5.19,1.97-2.05,4.01-4.18,6.28-6.02,10.17-8.26,25.07-10.31,37.09-5.1,15.88,6.88,24.39,23.84,30.03,37.84,8.19,20.33,14.12,41.6,17.62,63.22,1.45,8.99,2.71,19.38-.67,28.99-3.16,8.95-11.86,17.62-22.37,16.89-9.68-.69-16.26-8.42-22.62-15.9-1.26-1.48-2.56-3.01-3.86-4.45l-.69-.74c-11.01-11.86-26.76-17.58-46.89-17-10.82,.3-20.66,.12-30.09-.56-11.31-.81-23.38-1.11-35.06,2.12-12.63,3.49-24.07,11.06-32.2,21.32-.95,1.2-1.9,2.47-2.82,3.71-3.99,5.36-8.11,10.9-14.48,13.12-1.81,.63-3.65,.92-5.46,.92ZM68.21,54.36c-1.56,0-3.12,.1-4.69,.32-9.18,1.26-18.39,6.15-25.92,13.76-13.16,13.3-19.09,31.85-23.15,48.24-3.62,14.63-6.31,29.64-8,44.62-1.06,9.44-1.83,20.29,2.49,29.56,3.96,8.49,14.08,15.63,23.53,12.35,5.79-2.01,9.72-7.3,13.53-12.42,.93-1.25,1.89-2.54,2.86-3.76,8.4-10.59,20.2-18.4,33.24-22,11.97-3.31,24.25-3.01,35.74-2.19,9.37,.67,19.15,.85,29.89,.55,19.69-.57,35.38,4.77,46.68,15.86v-.09l1.73,1.86c1.56,1.68,3.11,3.5,4.61,5.27,6.1,7.16,12.4,14.57,21.24,15.2,9.51,.68,17.43-7.31,20.34-15.56,3.23-9.17,1.99-19.26,.58-28.01-3.48-21.47-9.36-42.59-17.5-62.79-5.49-13.65-13.75-30.16-28.97-36.75-11.36-4.92-25.43-2.98-35.04,4.82-2.17,1.77-4.17,3.84-6.1,5.85-1.73,1.8-3.51,3.65-5.45,5.32-7.17,6.19-16.34,9.74-25.82,10-8.77,.25-16.91-2.55-22.39-7.66-2.34-2.18-4.22-4.77-6.05-7.28-1.52-2.09-3.09-4.25-4.89-6.11-5.52-5.71-13.85-8.96-22.5-8.96Z"/><path class="cls-2" d="M43.14,63.07h-2v-3.37c0-1.98,1.05-3.84,2.73-4.86,7.46-4.55,32.96-18.39,47.55-5.41,.71,.62,1.58,.97,2.45,.98l59.93,.56h.04c1.08,0,2.12-.34,2.98-1,4.89-3.68,19.06-10.71,44.9,3.56,1.22,.68,2.12,1.82,2.48,3.13l1.41,5.14-1.93,.53-1.41-5.13c-.22-.8-.78-1.5-1.52-1.92-24.82-13.7-38.15-7.16-42.73-3.71-1.2,.91-2.69,1.4-4.19,1.4h-.05l-59.93-.56c-1.35-.01-2.68-.54-3.75-1.48-13.57-12.07-38.02,1.26-45.19,5.63-1.09,.66-1.77,1.86-1.77,3.15v3.37Z"/><circle class="cls-3" cx="125.07" cy="66.04" r="11.43"/><circle class="cls-2" cx="64.19" cy="92.52" r="13.57"/><circle class="cls-2" cx="156.16" cy="129.18" r="13.57"/><path class="cls-2" d="M62.8,113.68c-11.67,0-21.16-9.49-21.16-21.16s9.49-21.16,21.16-21.16,21.16,9.49,21.16,21.16-9.49,21.16-21.16,21.16Zm0-41.31c-11.11,0-20.16,9.04-20.16,20.16s9.04,20.16,20.16,20.16,20.16-9.04,20.16-20.16-9.04-20.16-20.16-20.16Z"/><path class="cls-2" d="M156.16,152.57c-11.67,0-21.16-9.49-21.16-21.16s9.49-21.16,21.16-21.16,21.16,9.49,21.16,21.16-9.49,21.16-21.16,21.16Zm0-41.31c-11.11,0-20.16,9.04-20.16,20.16s9.04,20.16,20.16,20.16,20.16-9.04,20.16-20.16-9.04-20.16-20.16-20.16Z"/><path class="cls-2" d="M110.6,126.92v9.26c0,.67-.54,1.2-1.2,1.2h-8.43c-.67,0-1.2,.54-1.2,1.2v8.29c0,.67-.54,1.2-1.2,1.2h-9.26c-.67,0-1.2-.54-1.2-1.2v-8.29c0-.67-.54-1.2-1.2-1.2h-8.14c-.67,0-1.2-.54-1.2-1.2v-9.26c0-.67,.54-1.2,1.2-1.2h8.14c.67,0,1.2-.54,1.2-1.2v-8.29c0-.67,.54-1.2,1.2-1.2h9.26c.67,0,1.2,.54,1.2,1.2v8.29c0,.67,.54,1.2,1.2,1.2h8.43c.67,0,1.2,.54,1.2,1.2Z"/><path class="cls-2" d="M94.07,151.62c-11.07,0-20.08-9.01-20.08-20.08s9.01-20.08,20.08-20.08,20.08,9.01,20.08,20.08-9.01,20.08-20.08,20.08Zm0-39.16c-10.52,0-19.08,8.56-19.08,19.08s8.56,19.08,19.08,19.08,19.08-8.56,19.08-19.08-8.56-19.08-19.08-19.08Z"/><rect class="cls-2" x="185.95" y="77.48" width="1" height="5.31"/><circle class="cls-2" cx="169.65" cy="93.02" r="7.66"/><circle class="cls-2" cx="186.45" cy="76.91" r="7.66"/><circle class="cls-2" cx="186.45" cy="109.3" r="7.66" transform="translate(48.7 275.83) rotate(-80.78)"/><circle class="cls-2" cx="204.64" cy="93.14" r="7.66"/><circle class="cls-3" cx="108.51" cy="92.18" r="4.41"/><circle class="cls-3" cx="141.74" cy="92.18" r="4.41"/><path class="cls-1" d="M188.49,112.36l-.39-1.04h-3.36l-.39,1.06c-.15,.41-.29,.69-.39,.83-.11,.14-.29,.22-.53,.22-.21,0-.4-.08-.55-.24-.16-.15-.25-.33-.25-.52,0-.11,.02-.23,.06-.35s.1-.29,.18-.5l2.11-5.37c.06-.15,.13-.34,.22-.55,.08-.22,.17-.4,.27-.53,.09-.14,.23-.26,.38-.35s.35-.13,.57-.13,.43,.04,.59,.13c.15,.09,.28,.21,.38,.34,.09,.14,.17,.29,.25,.45,.06,.16,.15,.37,.25,.64l2.16,5.33c.17,.41,.26,.7,.26,.88s-.08,.37-.24,.52c-.16,.16-.35,.24-.57,.24-.13,0-.25-.02-.34-.07s-.17-.11-.24-.2-.13-.21-.21-.37c-.07-.16-.13-.32-.18-.44l-.03,.03Zm-3.32-2.29h2.46l-1.24-3.41-1.22,3.41h0Z"/><path class="cls-1" d="M204.78,96.52h-2.27c-.33,0-.56-.07-.7-.22-.14-.14-.21-.38-.21-.7v-5.58c0-.33,.07-.56,.22-.71,.14-.14,.38-.22,.7-.22h2.4c.36,0,.66,.02,.92,.06,.26,.04,.49,.12,.7,.26,.17,.1,.33,.24,.46,.4,.13,.16,.24,.34,.31,.53,.07,.2,.1,.4,.1,.62,0,.74-.37,1.28-1.12,1.63,.98,.31,1.47,.91,1.47,1.82,0,.41-.1,.79-.32,1.12s-.5,.57-.86,.74c-.23,.09-.48,.16-.78,.21-.3,.04-.64,.06-1.03,.06v-.02Zm-1.67-6.3v1.92h1.38c.38,0,.67-.03,.87-.1s.36-.21,.47-.41c.08-.14,.12-.3,.12-.47,0-.38-.13-.63-.4-.75s-.68-.18-1.22-.18h-1.22Zm1.57,3h-1.57v2.17h1.62c1.02,0,1.53-.37,1.53-1.1,0-.38-.13-.65-.39-.81s-.66-.26-1.18-.26h-.01Z"/><path class="cls-1" d="M166.51,95.61l2.02-2.96-1.7-2.63c-.16-.26-.28-.47-.36-.66s-.12-.36-.12-.52,.07-.33,.24-.46c.15-.13,.34-.21,.56-.21,.26,0,.45,.07,.6,.23s.34,.43,.59,.83l1.36,2.2,1.45-2.2c.12-.18,.23-.34,.31-.47s.16-.24,.25-.33,.16-.15,.27-.2,.21-.06,.34-.06c.23,0,.42,.07,.56,.21s.22,.3,.22,.49c0,.28-.15,.65-.47,1.12l-1.79,2.67,1.92,2.96c.17,.26,.3,.47,.38,.65s.11,.33,.11,.48c0,.14-.03,.28-.1,.39-.07,.12-.16,.22-.3,.29-.12,.07-.27,.1-.43,.1-.17,0-.32-.04-.44-.11s-.22-.16-.29-.27-.22-.32-.41-.63l-1.59-2.51-1.69,2.58c-.13,.21-.23,.35-.28,.43s-.12,.16-.21,.24-.17,.14-.28,.18-.24,.07-.38,.07c-.23,0-.41-.07-.55-.21s-.22-.33-.22-.6c0-.31,.15-.68,.45-1.12h0Z"/><path class="cls-1" d="M185.55,80.12v-2.71l-2.08-3.23c-.18-.29-.31-.51-.39-.68s-.11-.31-.11-.42c0-.2,.07-.37,.23-.51s.34-.22,.56-.22,.42,.07,.53,.21,.31,.4,.55,.8l1.59,2.59,1.61-2.59c.09-.16,.17-.3,.25-.4s.14-.22,.22-.31c.08-.09,.16-.16,.27-.22,.09-.05,.22-.07,.36-.07,.22,0,.4,.07,.54,.22s.22,.31,.22,.49c0,.15-.04,.31-.11,.45-.07,.15-.21,.36-.38,.63l-2.14,3.28v2.71c0,.35-.08,.62-.25,.79s-.37,.26-.63,.26-.46-.08-.63-.26-.24-.44-.24-.79h.02Z"/></svg>